<svg width="25" height="26" viewBox="0 0 25 26" fill="none" xmlns="http://www.w3.org/2000/svg">
<path d="M12.5001 11.3563C13.0004 11.3563 13.4061 11.7619 13.4061 12.2623V19.6358C13.4061 20.1363 13.0004 20.5418 12.5001 20.5418C11.9997 20.5418 11.594 20.1363 11.594 19.6358V12.2623C11.594 11.7619 11.9997 11.3563 12.5001 11.3563Z" fill="#232C28" stroke="white" stroke-width="0.4"/>
<path d="M13.7748 7.10116C13.7748 7.80517 13.2041 8.37586 12.5001 8.37586C11.7961 8.37586 11.2254 7.80517 11.2254 7.10116C11.2254 6.39717 11.7961 5.82646 12.5001 5.82646C13.2041 5.82646 13.7748 6.39717 13.7748 7.10116Z" fill="#232C28" stroke="white" stroke-width="0.4"/>
<path d="M19.3841 1.05992L19.4063 0.861245L19.3841 1.05992C21.9866 1.35078 24.0871 3.40101 24.393 6.01595C24.9357 10.6559 24.9357 15.3435 24.393 19.9836C24.0871 22.5985 21.9866 24.6488 19.3841 24.9396C14.8457 25.4469 10.1543 25.4469 5.61582 24.9396C3.01333 24.6488 0.912863 22.5985 0.607023 19.9836C0.0643256 15.3435 0.0643257 10.6559 0.607023 6.01594C0.912863 3.40101 3.01333 1.35078 5.61582 1.05992C10.1543 0.552682 14.8457 0.552683 19.3841 1.05992ZM19.1829 2.86076C14.7782 2.36846 10.2218 2.36846 5.81709 2.86076C4.03838 3.05955 2.61306 4.46304 2.40681 6.22644C1.88047 10.7266 1.88047 15.2729 2.40681 19.7731C2.61305 21.5364 4.03837 22.94 5.81709 23.1388C10.2218 23.6311 14.7782 23.6311 19.1829 23.1388C20.9617 22.94 22.3869 21.5364 22.5931 19.7731C23.1195 15.2729 23.1195 10.7266 22.5931 6.22644C22.3869 4.46304 20.9617 3.05954 19.1829 2.86076Z" fill="#232C28" stroke="white" stroke-width="0.4"/>
</svg>
