<svg width="11" height="12" viewBox="0 0 11 12" fill="none" xmlns="http://www.w3.org/2000/svg">
<path d="M0.00489023 8.38302C-0.00993399 8.46718 0.00925156 8.5538 0.0582789 8.62382C0.107285 8.69384 0.182136 8.74151 0.266312 8.75633L1.69668 9.00854L0.795644 3.89844L0.00489023 8.38302Z" fill="#232C28"/>
<path d="M1.72271 0.50519C1.63834 0.489871 1.55128 0.508778 1.48088 0.557762C1.4105 0.606768 1.36252 0.681813 1.34763 0.766289L1.00586 2.70461L7.5086 1.55799L1.72271 0.50519Z" fill="#232C28"/>
<path d="M10.9951 9.77872L9.65207 2.16184C9.62117 1.98657 9.45409 1.86961 9.27873 1.90044L1.66188 3.24349C1.48661 3.27439 1.36956 3.44153 1.40045 3.6168L2.74351 11.2337C2.75835 11.3179 2.80603 11.3927 2.87604 11.4417C2.93059 11.4799 2.9952 11.5 3.0609 11.5C3.07952 11.5 3.09826 11.4984 3.11684 11.4951L10.7337 10.1521C10.8179 10.1372 10.8927 10.0895 10.9418 10.0195C10.9908 9.94952 11.01 9.86289 10.9951 9.77872ZM3.11761 5.93194C3.08672 5.75667 3.20377 5.58952 3.37904 5.55863L8.45698 4.66324C8.6324 4.63235 8.79942 4.74937 8.83031 4.92464C8.86121 5.09991 8.74416 5.26706 8.56889 5.29796L3.49095 6.19336C3.47202 6.19669 3.45318 6.1983 3.43462 6.1983C3.28115 6.1983 3.14518 6.0883 3.11761 5.93194ZM7.32391 8.1354L3.93864 8.73232C3.91971 8.73565 3.90087 8.73726 3.88231 8.73726C3.72884 8.73726 3.59287 8.62726 3.56531 8.4709C3.53441 8.29563 3.65146 8.12848 3.82673 8.09758L7.212 7.50066C7.3874 7.46975 7.55442 7.58679 7.58533 7.76206C7.61623 7.93733 7.49918 8.10448 7.32391 8.1354ZM8.79271 6.56745L3.71477 7.46283C3.69584 7.46616 3.677 7.46777 3.65844 7.46777C3.50498 7.46777 3.369 7.35777 3.34144 7.20141C3.31054 7.02614 3.42759 6.85899 3.60286 6.82809L8.6808 5.93271C8.8562 5.90182 9.02322 6.01884 9.05413 6.19411C9.08503 6.3694 8.96798 6.53655 8.79271 6.56745Z" fill="#232C28"/>
</svg>
