<svg width="57" height="43" viewBox="0 0 57 43" fill="none" xmlns="http://www.w3.org/2000/svg">
<path d="M56.6725 13.8469C56.3937 13.4929 55.9778 13.2862 55.5414 13.2862H49.994C48.625 9.52701 46.8416 5.84376 44.8144 4.45342C37.8017 -0.349707 19.2009 -0.349707 12.1882 4.45342C10.1595 5.84528 8.38338 9.53309 7.00711 13.2862H1.45971C1.01895 13.2862 0.604466 13.4929 0.328629 13.8469C0.0513316 14.1995 -0.0595873 14.666 0.0308992 15.1142L0.852574 19.2594C0.992682 19.966 1.59106 20.4704 2.28138 20.4704H3.92473C2.3383 22.3759 1.56917 24.7752 1.55895 27.176C1.54874 30.142 2.63019 32.8224 4.60776 34.7187C4.62965 34.7385 4.65154 34.7522 4.67198 34.7719V40.5718C4.67198 41.8285 5.65273 42.8511 6.86116 42.8511H11.978C13.1865 42.8511 14.1672 41.8285 14.1672 40.5718V38.2409H42.8324V40.5718C42.8324 41.8285 43.8132 42.8511 45.0216 42.8511H50.1385C51.344 42.8511 52.3277 41.8285 52.3277 40.5718V34.8859C54.4264 32.8847 55.429 30.1314 55.4422 27.3826C55.4509 24.8997 54.6467 22.4123 52.9669 20.4674H54.7197C55.413 20.4674 56.0113 19.9629 56.1485 19.2548L56.9717 15.1112C57.0563 14.6659 56.9498 14.2025 56.6725 13.8469ZM14.5919 8.25976C20.1816 4.42911 36.818 4.42911 42.4048 8.25976C43.4907 9.00127 44.8874 11.9992 46.1673 15.6703H10.8324C12.1094 12.0008 13.5061 9.00431 14.5919 8.25976ZM8.04479 27.7473C8.04479 25.2705 9.97419 23.2648 12.3516 23.2648C14.732 23.2648 16.6585 25.2705 16.6585 27.7473C16.6585 30.2241 14.732 32.2313 12.3516 32.2313C9.97419 32.2313 8.04479 30.2241 8.04479 27.7473ZM44.7049 32.2313C42.3275 32.2313 40.3981 30.2241 40.3981 27.7473C40.3981 25.2705 42.3275 23.2648 44.7049 23.2648C47.0853 23.2648 49.0118 25.2705 49.0118 27.7473C49.0118 30.2241 47.0824 32.2313 44.7049 32.2313Z" fill="white"/>
</svg>
