<svg width="24" height="27" viewBox="0 0 24 27" fill="none" xmlns="http://www.w3.org/2000/svg">
<path d="M12.0108 1.5C7.87956 1.5 4.53415 4.8454 4.53415 8.97664V11.3341C4.53415 12.0975 4.21982 13.2426 3.8269 13.8937L2.40118 16.2737C1.52553 17.7443 2.13175 19.3833 3.74832 19.9222C9.11444 21.7071 14.9184 21.7071 20.2845 19.9222C21.8 19.417 22.4512 17.6433 21.6316 16.2737L20.2059 13.8937C19.813 13.2426 19.4987 12.0863 19.4987 11.3341V8.97664C19.4874 4.86786 16.1196 1.5 12.0108 1.5Z" stroke="#09C47A" stroke-width="3" stroke-miterlimit="10" stroke-linecap="round"/>
<path d="M15.7266 21.665C15.7266 23.7194 14.0427 25.4034 11.9883 25.4034C10.9667 25.4034 10.0237 24.9768 9.35017 24.3032C8.67659 23.6296 8.25 22.6866 8.25 21.665" stroke="#09C47A" stroke-width="3" stroke-miterlimit="10"/>
</svg>
