<svg width="112" height="112" viewBox="0 0 112 112" fill="none" xmlns="http://www.w3.org/2000/svg">
<g clip-path="url(#clip0_1072_6844)">
<path d="M59.1791 69.9448L63.0023 77.5912H96.2292L92.4061 69.9448H59.1791Z" fill="#09C47A"/>
<path d="M52.9926 69.9448H19.7657L15.9425 77.5912H49.1694L52.9926 69.9448Z" fill="#09C47A"/>
<path d="M57.9975 76.1313V92.8839H54.1743V76.1313L51.5328 81.4144H23.5889V112H54.1743V98.6187H57.9975V112H88.5829V81.4144H60.639L57.9975 76.1313ZM38.8816 108.177H27.412V104.353H38.8816V108.177ZM38.8816 100.53H27.412V96.7071H38.8816V100.53ZM46.5279 108.177H42.7048V104.353H46.5279V108.177Z" fill="#09C47A"/>
<path d="M47.2578 28.3948L56.0859 26.1443L64.9139 28.3948L65.6056 18.9152L70.2968 10.9039L62.0027 7.31407L56.0859 0L50.17 7.31407L41.875 10.9039L46.5662 18.9152L47.2578 28.3948Z" fill="#09C47A"/>
<path d="M17.8158 32.2962L20.5955 27.5518L15.6728 25.4199L12.1193 21.0273L8.5659 25.4199L3.64319 27.5518L6.42283 32.2962L6.83166 37.9526L12.1193 36.6066L17.407 37.9526L17.8158 32.2962Z" fill="#09C47A"/>
<path d="M94.7647 37.9526L100.052 36.6066L105.34 37.9526L105.749 32.2962L108.529 27.5518L103.606 25.4199L100.052 21.0273L96.499 25.4199L91.5763 27.5518L94.3559 32.2962L94.7647 37.9526Z" fill="#09C47A"/>
<path d="M20.6169 42.8613C24.2562 45.2891 27.4904 48.2526 30.2225 51.6698L37.7942 61.1307L36.2289 48.6054C35.4103 42.0661 31.9175 36.0466 26.6457 32.0937L24.8144 30.7207L19.2112 41.9252L20.6169 42.8613Z" fill="#09C47A"/>
<path d="M75.9438 48.6054L74.3776 61.1306L81.9502 51.6678C84.6832 48.2507 87.9155 45.2872 91.5557 42.8594L92.9586 41.9232L87.3555 30.7188L85.5241 32.0955C80.2542 36.0484 76.7596 42.066 75.9438 48.6054Z" fill="#09C47A"/>
<path d="M63.7322 62.2983H67.5554V54.2889C67.5554 45.108 70.7915 36.1689 76.6719 29.1134L73.7335 26.667C67.2838 34.4067 63.7322 44.2166 63.7322 54.2889V62.2983Z" fill="#09C47A"/>
<path d="M77.1133 20.2437H80.9365V24.0668H77.1133V20.2437Z" fill="#09C47A"/>
<path d="M82.8481 12.5972H86.6713V16.4203H82.8481V12.5972Z" fill="#09C47A"/>
<path d="M44.6164 62.2983H48.4395V54.2889C48.4395 44.2148 44.888 34.4067 38.4401 26.667L35.5018 29.1134C41.3803 36.1689 44.6164 45.108 44.6164 54.2889V62.2983Z" fill="#09C47A"/>
<path d="M31.2352 20.2437H35.0584V24.0668H31.2352V20.2437Z" fill="#09C47A"/>
<path d="M25.5005 12.5972H29.3236V16.4203H25.5005V12.5972Z" fill="#09C47A"/>
<path d="M54.1743 29.8013H57.9975V33.6244H54.1743V29.8013Z" fill="#09C47A"/>
<path d="M54.1743 37.4478H57.9975V62.2984H54.1743V37.4478Z" fill="#09C47A"/>
<path d="M103.876 48.9175H107.699V52.7407H103.876V48.9175Z" fill="#09C47A"/>
<path d="M103.876 56.5635H107.699V60.3867H103.876V56.5635Z" fill="#09C47A"/>
<path d="M107.699 52.7402H111.522V56.5634H107.699V52.7402Z" fill="#09C47A"/>
<path d="M100.052 52.7402H103.876V56.5634H100.052V52.7402Z" fill="#09C47A"/>
<path d="M101.964 1.12744H105.787V4.95062H101.964V1.12744Z" fill="#09C47A"/>
<path d="M101.964 8.77393H105.787V12.5971H101.964V8.77393Z" fill="#09C47A"/>
<path d="M105.787 4.95068H109.61V8.77386H105.787V4.95068Z" fill="#09C47A"/>
<path d="M98.1408 4.95068H101.964V8.77386H98.1408V4.95068Z" fill="#09C47A"/>
<path d="M4.47296 56.5635H8.29614V60.3867H4.47296V56.5635Z" fill="#09C47A"/>
<path d="M4.47296 64.21H8.29614V68.0331H4.47296V64.21Z" fill="#09C47A"/>
<path d="M8.29614 60.3867H12.1193V64.2099H8.29614V60.3867Z" fill="#09C47A"/>
<path d="M0.64978 60.3867H4.47296V64.2099H0.64978V60.3867Z" fill="#09C47A"/>
<path d="M4.47296 1.12744H8.29614V4.95062H4.47296V1.12744Z" fill="#09C47A"/>
<path d="M4.47296 8.77393H8.29614V12.5971H4.47296V8.77393Z" fill="#09C47A"/>
<path d="M8.29614 4.95068H12.1193V8.77386H8.29614V4.95068Z" fill="#09C47A"/>
<path d="M0.64978 4.95068H4.47296V8.77386H0.64978V4.95068Z" fill="#09C47A"/>
</g>
<defs>
<clipPath id="clip0_1072_6844">
<rect width="112" height="112" fill="white"/>
</clipPath>
</defs>
</svg>
