<svg width="21" height="22" viewBox="0 0 21 22" fill="none" xmlns="http://www.w3.org/2000/svg">
<path d="M2.89154 22H18.1085C19.7036 22 21 20.6922 21 19.083V4.54665C21 2.93739 19.7036 1.6296 18.1085 1.6296H16.9615V0.8148C16.9615 0.366646 16.598 0 16.1538 0C15.7096 0 15.3461 0.366646 15.3461 0.8148V1.6296H5.65387V0.8148C5.65387 0.366646 5.29036 0 4.84613 0C4.40189 0 4.03845 0.366646 4.03845 0.8148V1.6296H2.89154C1.29636 1.6296 0 2.93739 0 4.54665V19.083C0 20.6922 1.29636 22 2.89154 22ZM1.61542 4.54665C1.61542 3.83778 2.18887 3.25927 2.89154 3.25927H4.03845V4.07407C4.03845 4.52222 4.40189 4.88887 4.84613 4.88887C5.29036 4.88887 5.6538 4.52222 5.6538 4.07407V3.25927H15.3461V4.07407C15.3461 4.52222 15.7096 4.88887 16.1538 4.88887C16.598 4.88887 16.9615 4.52222 16.9615 4.07407V3.25927H18.1084C18.8111 3.25927 19.3845 3.83778 19.3845 4.54665V6.92593H1.61542V4.54665ZM1.61542 8.55553H19.3846V19.083C19.3846 19.7918 18.8112 20.3703 18.1085 20.3703H2.89154C2.18887 20.3703 1.61542 19.7918 1.61542 19.083V8.55553Z" fill="#676C6A"/>
</svg>
