<svg width="16" height="18" viewBox="0 0 16 18" fill="none" xmlns="http://www.w3.org/2000/svg">
<path d="M10.453 8.8191L7.21498 12.3655L5.54674 10.5384C5.32352 10.2939 4.96191 10.2939 4.7387 10.5384C4.51549 10.7828 4.51549 11.1789 4.7387 11.4233L6.81097 13.693C6.92257 13.8152 7.06878 13.8763 7.21498 13.8763C7.36119 13.8763 7.50739 13.8152 7.619 13.693L11.261 9.70409C11.4842 9.45962 11.4842 9.06357 11.261 8.8191C11.0378 8.57462 10.6762 8.57462 10.453 8.8191Z" fill="#676C6A"/>
<path d="M13.1429 1.22664H12.2857V0.62585C12.2857 0.280227 12.0299 0 11.7143 0C11.3987 0 11.1429 0.280227 11.1429 0.62585V1.22664H4.85714V0.62585C4.85714 0.280227 4.60128 0 4.28571 0C3.97015 0 3.71429 0.280227 3.71429 0.62585V1.22664H2.85714C1.28181 1.22664 0 2.63053 0 4.35589V14.3946C0 16.1199 1.28181 17.5238 2.85714 17.5238H13.1429C14.7182 17.5238 16 16.1199 16 14.3946V4.35589C16 2.63053 14.7182 1.22664 13.1429 1.22664ZM1.14286 4.35589C1.14286 3.32055 1.91183 2.47834 2.85714 2.47834H3.71429V3.07883C3.71429 3.42445 3.97015 3.70468 4.28571 3.70468C4.60128 3.70468 4.85714 3.42445 4.85714 3.07883V2.47834H11.1429V3.07883C11.1429 3.42445 11.3987 3.70468 11.7143 3.70468C12.0299 3.70468 12.2857 3.42445 12.2857 3.07883V2.47834H13.1429C14.0882 2.47834 14.8571 3.32055 14.8571 4.35589V4.98786H1.14286V4.35589ZM13.1429 16.2721H2.85714C1.91183 16.2721 1.14286 15.4299 1.14286 14.3946V6.23956H14.8571V14.3946C14.8571 15.4299 14.0882 16.2721 13.1429 16.2721Z" fill="#676C6A"/>
</svg>
