<svg width="34" height="34" viewBox="0 0 34 34" fill="none" xmlns="http://www.w3.org/2000/svg">
<g clip-path="url(#clip0_1359_13145)">
<path d="M4.38281 2.65625H7.4375V1.0625C7.4375 0.475734 7.91317 0 8.5 0C9.08683 0 9.5625 0.475734 9.5625 1.0625V2.65625H24.4375V1.0625C24.4375 0.475734 24.9132 0 25.5 0C26.0868 0 26.5625 0.475734 26.5625 1.0625V2.65625H29.6172C32.0339 2.65625 34 4.62234 34 7.03906V29.6172C34 32.0339 32.0339 34 29.6172 34H4.38281C1.96609 34 0 32.0339 0 29.6172V7.03906C0 4.62234 1.96609 2.65625 4.38281 2.65625ZM29.6172 4.78125H26.5625V5.84375C26.5625 6.43052 26.0868 6.90625 25.5 6.90625C24.9132 6.90625 24.4375 6.43052 24.4375 5.84375V4.78125H9.5625V5.84375C9.5625 6.43052 9.08683 6.90625 8.5 6.90625C7.91317 6.90625 7.4375 6.43052 7.4375 5.84375V4.78125H4.38281C3.13783 4.78125 2.125 5.79408 2.125 7.03906V9.5625H31.875V7.03906C31.875 5.79408 30.8622 4.78125 29.6172 4.78125ZM4.38281 31.875H29.6172C30.8622 31.875 31.875 30.8622 31.875 29.6172V11.6875H2.125V29.6172C2.125 30.8622 3.13783 31.875 4.38281 31.875Z" fill="#09C47A" stroke="#09C47A" stroke-width="0.3"/>
</g>
<defs>
<clipPath id="clip0_1359_13145">
<rect width="34" height="34" fill="white" transform="matrix(-1 0 0 1 34 0)"/>
</clipPath>
</defs>
</svg>
