<svg width="33" height="22" viewBox="0 0 33 22" fill="none" xmlns="http://www.w3.org/2000/svg">
<path fill-rule="evenodd" clip-rule="evenodd" d="M0.423187 3.2C0.423187 2.0799 0.423187 1.51984 0.641174 1.09202C0.832921 0.715695 1.13888 0.409734 1.51521 0.217987C1.94303 0 2.50308 0 3.62319 0H29.3768C30.4969 0 31.057 0 31.4848 0.217987C31.8611 0.409734 32.1671 0.715695 32.3588 1.09202C32.5768 1.51984 32.5768 2.0799 32.5768 3.2V18.7998C32.5768 19.9199 32.5768 20.48 32.3588 20.9078C32.1671 21.2841 31.8611 21.5901 31.4848 21.7819C31.057 21.9998 30.4969 21.9998 29.3768 21.9998H3.62319C2.50308 21.9998 1.94303 21.9998 1.51521 21.7819C1.13888 21.5901 0.832921 21.2841 0.641174 20.9078C0.423187 20.48 0.423187 19.9199 0.423187 18.7998V3.2ZM22.423 18.6152C26.1615 18.6152 29.1922 15.5846 29.1922 11.8461C29.1922 8.10755 26.1615 5.07689 22.423 5.07689C18.6845 5.07689 15.6538 8.10755 15.6538 11.8461C15.6538 15.5846 18.6845 18.6152 22.423 18.6152ZM8.88468 5.92293C8.88468 7.32487 7.74818 8.46137 6.34623 8.46137C4.94429 8.46137 3.80779 7.32487 3.80779 5.92293C3.80779 4.52098 4.94429 3.38448 6.34623 3.38448C7.74818 3.38448 8.88468 4.52098 8.88468 5.92293Z" fill="white"/>
</svg>
