<svg xmlns="http://www.w3.org/2000/svg" xmlns:xlink="http://www.w3.org/1999/xlink" xml:space="preserve" style="shape-rendering:geometricPrecision;text-rendering:geometricPrecision;image-rendering:optimizeQuality;" viewBox="0 0 6.82666 8.533325000000001" x="0px" y="0px" fill-rule="evenodd" clip-rule="evenodd"><defs><style type="text/css">
   
    .fil1 {fill:none}
    .fil0 {fill:#09C47A}
   
  </style></defs><g><g><path class="fil0" d="M0.910551 0.625622c-0.222783,0 -0.404031,0.181252 -0.404031,0.404031l0 4.76736c0,0.222776 0.181244,0.404028 0.404024,0.404028l5.00557 -3.93701e-006c0.22278,0 0.40402,-0.181244 0.40402,-0.40402l1.1811e-005 -4.76737c0,-0.222772 -0.181268,-0.40402 -0.404047,-0.40402l-5.00555 -3.93701e-006zm5.00556 5.73541l-5.00556 0c-0.310969,0 -0.564031,-0.253051 -0.564031,-0.56402l0 -4.76737c0,-0.310969 0.253051,-0.56402 0.564024,-0.56402l5.00557 -3.93701e-006c0.310969,0 0.56402,0.253059 0.56402,0.564031l1.1811e-005 4.76736c0,0.310969 -0.253071,0.564028 -0.564031,0.564024z"/><path class="fil0" d="M6.40015 1.78923l-5.97363 0c-0.0441575,0 -0.08,-0.0358307 -0.08,-0.0799961 0,-0.0441693 0.0358307,-0.08 0.0799961,-0.08l5.97363 -3.93701e-006c0.0441535,0 0.0799882,0.0358346 0.0799882,0.0800039 1.1811e-005,0.0441654 -0.0358386,0.08 -0.0799882,0.0799961z"/><path class="fil0" d="M1.17236 1.02104c-0.058748,0 -0.106539,0.0476457 -0.106539,0.106394 7.87402e-006,0.058748 0.0477795,0.106531 0.106528,0.106531 0.0587638,-3.93701e-006 0.10639,-0.0477795 0.10639,-0.106531 2.75591e-005,-0.058752 -0.0476378,-0.10639 -0.106378,-0.106394zm0 0.372921c-0.146937,0 -0.266539,-0.119583 -0.266539,-0.266528 7.87402e-006,-0.146949 0.119583,-0.266386 0.266528,-0.266386 0.146949,-7.87402e-006 0.26639,0.119445 0.26639,0.266386 2.75591e-005,0.146945 -0.119445,0.266531 -0.266378,0.266528z"/><path class="fil0" d="M1.89902 1.02104c-0.058752,0 -0.106531,0.0476457 -0.106531,0.106394 0,0.058748 0.0477756,0.106531 0.106528,0.106531 0.0586299,-3.93701e-006 0.10639,-0.0477795 0.10639,-0.106531 1.9685e-005,-0.058752 -0.0477756,-0.10639 -0.106386,-0.106394zm0 0.372921c-0.146937,0 -0.266531,-0.119583 -0.266531,-0.266528 0,-0.146949 0.119583,-0.266386 0.266528,-0.266386 0.146972,-7.87402e-006 0.26639,0.119445 0.26639,0.266386 1.9685e-005,0.146945 -0.119445,0.266531 -0.266386,0.266528z"/><path class="fil0" d="M2.62571 1.02104c-0.058752,0 -0.106547,0.0476457 -0.106547,0.106394 1.5748e-005,0.058748 0.0477756,0.106531 0.106528,0.106531 0.0586102,-3.93701e-006 0.106382,-0.0477795 0.106382,-0.106531 1.1811e-005,-0.058752 -0.0477795,-0.10639 -0.106362,-0.106394zm0 0.372921c-0.146941,0 -0.266547,-0.119583 -0.266547,-0.266528 1.5748e-005,-0.146949 0.119579,-0.266386 0.266528,-0.266386 0.146799,-7.87402e-006 0.266382,0.119445 0.266382,0.266386 1.1811e-005,0.146945 -0.119583,0.266531 -0.266362,0.266528z"/><path class="fil0" d="M1.17321 5.53423l4.48028 0 0 -3.07833 -4.48028 0 0 3.07833zm4.56028 0.16l-4.64028 0c-0.044189,0 -0.0800236,-0.035689 -0.0800236,-0.0799961l2.3622e-005 -3.23833c0,-0.0441693 0.035811,-0.08 0.0799764,-0.08l4.6403 -3.93701e-006c0.0441575,0 0.0799764,0.0358386 0.0799764,0.0800039l2.3622e-005 3.23833c0,0.0443031 -0.0358583,0.0800039 -0.08,0.08z"/><path class="fil0" d="M2.74958 5.27451c-0.00443701,0 -0.00903543,-0.000275591 -0.0136181,-0.0011063 -0.0436024,-0.00750394 -0.0727795,-0.0488898 -0.0652795,-0.0923661l0.411961 -2.39889c0.0075,-0.0436181 0.048874,-0.0727795 0.0923425,-0.0652756 0.043626,0.00749606 0.0729173,0.048748 0.0654173,0.0923583l-0.412075 2.39889c-0.00665354,0.0388898 -0.040563,0.0663937 -0.078748,0.0663898z"/><path class="fil0" d="M3.61946 5.27451c-0.00459449,0 -0.00905118,-0.000275591 -0.0136339,-0.0011063 -0.0435827,-0.00750394 -0.0727717,-0.0488898 -0.0654173,-0.0923661l0.412083 -2.39889c0.0075,-0.0436181 0.0488898,-0.0727795 0.0923583,-0.0652756 0.0436417,0.00749606 0.0727835,0.048748 0.0652835,0.0923583l-0.411921 2.39889c-0.00668898,0.0388898 -0.0405787,0.0663937 -0.078752,0.0663898z"/><path class="fil0" d="M4.49349 3.59896l-2.06863 0c-0.044311,0 -0.0800118,-0.0358307 -0.0800118,-0.0799961 1.1811e-005,-0.0441732 0.0356929,-0.08 0.0800039,-0.08l2.06863 -3.93701e-006c0.0441575,0 0.0799724,0.0358346 0.0799724,0.0800039 2.75591e-005,0.0441614 -0.0358346,0.08 -0.0799724,0.0799961z"/><path class="fil0" d="M4.35611 4.55118l-2.02291 0c-0.044189,0 -0.0800236,-0.035689 -0.0800236,-0.0799961 2.3622e-005,-0.0441693 0.0358307,-0.08 0.0800039,-0.08l2.02293 -3.93701e-006c0.0441535,0 0.0798465,0.0358346 0.0798465,0.0800039 2.75591e-005,0.0442992 -0.0356929,0.08 -0.0798465,0.0799961z"/></g></g><rect class="fil1" width="6.82666" height="6.82666"/>
  </svg>