<svg width="28" height="30" viewBox="0 0 30 30" fill="none" xmlns="http://www.w3.org/2000/svg">
<path d="M10.997 8.26708H26.633L18.0916 14.9744C17.9106 15.1164 17.6953 15.1857 17.5 15.2047C17.3033 15.1854 17.0873 15.1161 16.9043 14.9744L10.8003 10.1794C10.7356 10.1274 10.6626 10.0877 10.5823 10.0631C10.8696 9.65775 11.0336 9.16741 11.025 8.63908C11.0233 8.51808 11.0126 8.39341 10.997 8.26708ZM7.02064 3.95341C7.04031 3.95675 7.07264 3.96908 7.14298 4.00175C7.28198 4.06775 7.50298 4.23775 7.71931 4.47475C8.15498 4.94941 8.59031 5.66841 8.81631 6.14308C8.82331 6.15708 8.83064 6.17241 8.83731 6.18808C9.47864 7.28841 9.75531 8.13008 9.76364 8.65808C9.77264 9.18842 9.63031 9.41675 9.18064 9.67508L8.02064 10.3437C7.26498 10.7787 6.90798 11.5584 6.81931 12.2857C6.73031 13.0134 6.86131 13.7204 7.18498 14.2794L10.0483 19.2144C10.3726 19.7731 10.9263 20.2404 11.6033 20.5274C12.281 20.8151 13.138 20.8964 13.8936 20.4624L15.0536 19.7951C15.503 19.5374 15.7746 19.5321 16.231 19.8034C16.6886 20.0754 17.283 20.7324 17.9216 21.8334C17.9306 21.8497 17.9393 21.8634 17.9496 21.8791C18.249 22.3107 18.6566 23.0431 18.8533 23.6564C18.951 23.9611 18.9893 24.2364 18.977 24.3887C18.9633 24.5417 18.96 24.5261 18.9196 24.5501L18.037 25.0561C15.8196 26.0177 13.7873 25.8007 11.971 24.8587C10.1513 23.9127 8.56964 22.2044 7.46698 20.1987C7.46331 20.1947 7.46164 20.1897 7.45864 20.1871L5.04331 16.0244C5.03931 16.0204 5.03764 16.0167 5.03431 16.0114C3.83931 14.0581 3.14298 11.8404 3.23031 9.80008C3.31764 7.76275 4.14431 5.90541 6.09164 4.47641L6.97464 3.97208C6.99498 3.96041 7.00164 3.95141 7.02064 3.95341ZM7.02964 2.71308C6.79598 2.70941 6.55764 2.75841 6.34331 2.88275L5.40964 3.41975C5.38864 3.43175 5.36931 3.44408 5.35031 3.45608C3.10398 5.10008 2.06964 7.38875 1.96864 9.74775C1.86764 12.1057 2.65498 14.5394 3.95564 16.6671L6.36298 20.8154L6.35731 20.8031C7.55898 22.9867 9.28098 24.8811 11.3853 25.9724C13.4906 27.0654 15.9986 27.3187 18.5533 26.2047C18.5743 26.1957 18.5956 26.1857 18.6146 26.1741L19.5496 25.6371C19.982 25.3911 20.1993 24.9124 20.2346 24.4944C20.271 24.0777 20.186 23.6721 20.057 23.2724C19.8043 22.4821 19.3636 21.7144 18.9996 21.1877C18.312 20.0047 17.648 19.1837 16.8806 18.7247C16.1073 18.2637 15.179 18.2704 14.4216 18.7057L13.2616 19.3744C12.919 19.5717 12.5183 19.5487 12.0966 19.3704C11.677 19.1921 11.2883 18.8354 11.144 18.5854L8.28064 13.6507C8.13598 13.3994 8.01764 12.8867 8.07364 12.4347C8.12764 11.9841 8.31064 11.6311 8.65364 11.4334L9.78064 10.7854C9.80998 10.9364 9.89531 11.0734 10.019 11.1654L16.1233 15.9614C16.5203 16.2734 16.9906 16.4471 17.4643 16.4744C17.4883 16.4757 17.513 16.4757 17.5373 16.4744C18.0113 16.4471 18.4793 16.2731 18.8766 15.9614L27.284 9.35675V20.2681C27.284 20.4341 27.0946 20.6527 26.7233 20.6527H20.903C20.5526 20.6507 20.269 20.9334 20.269 21.2817C20.269 21.6294 20.553 21.9121 20.903 21.9101H26.7233C27.6746 21.9101 28.549 21.2224 28.549 20.2681V8.65175C28.549 7.69675 27.6746 7.00941 26.7233 7.00941H10.6506C10.4726 6.56441 10.2376 6.09275 9.94165 5.58008C9.66465 5.00341 9.21531 4.24108 8.65298 3.62808C8.36898 3.31741 8.06264 3.04208 7.67964 2.86408V2.86575C7.48931 2.77575 7.26298 2.71808 7.02964 2.71308Z" fill="black"/>
</svg>
