<svg width="25" height="24" viewBox="0 0 25 24" fill="none" xmlns="http://www.w3.org/2000/svg">
<path d="M22.2515 2.77297H20.4255V0.72845C20.4255 0.535253 20.3488 0.349969 20.2122 0.213358C20.0756 0.0767471 19.8903 0 19.6971 0H5.30291C5.10972 0 4.92443 0.0767471 4.78782 0.213358C4.65121 0.349969 4.57446 0.535253 4.57446 0.72845V2.77297H2.74848C2.15254 2.77425 1.58138 3.01155 1.15998 3.43295C0.738588 3.85434 0.501283 4.42551 0.5 5.02145V8.48402C0.501188 9.59839 0.941081 10.6675 1.7245 11.46C2.50793 12.2525 3.57188 12.7047 4.68616 12.7187C4.96838 14.451 5.81691 16.0408 7.09897 17.2393C8.38103 18.4379 10.0243 19.1776 11.7716 19.3428V22.5431H7.2066C7.0134 22.5431 6.82812 22.6198 6.6915 22.7565C6.55489 22.8931 6.47815 23.0784 6.47815 23.2716C6.47815 23.4647 6.55489 23.65 6.6915 23.7866C6.82812 23.9233 7.0134 24 7.2066 24H17.7934C17.9866 24 18.1719 23.9233 18.3085 23.7866C18.4451 23.65 18.5219 23.4647 18.5219 23.2716C18.5219 23.0784 18.4451 22.8931 18.3085 22.7565C18.1719 22.6198 17.9866 22.5431 17.7934 22.5431H13.2284V19.3428C14.975 19.1779 16.6177 18.4389 17.8997 17.2412C19.1817 16.0436 20.0306 14.4549 20.3138 12.7236C21.4281 12.7096 22.4921 12.2574 23.2755 11.4648C24.0589 10.6723 24.4988 9.60324 24.5 8.48887V5.02631C24.5 4.42952 24.2633 3.85711 23.8417 3.43467C23.4202 3.01222 22.8483 2.77425 22.2515 2.77297ZM1.9569 8.48887V5.02631C1.95626 4.92195 1.97626 4.81849 2.01576 4.72189C2.05525 4.62529 2.11346 4.53745 2.18703 4.46343C2.26059 4.38941 2.34807 4.33067 2.44443 4.29058C2.54079 4.2505 2.64412 4.22986 2.74848 4.22987H4.57446V11.2667C3.86669 11.2235 3.20199 10.9121 2.71569 10.396C2.2294 9.87997 1.95805 9.19797 1.9569 8.48887ZM12.5 17.9199C10.7848 17.9186 9.14023 17.2367 7.9274 16.0238C6.71458 14.811 6.03265 13.1664 6.03136 11.4512V1.4569H18.9686V11.4512C18.9674 13.1664 18.2854 14.811 17.0726 16.0238C15.8598 17.2367 14.2152 17.9186 12.5 17.9199ZM23.0431 8.48887C23.0419 9.19797 22.7706 9.87997 22.2843 10.396C21.798 10.9121 21.1333 11.2235 20.4255 11.2667V4.22987H22.2515C22.3555 4.22987 22.4584 4.25034 22.5544 4.29012C22.6505 4.3299 22.7377 4.38821 22.8113 4.46172C22.8848 4.53522 22.9431 4.62248 22.9828 4.71852C23.0226 4.81456 23.0431 4.9175 23.0431 5.02145V8.48887Z" fill="#232C28"/>
</svg>
