<svg width="24" height="24" viewBox="0 0 20 20" fill="none" xmlns="http://www.w3.org/2000/svg">
<path d="M15.5713 3.40508C15.5713 3.2021 15.4487 3.01921 15.2609 2.94205L8.1907 0.037543C8.06881 -0.0125143 7.93215 -0.0125143 7.81026 0.037543L0.740043 2.94205C0.552297 3.01917 0.429688 3.2021 0.429688 3.40508V12.5949C0.429688 12.7979 0.552265 12.9808 0.740043 13.0579L7.81026 15.9625C7.93084 16.012 8.06637 16.013 8.19007 15.9624C8.19611 15.9604 7.92843 16.0702 15.2609 13.0579C15.4487 12.9808 15.5713 12.7979 15.5713 12.5949V3.40508ZM8.00048 5.81053L5.39537 4.74033L11.0253 2.28436L13.8046 3.42614L8.00048 5.81053ZM1.43083 4.19399L3.67844 5.11733V7.72231C3.67844 7.99875 3.90257 8.22288 4.17901 8.22288C4.45545 8.22288 4.67958 7.99875 4.67958 7.72231V5.52861L7.49991 6.68722V14.7526L1.43083 12.2594V4.19399ZM8.00048 1.04172L9.73578 1.7546L4.10586 4.21057L2.19633 3.42611L8.00048 1.04172ZM8.50105 6.68722L14.5701 4.19399V12.2594L8.50105 14.7526V6.68722Z" fill="#09C47A"/>
</svg>
