<svg width="32" height="33" viewBox="0 0 32 33" fill="none" xmlns="http://www.w3.org/2000/svg">
<rect y="0.5" width="32" height="32" rx="4" fill="#F1F1F1"/>
<path d="M18.3482 6.84394C14.2941 5.70417 10.1706 7.46172 7.89183 10.8746L6.73259 10.5487C6.63931 10.5225 6.54127 10.5209 6.44728 10.5442C6.35328 10.5675 6.26628 10.615 6.19406 10.6823C6.12185 10.7495 6.06668 10.8346 6.03352 10.9298C6.00036 11.025 5.99023 11.1273 6.00405 11.2276L6.41919 14.2486C6.42523 14.3879 6.47641 14.5209 6.56426 14.6255C6.65212 14.7301 6.77139 14.8002 6.90233 14.824C7.03327 14.8478 7.16804 14.824 7.28434 14.7565C7.40063 14.689 7.49149 14.5819 7.54187 14.4529C7.54667 14.4408 7.55111 14.4286 7.55517 14.4162L7.58576 14.3241C8.83137 9.56017 13.4921 6.74603 18.0462 8.0264C20.3317 8.66895 22.1462 10.2185 23.2415 12.209C23.2789 12.2804 23.3295 12.3432 23.3904 12.3937C23.4512 12.4443 23.5211 12.4816 23.5958 12.5035C23.6706 12.5253 23.7488 12.5313 23.8258 12.5211C23.9028 12.5109 23.9771 12.4847 24.0443 12.444C24.1115 12.4032 24.1703 12.3489 24.2172 12.284C24.2642 12.2191 24.2983 12.1451 24.3176 12.0662C24.3369 11.9874 24.3411 11.9052 24.3298 11.8247C24.3185 11.7441 24.292 11.6667 24.2518 11.597C23.0081 9.33688 20.9381 7.57211 18.3482 6.84394Z" fill="#232C28" stroke="#232C28" stroke-width="0.5"/>
<path d="M25.1268 18.1813C24.992 18.1502 24.8511 18.1701 24.7291 18.2376C24.6071 18.3051 24.5118 18.4157 24.4601 18.5499C24.4553 18.562 24.4509 18.5742 24.4468 18.5866L24.4162 18.6786C23.1706 23.4409 18.5099 26.254 13.9558 24.9741C11.6703 24.3318 9.85579 22.7828 8.76051 20.793C8.72307 20.7216 8.67245 20.6589 8.61161 20.6083C8.55076 20.5578 8.48091 20.5205 8.40615 20.4986C8.33139 20.4768 8.25322 20.4708 8.17622 20.481C8.09922 20.4912 8.02494 20.5174 7.95772 20.5581C7.89051 20.5988 7.83171 20.6532 7.78478 20.718C7.73784 20.7829 7.70371 20.8569 7.68439 20.9357C7.66506 21.0146 7.66093 21.0967 7.67224 21.1772C7.68354 21.2577 7.71005 21.3351 7.75022 21.4048C8.99386 23.6641 11.0639 25.4283 13.6538 26.1562C17.7079 27.2955 21.8314 25.5386 24.1102 22.1269L25.2694 22.4527C25.3627 22.4789 25.4607 22.4805 25.5547 22.4572C25.6487 22.4339 25.7357 22.3865 25.8079 22.3192C25.8802 22.2519 25.9353 22.1669 25.9685 22.0718C26.0016 21.9766 26.0118 21.8743 25.9979 21.7741L25.5828 18.7541C25.5777 18.6192 25.5301 18.49 25.4477 18.3864C25.3652 18.2828 25.2524 18.2107 25.1268 18.1813Z" fill="#232C28" stroke="#232C28" stroke-width="0.5"/>
<path d="M15.9877 10.1959C15.7599 10.1995 15.5429 10.2933 15.3842 10.4568C15.2256 10.6203 15.1383 10.84 15.1415 11.0678V11.4125C14.0001 11.6769 13.1358 12.7043 13.1358 13.9208V14.7804C13.1358 16.1942 14.3008 17.3592 15.7146 17.3592H16.2877C16.7787 17.3592 17.1473 17.7277 17.1473 18.2188V19.0783C17.1473 19.5694 16.7787 19.9379 16.2877 19.9379H15.7146C15.2235 19.9379 14.855 19.5694 14.855 19.0783C14.8566 18.9644 14.8356 18.8513 14.7931 18.7456C14.7506 18.6399 14.6876 18.5437 14.6076 18.4626C14.5276 18.3815 14.4323 18.3171 14.3272 18.2731C14.2221 18.2292 14.1093 18.2065 13.9954 18.2065C13.8815 18.2065 13.7687 18.2292 13.6636 18.2731C13.5585 18.3171 13.4632 18.3815 13.3833 18.4626C13.3033 18.5437 13.2402 18.6399 13.1977 18.7456C13.1553 18.8513 13.1342 18.9644 13.1358 19.0783C13.1358 20.2949 14.0001 21.3222 15.1415 21.5866V21.9313C15.1399 22.0452 15.161 22.1583 15.2034 22.264C15.2459 22.3697 15.309 22.4659 15.389 22.5471C15.4689 22.6282 15.5642 22.6926 15.6693 22.7366C15.7744 22.7805 15.8872 22.8032 16.0011 22.8032C16.115 22.8032 16.2278 22.7805 16.3329 22.7366C16.438 22.6926 16.5333 22.6282 16.6133 22.5471C16.6933 22.4659 16.7563 22.3697 16.7988 22.264C16.8413 22.1583 16.8623 22.0452 16.8607 21.9313V21.5866C18.0021 21.3222 18.8664 20.2949 18.8664 19.0783V18.2188C18.8664 16.805 17.7014 15.64 16.2877 15.64H15.7146C15.2235 15.64 14.855 15.2715 14.855 14.7804V13.9208C14.855 13.4297 15.2235 13.0612 15.7146 13.0612H16.2877C16.7787 13.0612 17.1473 13.4297 17.1473 13.9208C17.1456 14.0347 17.1667 14.1478 17.2092 14.2535C17.2516 14.3592 17.3147 14.4554 17.3947 14.5365C17.4747 14.6176 17.57 14.6821 17.6751 14.726C17.7801 14.77 17.8929 14.7926 18.0068 14.7926C18.1208 14.7926 18.2335 14.77 18.3386 14.726C18.4437 14.6821 18.539 14.6176 18.619 14.5365C18.699 14.4554 18.762 14.3592 18.8045 14.2535C18.847 14.1478 18.868 14.0347 18.8664 13.9208C18.8664 12.7043 18.0021 11.6769 16.8607 11.4125V11.0678C16.8624 10.9528 16.8409 10.8385 16.7976 10.7319C16.7543 10.6253 16.69 10.5285 16.6086 10.4472C16.5272 10.3659 16.4303 10.3018 16.3236 10.2586C16.217 10.2154 16.1027 10.1941 15.9877 10.1959Z" fill="#232C28" stroke="#232C28" stroke-width="0.5"/>
</svg>
