<svg xmlns="http://www.w3.org/2000/svg" viewBox="0 0 64 80" x="0px" y="0px">
<path fill="#09C47A" d="m55.8598633,32h-12.199707c-1.3110352,0-2.4609375.8857422-2.7963867,2.152832l-.9799805,3.6777344c-.8347168.147644-2.708252.5483398-3.5644531.7099609-1.34375.2749023-2.3193359,1.4692383-2.3193359,2.8393555v3c-.0059204,1.6754761,1.4302979,2.9976807,3.0946655,2.8999023.8258667,3.5911865,5.9860229,3.5889282,6.8106689,0h5.3270264c.8288574,3.6016846,6.008667,3.5844116,6.8165894-.019104,1.0905151-.0974731,1.9510498-1.0056152,1.9510498-2.1205444v-11c0-1.1801758-.9599609-2.1401367-2.1401367-2.1401367Zm-15.3598633,16c-1.9712524-.0351562-1.9709473-2.9651489.000061-3,1.9711914.0351562,1.9709473,2.9650879-.000061,3Zm12.1376953,0c-1.9712524-.0351562-1.9709473-2.9651489.000061-3,1.9711914.0351562,1.9709473,2.9650879-.000061,3Zm3.3623047-2.8598633c0,.0620728-.0438232.1044312-.0991821.1229858-1.0684204-2.9871826-5.4790039-2.9749756-6.5314331.0166626h-5.6010742c-1.0567017-3.0010986-5.4807129-2.9996338-6.5366211,0-.6066284.0764771-1.2271729-.2200928-1.2316895-.8999634,0,.000061,0-2.999939,0-2.999939,0-.4243164.3032227-.7949219.715332-.8789062l2.5166626-.5009766h13.7680054c.5522461,0,1-.4477539,1-1s-.4477539-1-1-1h-5v-2c0-.5522461-.4477539-1-1-1s-1,.4477539-1,1v2h-4.0913696l.8882446-3.3339844c.1035156-.3920898.4589844-.6660156.8632812-.6660156h12.199707c.0786133,0,.1401367.0615234.1401367.1401367v11Z"/>
<path fill="#09C47A" d="m56,10H8c-3.3085938,0-6,2.6914062-6,6v32c0,3.3085938,2.6914062,6,6,6h48c3.3085938,0,6-2.6914062,6-6V16c0-3.3085938-2.6914062-6-6-6Zm4,38c0,2.2055664-1.7944336,4-4,4H8c-2.2055664,0-4-1.7944336-4-4V16c0-2.2055664,1.7944336-4,4-4h48c2.2055664,0,4,1.7944336,4,4v32Z"/>
<path fill="#09C47A" d="m19.1650391,17.1323242c-3.057251-.7840576-6.2396851,1.7227173-6.164978,4.8677368-.000061.5521851.4476929.999939.999939.999939s1-.4477539,1-1c0-.918457.4125977-1.7739258,1.1313477-2.347168.7294922-.5830078,1.6489258-.7861328,2.5883789-.5703125,2.9893799.7426758,2.9301758,4.8317871.3256226,5.730896-1.2235718.4551392-2.0453491,1.6738892-2.0453491,3.0327759v1.1538086c.0212402,1.3110352,1.9775391,1.3169556,2-.000061.0066528-.7703247-.1721191-2.0095825.7427368-2.3119507,4.5769653-1.6187134,4.1870117-8.4998169-.5776978-9.5556641Z"/>
<path fill="#09C47A" d="m18,31c-1.3154907.0248413-1.3033447,1.9802856.0098267,2,1.3171997-.024292,1.3153687-1.9818726-.0098267-2Z"/>
<path fill="#09C47A" d="m25,14h-14c-2.2055664,0-4,1.7944336-4,4v14c0,2.2055664,1.7944336,4,4,4h14c2.2055664,0,4-1.7944336,4-4v-14c0-2.2055664-1.7944336-4-4-4Zm2,18c0,1.1030273-.8969727,2-2,2h-14c-1.1030273,0-2-.8969727-2-2v-14c0-1.1030273.8969727-2,2-2h14c1.1030273,0,2,.8969727,2,2v14Z"/>
<path fill="#09C47A" d="m33,18h23c1.3069458-.0200806,1.3203735-1.9771118-.000061-2,.000061,0-22.999939,0-22.999939,0-1.3068848.0200806-1.3203735,1.9770508,0,2Z"/>
<path fill="#09C47A" d="m33,23h23c1.3069458-.0200806,1.3203735-1.9771118-.000061-2,.000061,0-22.999939,0-22.999939,0-1.3068848.0200806-1.3203735,1.9770508,0,2Z"/>
<path fill="#09C47A" d="m57,27c0-.5522461-.4477539-1-1-1h-23c-.5522461,0-1,.4477539-1,1s.4477539,1,1,1h23c.5522461,0,1-.4477539,1-1Z"/>
<path fill="#09C47A" d="m28,39H8c-1.3094482.020813-1.3182983,1.9772949.000061,2-.000061,0,19.999939,0,19.999939,0,1.3079834-.0203857,1.319519-1.9772339,0-2Z"/>
<path fill="#09C47A" d="m28,44H8c-1.3094482.020813-1.3182983,1.9772949.000061,2-.000061,0,19.999939,0,19.999939,0,1.3079834-.0203857,1.319519-1.9772339,0-2Z"/>
</svg>