<svg width="26" height="25" viewBox="0 0 26 25" fill="none" xmlns="http://www.w3.org/2000/svg">
<path d="M22.1406 2.92969H18.332V2.19727C18.332 0.985693 17.3069 0 16.0469 0H9.95312C8.69309 0 7.66797 0.985693 7.66797 2.19727V2.92969H3.85938C2.59934 2.92969 1.57422 3.91538 1.57422 5.12695C1.57422 6.1 2.23564 6.92681 3.14869 7.21489L4.50734 22.9852C4.6052 24.115 5.60549 25 6.78458 25H19.2154C20.3946 25 21.3949 24.115 21.4928 22.9848L22.8513 7.21484C23.7644 6.92681 24.4258 6.1 24.4258 5.12695C24.4258 3.91538 23.4007 2.92969 22.1406 2.92969ZM9.19141 2.19727C9.19141 1.79341 9.53311 1.46484 9.95312 1.46484H16.0469C16.4669 1.46484 16.8086 1.79341 16.8086 2.19727V2.92969H9.19141V2.19727ZM19.9745 22.8636C19.9418 23.2401 19.6085 23.5352 19.2154 23.5352H6.78458C6.39158 23.5352 6.05815 23.2401 6.0256 22.8639L4.6868 7.32422H21.3132L19.9745 22.8636ZM22.1406 5.85938H3.85938C3.43936 5.85938 3.09766 5.53081 3.09766 5.12695C3.09766 4.7231 3.43936 4.39453 3.85938 4.39453H22.1406C22.5606 4.39453 22.9023 4.7231 22.9023 5.12695C22.9023 5.53081 22.5606 5.85938 22.1406 5.85938Z" fill="#09C47A"/>
<path d="M9.95171 21.2926L9.18999 9.4762C9.16394 9.07244 8.8005 8.76536 8.38262 8.7905C7.96271 8.81555 7.64345 9.16311 7.66945 9.56682L8.43117 21.3833C8.4562 21.7716 8.79156 22.0704 9.1907 22.0704C9.63184 22.0704 9.97878 21.7132 9.95171 21.2926Z" fill="#09C47A"/>
<path d="M13 8.78906C12.5793 8.78906 12.2383 9.11699 12.2383 9.52148V21.3379C12.2383 21.7424 12.5793 22.0703 13 22.0703C13.4207 22.0703 13.7617 21.7424 13.7617 21.3379V9.52148C13.7617 9.11699 13.4207 8.78906 13 8.78906Z" fill="#09C47A"/>
<path d="M17.6174 8.79049C17.1985 8.76544 16.8361 9.07243 16.8101 9.47619L16.0484 21.2926C16.0224 21.6963 16.3417 22.0439 16.7615 22.0689C17.1816 22.0939 17.5429 21.7868 17.5689 21.3832L18.3306 9.56681C18.3566 9.16305 18.0374 8.81549 17.6174 8.79049Z" fill="#09C47A"/>
</svg>
