<svg width="84" height="85" viewBox="0 0 84 85" fill="none" xmlns="http://www.w3.org/2000/svg">
<g clip-path="url(#clip0_3144_18303)">
<path d="M71.5312 10.3438H59.2266V7.88281C59.2266 3.81193 55.9146 0.5 51.8438 0.5H32.1562C28.0854 0.5 24.7734 3.81193 24.7734 7.88281V10.3438H12.4688C8.39787 10.3438 5.08594 13.6557 5.08594 17.7266C5.08594 20.996 7.22285 23.7741 10.1727 24.742L14.5622 77.7301C14.8783 81.5264 18.11 84.5 21.9194 84.5H62.0806C65.8901 84.5 69.1218 81.5264 69.4381 77.729L73.8273 24.7419C76.7771 23.7741 78.9141 20.996 78.9141 17.7266C78.9141 13.6557 75.6021 10.3438 71.5312 10.3438ZM29.6953 7.88281C29.6953 6.52585 30.7993 5.42188 32.1562 5.42188H51.8438C53.2007 5.42188 54.3047 6.52585 54.3047 7.88281V10.3438H29.6953V7.88281ZM64.533 77.3216C64.4275 78.5869 63.3504 79.5781 62.0806 79.5781H21.9194C20.6497 79.5781 19.5725 78.5869 19.4673 77.3228L15.142 25.1094H68.858L64.533 77.3216ZM71.5312 20.1875H12.4688C11.1118 20.1875 10.0078 19.0835 10.0078 17.7266C10.0078 16.3696 11.1118 15.2656 12.4688 15.2656H71.5312C72.8882 15.2656 73.9922 16.3696 73.9922 17.7266C73.9922 19.0835 72.8882 20.1875 71.5312 20.1875Z" fill="#F01111"/>
<path d="M32.1517 72.0429L29.6907 32.3398C29.6066 30.9831 28.4324 29.9514 27.0823 30.0358C25.7257 30.12 24.6942 31.2878 24.7782 32.6443L27.2392 72.3476C27.32 73.6524 28.4035 74.6563 29.693 74.6563C31.1183 74.6563 32.2391 73.456 32.1517 72.0429Z" fill="#F01111"/>
<path d="M42 30.0312C40.6409 30.0312 39.5391 31.1331 39.5391 32.4922V72.1953C39.5391 73.5544 40.6409 74.6562 42 74.6562C43.3591 74.6562 44.4609 73.5544 44.4609 72.1953V32.4922C44.4609 31.1331 43.3591 30.0312 42 30.0312Z" fill="#F01111"/>
<path d="M56.9179 30.0361C55.5644 29.9519 54.3935 30.9834 54.3095 32.34L51.8485 72.0431C51.7647 73.3996 52.7961 74.5674 54.1526 74.6515C55.5099 74.7355 56.677 73.7036 56.761 72.3476L59.222 32.6445C59.306 31.2879 58.2745 30.1201 56.9179 30.0361Z" fill="#F01111"/>
</g>
<defs>
<clipPath id="clip0_3144_18303">
<rect width="84" height="84" fill="white" transform="translate(0 0.5)"/>
</clipPath>
</defs>
</svg>
