<svg width="26" height="31" viewBox="0 0 26 31" fill="#000" xmlns="http://www.w3.org/2000/svg">
<path d="M23.9714 6.0814H19.5143V4.33721C19.5143 2.21628 17.8274 0.5 15.7429 0.5H10.2571C8.17257 0.5 6.48571 2.21628 6.48571 4.33721V6.0814H2.02857C1.46629 6.0814 1 6.55581 1 7.12791C1 7.7 1.46629 8.17442 2.02857 8.17442H2.37143V25.2674C2.37143 28.1558 4.67543 30.5 7.51429 30.5H18.4857C21.3246 30.5 23.6286 28.1558 23.6286 25.2674V8.17442H23.9714C24.5337 8.17442 25 7.7 25 7.12791C25 6.55581 24.5337 6.0814 23.9714 6.0814ZM8.54286 4.33721C8.54286 3.37442 9.31086 2.59302 10.2571 2.59302H15.7429C16.6891 2.59302 17.4571 3.37442 17.4571 4.33721V6.0814H8.54286V4.33721ZM21.5714 25.2674C21.5714 26.9977 20.1863 28.407 18.4857 28.407H7.51429C5.81371 28.407 4.42857 26.9977 4.42857 25.2674V8.17442H21.5714V25.2674ZM11.2857 12.7093V23.8721C11.2857 24.4442 10.8194 24.9186 10.2571 24.9186C9.69486 24.9186 9.22857 24.4442 9.22857 23.8721V12.7093C9.22857 12.1372 9.69486 11.6628 10.2571 11.6628C10.8194 11.6628 11.2857 12.1372 11.2857 12.7093ZM16.7714 12.7093V23.8721C16.7714 24.4442 16.3051 24.9186 15.7429 24.9186C15.1806 24.9186 14.7143 24.4442 14.7143 23.8721V12.7093C14.7143 12.1372 15.1806 11.6628 15.7429 11.6628C16.3051 11.6628 16.7714 12.1372 16.7714 12.7093Z" fill="#000" stroke="#000" stroke-width="0.7"/>
</svg>
