<svg width="30" height="28" viewBox="0 0 30 28" fill="#000" xmlns="http://www.w3.org/2000/svg">
<path d="M27.7292 1.93382C26.7219 0.926531 25.4065 0.418677 24.0815 0.390952C22.687 0.360438 21.2843 0.865448 20.2298 1.92132L10.8366 11.3146C9.46575 12.691 8.71094 14.5169 8.71094 16.4565V19.5645C8.71094 20.3317 9.33114 20.9519 10.0984 20.9519H13.2063C15.146 20.9519 16.9719 20.1971 18.3497 18.8249L27.7304 9.44414C29.7978 7.37551 29.7978 4.00395 27.7292 1.93382ZM16.3893 16.8617C15.5387 17.7095 14.4066 18.1771 13.2064 18.1771H11.4859V16.4566C11.4859 15.2564 11.9535 14.1242 12.7998 13.2751L18.9921 7.08276L22.5802 10.6708L16.3893 16.8617ZM25.7672 7.48373L24.5421 8.70891L20.9541 5.12091L22.1792 3.89578C23.1698 2.90512 24.7793 2.90791 25.7672 3.89578C26.7551 4.885 26.7551 6.49447 25.7672 7.48373Z" fill="#000"/>
<path d="M22.9184 17.7025C22.1511 17.7025 21.531 18.3227 21.531 19.09V23.4481C21.531 24.214 20.9094 24.8355 20.1435 24.8355H4.88116C4.11525 24.8355 3.49371 24.2139 3.49371 23.4481V5.41089C3.49371 4.64498 4.11531 4.02344 4.88116 4.02344H12.9424C13.7097 4.02344 14.3299 3.40324 14.3299 2.63599C14.3299 1.86874 13.7097 1.24854 12.9424 1.24854H4.88116C2.58628 1.24842 0.71875 3.11601 0.71875 5.41089V23.4481C0.71875 25.743 2.58628 27.6105 4.88116 27.6105H20.1434C22.4383 27.6105 24.3058 25.7444 24.3058 23.4481V19.09C24.3059 18.3227 23.6857 17.7025 22.9184 17.7025Z" fill="#000"/>
</svg>
