<svg width="36" height="29" viewBox="0 0 36 29" fill="none" xmlns="http://www.w3.org/2000/svg">
<path d="M31.5736 0.200195H4.42686C3.25317 0.201466 2.12792 0.668268 1.298 1.49818C0.468078 2.32809 0.00127057 3.45332 0 4.62699V24.5734C0.00127057 25.7471 0.468078 26.8723 1.298 27.7022C2.12792 28.5321 3.25317 28.9989 4.42686 29.0002H31.5736C32.7473 28.9989 33.8726 28.5321 34.7025 27.7022C35.5324 26.8723 35.9992 25.7471 36.0005 24.5734V4.62699C35.9992 3.45332 35.5324 2.32809 34.7025 1.49818C33.8726 0.668268 32.7473 0.201466 31.5736 0.200195ZM4.42686 2.60019H31.5736C32.111 2.60083 32.6261 2.81457 33.0061 3.19453C33.3861 3.57449 33.5998 4.08965 33.6004 4.62699V5.54499L18.0002 15.5734L2.40003 5.54499V4.62699C2.40067 4.08965 2.61441 3.57449 2.99438 3.19453C3.37434 2.81457 3.88951 2.60083 4.42686 2.60019ZM31.5736 26.6002H4.42686C3.88951 26.5996 3.37434 26.3858 2.99438 26.0059C2.61441 25.6259 2.40067 25.1107 2.40003 24.5734V8.39859L17.351 18.0094C17.5447 18.1339 17.77 18.2002 18.0002 18.2002C18.2305 18.2002 18.4558 18.1339 18.6494 18.0094L33.6004 8.39859V24.5734C33.5998 25.1107 33.3861 25.6259 33.0061 26.0059C32.6261 26.3858 32.111 26.5996 31.5736 26.6002Z" fill="#09C47A"/>
</svg>
