<svg width="18" height="18" viewBox="0 0 18 18" fill="none" xmlns="http://www.w3.org/2000/svg">
<g clip-path="url(#clip0_1614_13538)">
<path d="M13.0215 9.92822H4.97773C4.78086 9.92822 4.58398 10.0126 4.47148 10.1813C4.35898 10.3501 4.30273 10.547 4.35898 10.7438C4.94961 12.8251 6.86211 14.2876 8.99961 14.2876C11.1934 14.2876 13.0496 12.8813 13.6402 10.7438C13.6965 10.547 13.6684 10.3501 13.5277 10.1813C13.4152 10.0126 13.2184 9.92822 13.0215 9.92822ZM8.99961 12.9938C7.70586 12.9938 6.55273 12.2907 5.90586 11.1938H12.0934C11.4746 12.2907 10.3215 12.9938 8.99961 12.9938Z" fill="#637381"/>
<path d="M8.99961 0.225098C4.16211 0.225098 0.224609 4.1626 0.224609 9.0001C0.224609 13.8376 4.16211 17.8032 9.02773 17.8032C13.8934 17.8032 17.8309 13.8657 17.8309 9.0001C17.8309 4.13447 13.8371 0.225098 8.99961 0.225098ZM8.99961 16.5376C4.83711 16.5376 1.46211 13.1626 1.46211 9.0001C1.46211 4.8376 4.86523 1.49072 8.99961 1.49072C13.134 1.49072 16.5371 4.86572 16.5371 9.02822C16.5371 13.1907 13.1621 16.5376 8.99961 16.5376Z" fill="#637381"/>
<path d="M5.625 7.5376C6.24632 7.5376 6.75 7.03392 6.75 6.4126C6.75 5.79128 6.24632 5.2876 5.625 5.2876C5.00368 5.2876 4.5 5.79128 4.5 6.4126C4.5 7.03392 5.00368 7.5376 5.625 7.5376Z" fill="#637381"/>
<path d="M12.375 7.5376C12.9963 7.5376 13.5 7.03392 13.5 6.4126C13.5 5.79128 12.9963 5.2876 12.375 5.2876C11.7537 5.2876 11.25 5.79128 11.25 6.4126C11.25 7.03392 11.7537 7.5376 12.375 7.5376Z" fill="#637381"/>
</g>
<defs>
<clipPath id="clip0_1614_13538">
<rect width="18" height="18" fill="white"/>
</clipPath>
</defs>
</svg>
