<svg width="63" height="62" viewBox="0 0 63 62" fill="none" xmlns="http://www.w3.org/2000/svg">
<path d="M0 0H53C58.5228 0 63 4.47715 63 10V61.2676L31.5 30.6338L0 0Z" fill="#232C28"/>
<path d="M53.9207 15.8576C52.1646 19.6134 48.1713 23 43.5 23C38.2439 23 34.4658 18.8231 33.0793 15.8576C32.9736 15.6313 32.9736 15.3687 33.0793 15.1424C34.8354 11.3866 38.8287 8 43.5 8C48.7561 8 52.5342 12.1771 53.9207 15.1424C54.0264 15.3687 54.0264 15.6313 53.9207 15.8576ZM43.5 9.66667C39.7208 9.66667 36.5874 12.1968 34.7494 15.5C36.5797 18.7897 39.7112 21.3333 43.5 21.3333C47.2789 21.3333 50.4126 18.8035 52.2506 15.5C50.4203 12.2104 47.2888 9.66667 43.5 9.66667ZM43.5 19.6667C41.2384 19.6667 39.3984 17.7975 39.3984 15.5C39.3984 13.2025 41.2384 11.3333 43.5 11.3333C45.7616 11.3333 47.6016 13.2025 47.6016 15.5C47.6016 17.7975 45.7616 19.6667 43.5 19.6667ZM43.5 13C42.1431 13 41.0391 14.1216 41.0391 15.5C41.0391 16.8786 42.1431 18 43.5 18C44.857 18 45.9609 16.8786 45.9609 15.5C45.9609 14.1216 44.857 13 43.5 13Z" fill="white"/>
</svg>
