<svg width="30" height="18" viewBox="0 0 30 18" fill="#000" xmlns="http://www.w3.org/2000/svg">
<path d="M11.3447 9.00001C11.3447 7.24371 12.918 5.7762 14.9486 5.7762C16.9792 5.7762 18.5524 7.24371 18.5524 9.00001C18.5524 10.7563 16.9792 12.2238 14.9486 12.2238C12.918 12.2238 11.3447 10.7563 11.3447 9.00001ZM12.8127 9.00001C12.8127 10.1151 13.801 10.9619 14.9486 10.9619C16.0962 10.9619 17.0845 10.1151 17.0845 9.00001C17.0845 7.88489 16.0962 7.03811 14.9486 7.03811C13.801 7.03811 12.8127 7.88489 12.8127 9.00001Z" fill="#000" stroke="#000" stroke-width="0.666667"/>
<path d="M27.3108 9.6294L27.325 9.61058L27.3365 9.58994C27.5344 9.23237 27.5343 8.76755 27.3365 8.40998L27.325 8.38934L27.3108 8.37051C25.561 6.05329 23.7952 4.39683 21.7949 3.32238C19.7917 2.24644 17.5767 1.76662 14.9487 1.76662C12.3206 1.76662 10.1056 2.24644 8.10247 3.32238C6.1021 4.39683 4.33631 6.05329 2.5865 8.37051L2.58648 8.3705L2.58429 8.37347C2.30773 8.74827 2.30773 9.25164 2.58429 9.62644L2.58428 9.62646L2.5865 9.6294C4.33631 11.9466 6.1021 13.6031 8.10247 14.6775C10.1056 15.7535 12.3206 16.2333 14.9487 16.2333C17.5767 16.2333 19.7917 15.7535 21.7949 14.6775C23.7952 13.6031 25.561 11.9466 27.3108 9.6294ZM14.9487 0.50472C18.5889 0.50472 21.314 1.41002 23.4585 2.75216C25.6076 4.09718 27.1912 5.89179 28.5322 7.69847C29.1061 8.47681 29.1122 9.47446 28.5303 10.304C27.1892 12.089 25.6061 13.8824 23.458 15.232C21.3132 16.5796 18.5881 17.4952 14.9487 17.4952C11.3092 17.4952 8.58417 16.5796 6.4393 15.232C4.29003 13.8816 2.70632 12.087 1.36479 10.3009C0.788409 9.51885 0.788588 8.48018 1.36532 7.69825C2.70628 5.89164 4.2898 4.09713 6.4388 2.75216C8.58329 1.41002 11.3084 0.50472 14.9487 0.50472Z" fill="#000" stroke="#000" stroke-width="0.666667"/>
</svg>
