<svg width="24" height="24" viewBox="0 0 24 24" fill="none" xmlns="http://www.w3.org/2000/svg">
<path d="M17.6471 0H6.35294C4.66861 0.00186837 3.0538 0.671794 1.8628 1.8628C0.671794 3.0538 0.00186837 4.66861 0 6.35294V17.6471C0.00186837 19.3314 0.671794 20.9462 1.8628 22.1372C3.0538 23.3282 4.66861 23.9981 6.35294 24H17.6471C19.3314 23.9981 20.9462 23.3282 22.1372 22.1372C23.3282 20.9462 23.9981 19.3314 24 17.6471V6.35294C23.9981 4.66861 23.3282 3.0538 22.1372 1.8628C20.9462 0.671794 19.3314 0.00186837 17.6471 0ZM22.5882 17.6471C22.5882 18.9575 22.0676 20.2143 21.141 21.141C20.2143 22.0676 18.9575 22.5882 17.6471 22.5882H6.35294C5.04246 22.5882 3.78565 22.0676 2.859 21.141C1.93235 20.2143 1.41176 18.9575 1.41176 17.6471V6.35294C1.41176 5.04246 1.93235 3.78565 2.859 2.859C3.78565 1.93235 5.04246 1.41176 6.35294 1.41176H17.6471C18.9575 1.41176 20.2143 1.93235 21.141 2.859C22.0676 3.78565 22.5882 5.04246 22.5882 6.35294V17.6471ZM12.7059 16.2353V17.6471C12.7059 17.8343 12.6315 18.0138 12.4991 18.1462C12.3668 18.2786 12.1872 18.3529 12 18.3529C11.8128 18.3529 11.6332 18.2786 11.5009 18.1462C11.3685 18.0138 11.2941 17.8343 11.2941 17.6471V16.2353C11.2941 16.0481 11.3685 15.8685 11.5009 15.7362C11.6332 15.6038 11.8128 15.5294 12 15.5294C12.1872 15.5294 12.3668 15.6038 12.4991 15.7362C12.6315 15.8685 12.7059 16.0481 12.7059 16.2353ZM15.5294 9.17647C15.5301 9.91543 15.2989 10.636 14.8683 11.2365C14.4377 11.8371 13.8295 12.2873 13.1294 12.5238C12.9992 12.582 12.8898 12.6784 12.8154 12.8001C12.7411 12.9218 12.7053 13.0632 12.7129 13.2056V13.4118C12.7129 13.599 12.6386 13.7785 12.5062 13.9109C12.3738 14.0433 12.1943 14.1176 12.0071 14.1176C11.8198 14.1176 11.6403 14.0433 11.5079 13.9109C11.3755 13.7785 11.3012 13.599 11.3012 13.4118V13.2056C11.2903 12.7668 11.4176 12.3357 11.6651 11.9731C11.9126 11.6106 12.2678 11.3351 12.6805 11.1854C13.0491 11.0603 13.376 10.8361 13.6255 10.5373C13.875 10.2386 14.0373 9.87684 14.0946 9.49186C14.1519 9.10688 14.102 8.71355 13.9503 8.35508C13.7987 7.99661 13.5512 7.68687 13.235 7.45987C12.9189 7.23287 12.5462 7.0974 12.1581 7.06834C11.77 7.03928 11.3813 7.11775 11.0349 7.29513C10.6884 7.47252 10.3976 7.74195 10.1943 8.07385C9.99094 8.40574 9.88302 8.78725 9.88235 9.17647C9.88235 9.36368 9.80798 9.54323 9.67561 9.67561C9.54323 9.80798 9.36368 9.88235 9.17647 9.88235C8.98926 9.88235 8.80971 9.80798 8.67734 9.67561C8.54496 9.54323 8.47059 9.36368 8.47059 9.17647C8.47059 8.24041 8.84244 7.34269 9.50433 6.6808C10.1662 6.01891 11.0639 5.64706 12 5.64706C12.9361 5.64706 13.8338 6.01891 14.4957 6.6808C15.1576 7.34269 15.5294 8.24041 15.5294 9.17647Z" fill="#232C28"/>
</svg>
