<svg width="62" height="62" viewBox="0 0 62 62" fill="none" xmlns="http://www.w3.org/2000/svg">
<path d="M21.8154 26.5912C21.8154 27.553 22.5951 28.3326 23.5569 28.3326H27.0397C28.0015 28.3326 28.7812 27.553 28.7812 26.5912V19.5288C27.671 19.5906 26.5103 19.6255 25.2983 19.6255C24.0863 19.6255 22.9256 19.5906 21.8154 19.5288V26.5912ZM24.4276 23.979H26.169C26.6499 23.979 27.0397 24.3689 27.0397 24.8498C27.0397 25.3307 26.6499 25.7205 26.169 25.7205H24.4276C23.9467 25.7205 23.5569 25.3307 23.5569 24.8498C23.5569 24.3689 23.9467 23.979 24.4276 23.979Z" fill="white"/>
<path d="M49.6783 48.2121V55.3259H52.2904V45.5913C52.2916 43.8855 52.5185 42.1873 52.9653 40.5411L54.4594 35.0669C51.9827 36.2206 49.6401 37.6426 47.4736 39.3073C48.9175 42.0537 49.674 45.1093 49.6783 48.2121Z" fill="white"/>
<path d="M34.6227 37.911C37.1554 34.3036 39.8925 30.8441 42.8205 27.5494C43.336 23.912 43.5937 20.2426 43.5919 16.5688C41.1675 17.4983 38.6601 18.1951 36.1038 18.6498C34.6766 11.907 30.3849 7.00049 25.2981 7.00049C28.1306 7.00049 30.5077 12.2396 31.192 19.3412C30.9691 19.3621 30.7506 19.3856 30.5225 19.4047V26.5916C30.5225 28.5152 28.9631 30.0745 27.0396 30.0745H23.5567C21.6332 30.0745 20.0738 28.5152 20.0738 26.5916V19.4047C19.8457 19.3856 19.6272 19.3629 19.4043 19.3412C20.0886 12.2396 22.4657 7.00049 25.2981 7.00049C20.2114 7.00049 15.9188 11.9079 14.496 18.6533C11.9389 18.198 9.42947 17.5066 7 16.588C7.02177 26.4175 8.62998 37.911 13.1081 37.911H34.6227ZM10.6588 32.6118C10.5473 32.3122 10.6089 31.9756 10.8193 31.7349C11.0297 31.4943 11.3551 31.3883 11.6669 31.4588C11.9787 31.5293 12.2268 31.765 12.3131 32.0728C12.5349 32.92 12.9078 33.7203 13.4137 34.4351H15.7185C16.1994 34.4351 16.5892 34.8249 16.5892 35.3058C16.5892 35.7867 16.1994 36.1765 15.7185 36.1765H13.1325C13.0146 36.1765 12.8979 36.1529 12.7894 36.1069C12.5056 35.9841 11.6331 35.6105 10.6588 32.6118Z" fill="white"/>
<path d="M52.0058 22.2375C51.6964 21.8842 51.1604 21.8454 50.8033 22.1505C43.1837 28.6887 37.807 36.3737 33.8809 41.9854C33.2566 42.8779 32.6619 43.7269 32.1012 44.5105C29.5953 48.0213 26.5286 48.3582 24.4006 48.0213C23.0274 47.7908 21.7153 47.2837 20.5441 46.5306C19.8808 46.6253 19.2381 46.8314 18.6434 47.1401C17.2639 47.7587 16.0107 48.6272 14.9472 49.7017C13.372 51.269 12.4647 52.8433 12.6345 53.7192C12.6615 53.8585 12.7434 54.2808 13.5784 54.6326C15.1037 55.1674 16.718 55.4024 18.3325 55.3248H30.5226C33.8017 55.3248 34.6367 53.8603 36.8684 49.9482C37.7243 48.4462 38.7909 46.5776 40.2468 44.393C44.9208 37.3819 52.8225 33.8085 54.9488 32.9474C55.3511 27.0361 53.2945 23.7099 52.0058 22.2375ZM20.0443 50.3234C19.0574 50.7701 18.1615 51.3954 17.4017 52.1676C17.1057 52.4597 16.8285 52.7703 16.5719 53.0975C16.3809 53.3433 16.0733 53.4685 15.765 53.4259C15.4567 53.3834 15.1945 53.1796 15.0771 52.8913C14.9598 52.603 15.0052 52.2741 15.1962 52.0283C15.4989 51.6428 15.8254 51.2767 16.174 50.9321C17.086 50.0087 18.1608 49.2618 19.3443 48.7291C19.7792 48.5611 20.2694 48.7654 20.4561 49.1927C20.6427 49.62 20.4597 50.1185 20.0409 50.3234H20.0443Z" fill="white"/>
</svg>
