<svg width="18" height="22" viewBox="0 0 18 22" fill="none" xmlns="http://www.w3.org/2000/svg">
<path fill-rule="evenodd" clip-rule="evenodd" d="M9 17.6C9 20.03 11.0148 22 13.5 22C15.9853 22 18 20.03 18 17.6C18 15.5498 16.5659 13.8271 14.625 13.3386L14.625 1.1C14.625 0.492492 14.1213 -1.69543e-07 13.5 -1.96701e-07C12.8787 -2.2386e-07 12.375 0.492492 12.375 1.1L12.375 13.3386C10.4341 13.8271 9 15.5498 9 17.6ZM13.5 15.4C12.2574 15.4 11.25 16.3849 11.25 17.6C11.25 18.8151 12.2574 19.8 13.5 19.8C14.7426 19.8 15.75 18.8151 15.75 17.6C15.75 16.3849 14.7426 15.4 13.5 15.4ZM4.5 -5.90104e-07C6.98524 -4.81471e-07 9 1.96995 9 4.4C9 6.45022 7.56585 8.17293 5.625 8.66138L5.625 20.9C5.625 21.5075 5.12134 22 4.5 22C3.87866 22 3.375 21.5075 3.375 20.9L3.375 8.66138C1.43415 8.17293 1.6254e-06 6.45022 1.71502e-06 4.4C1.82124e-06 1.96995 2.01476 -6.98737e-07 4.5 -5.90104e-07ZM4.5 6.6C5.74268 6.6 6.75 5.61503 6.75 4.4C6.75 3.18497 5.74268 2.2 4.5 2.2C3.25733 2.2 2.25 3.18497 2.25 4.4C2.25 5.61503 3.25733 6.6 4.5 6.6Z" fill="#232C28"/>
</svg>
