<svg width="52" height="49" viewBox="0 0 52 49" fill="none" xmlns="http://www.w3.org/2000/svg">
<path d="M50.3791 9.3927H49.0132C49.0132 6.84074 49.0132 7.39214 49.0132 4.82415C49.0132 4.35171 48.6298 3.96875 48.1569 3.96875H45.8174C45.3445 3.96875 44.9611 4.35171 44.9611 4.82415C44.9611 7.39224 44.9611 6.84044 44.9611 9.3927H41.9709C42.0956 8.08431 41.131 6.93864 39.8531 6.80367C38.5386 6.66519 37.373 7.625 37.2362 8.91776L37.1859 9.3926H33.0645C31.8487 12.0149 29.2246 13.708 26.3178 13.708C23.371 13.708 20.7692 11.9764 19.5711 9.3926H15.4648L15.4146 8.91776C15.2766 7.61538 14.1004 6.6659 12.7976 6.80357C11.5214 6.93854 10.5549 8.0829 10.6798 9.3928H7.68177C7.68177 6.84084 7.68177 7.39224 7.68177 4.82425C7.68177 4.35181 7.2984 3.96885 6.82545 3.96885H4.48602C4.01307 3.96885 3.6297 4.35181 3.6297 4.82425C3.6297 7.39234 3.6297 6.84054 3.6297 9.3928H2.26403C1.3688 9.3927 0.643188 10.1175 0.643188 11.0118C0.643188 11.906 1.3688 12.6309 2.26403 12.6309H3.6298C3.6298 15.1829 3.6298 14.6315 3.6298 17.1995C3.6298 17.6719 4.01327 18.0549 4.48612 18.0549H6.82555C7.2985 18.0549 7.68187 17.6718 7.68187 17.1995C7.68187 14.6314 7.68187 15.1832 7.68187 12.6309H11.0212C11.1238 13.5997 11.849 20.45 11.9561 21.4631C12.1713 23.4961 14.7351 24.3556 16.115 22.7774L19.4598 18.9538V28.0502L10.8052 31.5626C9.79492 31.9727 9.07532 32.8836 8.91082 33.9604L7.18415 45.268C6.92636 46.9559 8.0871 48.5327 9.77666 48.7901C11.4662 49.0475 13.0448 47.8881 13.3025 46.2004L14.7642 36.6291L22.7704 33.3797H29.8775L37.8837 36.6291L39.3454 46.2004C39.6032 47.8883 41.1817 49.0475 42.8713 48.7901C44.5608 48.5326 45.7215 46.9558 45.4638 45.268L43.737 33.9603C43.5725 32.8835 42.8529 31.9727 41.8426 31.5625L33.1194 28.0221V18.8722L36.5353 22.7773C37.8784 24.313 40.4728 23.5521 40.6942 21.463C40.8012 20.4516 41.527 13.5979 41.6294 12.6308H44.9612C44.9612 15.1828 44.9612 14.6314 44.9612 17.1994C44.9612 17.6718 45.3447 18.0548 45.8175 18.0548H48.157C48.6299 18.0548 49.0133 17.6717 49.0133 17.1994C49.0133 14.6313 49.0133 15.1831 49.0133 12.6308H50.3792C51.2743 12.6308 52 11.906 52 11.0117C51.9999 10.1175 51.2743 9.3927 50.3791 9.3927ZM16.1165 15.5496C15.9882 14.3374 15.9345 13.8307 15.8075 12.6308H18.6696C17.6326 13.8165 17.1679 14.3477 16.1165 15.5496ZM36.5339 15.5496C35.3509 14.1972 36.8705 15.9344 33.9807 12.6308H36.8429C36.6029 14.8973 36.662 14.339 36.5339 15.5496Z" fill="white"/>
<path d="M26.318 11.6228C29.2698 11.6228 31.6627 9.23244 31.6627 6.28381C31.6627 3.33517 29.2698 0.944824 26.318 0.944824C23.3662 0.944824 20.9733 3.33517 20.9733 6.28381C20.9733 9.23244 23.3662 11.6228 26.318 11.6228Z" fill="white"/>
</svg>
