<svg width="19" height="26" viewBox="0 0 19 26" fill="none" xmlns="http://www.w3.org/2000/svg">
<path fill-rule="evenodd" clip-rule="evenodd" d="M8.66216 8.17857H8.65625C7.259 8.17857 6.125 9.47457 6.125 11.0714C6.125 12.6683 7.259 13.9643 8.65625 13.9643H10.3438C10.8095 13.9643 11.1875 14.3963 11.1875 14.9286C11.1875 15.4609 10.8095 15.8929 10.3438 15.8929H7.8125C7.34675 15.8929 6.96875 16.3249 6.96875 16.8571C6.96875 17.3894 7.34675 17.8214 7.8125 17.8214H8.66131V18.7857C8.66131 19.318 9.03931 19.75 9.50506 19.75C9.97081 19.75 10.3488 19.318 10.3488 18.7857V17.8214C11.7435 17.8185 12.875 16.5235 12.875 14.9286C12.875 13.3317 11.741 12.0357 10.3438 12.0357H8.65625C8.1905 12.0357 7.8125 11.6037 7.8125 11.0714C7.8125 10.5391 8.1905 10.1071 8.65625 10.1071H11.1875C11.6533 10.1071 12.0312 9.67514 12.0312 9.14286C12.0312 8.61057 11.6533 8.17857 11.1875 8.17857H10.3497V7.21429C10.3497 6.682 9.97166 6.25 9.50591 6.25C9.04016 6.25 8.66216 6.682 8.66216 7.21429V8.17857Z" fill="#232C28"/>
<path fill-rule="evenodd" clip-rule="evenodd" d="M15.5409 4.12419V4.14669L14.3295 4.95952C14.0119 5.17258 13.9206 5.60853 14.1268 5.93338C14.3323 6.25753 14.7571 6.34753 15.0746 6.13448L18.1872 4.04614C18.3796 3.91747 18.4972 3.69879 18.5 3.46323C18.5027 3.22838 18.3913 3.0076 18.2025 2.87611L15.1438 0.745584C14.8318 0.528312 14.4049 0.612689 14.1911 0.934026C13.9766 1.25536 14.0562 1.69342 14.3682 1.91069L15.5264 2.7172C10.826 2.67853 1.1996 2.64407 1.1996 2.64407C0.821159 2.63915 0.507752 2.94994 0.500141 3.33807C0.492531 3.72621 0.793485 4.04544 1.17193 4.05036C1.17193 4.05036 10.8474 4.08481 15.5409 4.12419Z" fill="#232C28"/>
<path fill-rule="evenodd" clip-rule="evenodd" d="M3.45908 23.2487V23.2712L4.67051 24.0841C4.98876 24.2971 5.07939 24.7338 4.87322 25.0579C4.66774 25.382 4.24295 25.4727 3.92539 25.2597L0.812766 23.1714C0.620432 23.042 0.502818 22.8233 0.50005 22.5885C0.497283 22.3529 0.608671 22.1329 0.797545 22.0014L3.8562 19.8709C4.16823 19.6529 4.5951 19.738 4.80957 20.0593C5.02335 20.3807 4.94379 20.818 4.63177 21.0353L3.47361 21.8425C8.17472 21.8031 17.8011 21.7693 17.8011 21.7693C18.1788 21.7637 18.4922 22.0745 18.4999 22.4626C18.5075 22.8508 18.2065 23.17 17.8281 23.1756C17.8281 23.1756 8.15258 23.2094 3.45908 23.2487Z" fill="#232C28"/>
</svg>
