<svg width="56" height="45" viewBox="0 0 56 45" fill="none" xmlns="http://www.w3.org/2000/svg">
<path d="M50.2162 12.8174H48.4005C45.569 12.8174 43.2736 15.1127 43.2736 17.9442V22.1098C43.2736 23.5845 42.0781 24.78 40.6034 24.78H15.3965C13.9218 24.78 12.7263 23.5845 12.7263 22.1098V17.9442C12.7263 15.1127 10.4309 12.8174 7.59944 12.8174H5.78369C2.95218 12.8174 0.65686 15.1127 0.65686 17.9442V23.8187C0.65686 29.9627 4.50006 35.2084 9.91325 37.2851L8.51554 42.177C8.27245 43.0278 8.76505 43.9146 9.61589 44.1576C10.4685 44.4013 11.354 43.9059 11.5964 43.0572L13.0154 38.0907C13.6885 38.1871 14.3763 38.2379 15.076 38.2379H40.9237C41.6234 38.2379 42.3112 38.1871 42.9843 38.0907L44.4032 43.0572C44.6043 43.761 45.2458 44.2196 45.943 44.2196C47.0092 44.2196 47.7761 43.1982 47.4843 42.1769L46.0866 37.285C51.4998 35.2083 55.343 29.9627 55.343 23.8187V17.9442C55.343 15.1127 53.0477 12.8174 50.2162 12.8174Z" fill="white"/>
<path d="M15.9305 17.9439V21.5754H40.0693V17.9439C40.0693 13.3502 43.8066 9.61281 48.4004 9.61281H50.0953C49.8167 4.2651 45.3784 0 39.9625 0H16.0373C10.6214 0 6.18308 4.2651 5.90442 9.61281H7.59937C12.1931 9.61281 15.9305 13.3501 15.9305 17.9439ZM36.5446 8.54493C37.4294 8.54493 38.1467 9.26226 38.1467 10.1471C38.1467 11.0319 37.4294 11.7492 36.5446 11.7492C35.6598 11.7492 34.9425 11.0319 34.9425 10.1471C34.9425 9.26226 35.6598 8.54493 36.5446 8.54493ZM27.9999 8.54493C28.8847 8.54493 29.602 9.26226 29.602 10.1471C29.602 11.0319 28.8847 11.7492 27.9999 11.7492C27.1151 11.7492 26.3977 11.0319 26.3977 10.1471C26.3977 9.26226 27.1151 8.54493 27.9999 8.54493ZM19.4552 8.54493C20.34 8.54493 21.0573 9.26226 21.0573 10.1471C21.0573 11.0319 20.34 11.7492 19.4552 11.7492C18.5704 11.7492 17.853 11.0319 17.853 10.1471C17.853 9.26226 18.5704 8.54493 19.4552 8.54493Z" fill="white"/>
</svg>
