<svg width="40" height="40" viewBox="0 0 40 40" fill="none" xmlns="http://www.w3.org/2000/svg">
<g clip-path="url(#clip0_3216_21152)">
<path d="M21.1719 10.625C21.1719 4.76633 16.4405 0 10.625 0C4.79367 0 0 4.79523 0 10.625C0 16.0474 4.14391 20.5265 9.45312 21.1074V28.2031H5.9375C5.29031 28.2031 4.76562 28.7278 4.76562 29.375C4.76562 30.0222 5.29031 30.5469 5.9375 30.5469H9.45312V34.0625C9.45312 34.7097 9.97781 35.2344 10.625 35.2344C11.2722 35.2344 11.7969 34.7097 11.7969 34.0625V30.5469H15.3125C15.9597 30.5469 16.4844 30.0222 16.4844 29.375C16.4844 28.7278 15.9597 28.2031 15.3125 28.2031H11.7969V21.1064C17.063 20.5216 21.1719 16.0445 21.1719 10.625ZM2.34375 10.625C2.34375 6.05867 6.05875 2.34375 10.625 2.34375C15.1482 2.34375 18.8281 6.05867 18.8281 10.625C18.8281 15.1482 15.1482 18.8281 10.625 18.8281C6.05875 18.8281 2.34375 15.1482 2.34375 10.625Z" fill="#09C47A"/>
<path d="M30.5469 18.8926V8.76668L33.2339 11.4536C33.6915 11.9113 34.4335 11.9114 34.8912 11.4536C35.3488 10.996 35.3488 10.254 34.8912 9.79637L30.2037 5.10887C29.7461 4.65121 29.0041 4.65121 28.5464 5.10887L23.8589 9.79637C23.4013 10.254 23.4013 10.996 23.8589 11.4536C24.3165 11.9113 25.0585 11.9113 25.5162 11.4536L28.2031 8.76668V18.8936C22.937 19.4785 18.8281 23.9556 18.8281 29.375C18.8281 35.2337 23.5595 40 29.375 40C35.2063 40 40 35.2048 40 29.375C40 23.9526 35.8561 19.4736 30.5469 18.8926ZM29.375 37.6563C24.8518 37.6563 21.1719 33.9414 21.1719 29.375C21.1719 24.8518 24.8518 21.1719 29.375 21.1719C33.9412 21.1719 37.6562 24.8518 37.6562 29.375C37.6562 33.9414 33.9412 37.6563 29.375 37.6563Z" fill="#09C47A"/>
</g>
<defs>
<clipPath id="clip0_3216_21152">
<rect width="40" height="40" fill="white"/>
</clipPath>
</defs>
</svg>
