<svg width="26" height="26" viewBox="0 0 26 26" fill="none" xmlns="http://www.w3.org/2000/svg">
<g clip-path="url(#clip0_1933_49853)">
<path d="M24.9762 18.2603C24.8396 16.823 24.1201 15.515 22.9502 14.577C22.499 14.2153 21.9865 13.913 21.4215 13.6722V7.19176C21.4215 7.05473 21.35 6.92811 21.234 6.8596L11.3982 1.05138C11.2822 0.982872 11.1392 0.982872 11.0232 1.05138L1.1875 6.8596C1.07144 6.92811 1 7.05473 1 7.19176V18.8082C1 18.9453 1.07144 19.0719 1.1875 19.1404L11.0232 24.9486C11.0812 24.9828 11.146 25 11.2107 25C11.2755 25 11.3402 24.9829 11.3982 24.9486L21.234 19.1404C21.3111 19.0948 21.3678 19.0234 21.3977 18.9406C21.6535 19.2782 21.8307 19.6567 21.9144 20.0555C22.2237 21.5293 21.2918 22.9621 19.4825 23.7948C19.3088 23.8748 19.2212 24.0753 19.279 24.261C19.3293 24.4226 19.4757 24.5282 19.6361 24.5282C19.66 24.5282 19.6843 24.5258 19.7086 24.5209C21.4445 24.1725 22.8652 23.3465 23.8172 22.1323C24.6955 21.0122 25.107 19.6371 24.9762 18.2603ZM11.2107 12.5571L8.46902 10.9381L17.5548 5.57272L20.2965 7.19176L11.2107 12.5571ZM5.61665 9.2537L14.7024 3.88835L16.8048 5.12986L7.71903 10.4952L5.61665 9.2537ZM7.34407 11.1595L7.34403 14.8481L5.2417 13.6066L5.24165 9.91801L7.34407 11.1595ZM11.2107 1.82645L13.9524 3.44548L4.86665 8.81079L2.12499 7.19176L11.2107 1.82645ZM1.75 7.85612L4.49165 9.47515L4.4917 13.8281C4.4917 13.9651 4.56314 14.0917 4.6792 14.1602L7.53153 15.8446C7.58951 15.8788 7.65429 15.8959 7.71903 15.8959C7.78376 15.8959 7.84854 15.8788 7.90652 15.8446C8.02259 15.776 8.09402 15.6494 8.09402 15.5124L8.09407 11.6024L10.8357 13.2215V23.9522L1.75 18.5868V7.85612ZM11.5857 23.9521V13.2215L20.6715 7.85612V13.3983C19.8915 13.1577 19.0307 13.0201 18.1059 12.9909V11.7504C18.1059 11.6015 18.0215 11.4659 17.8896 11.4029C17.7576 11.3399 17.6018 11.3607 17.4902 11.4563L13.1548 15.1677C13.0664 15.2433 13.017 15.3563 13.0207 15.4741C13.0244 15.5919 13.0807 15.7014 13.1737 15.7711L17.5091 19.0243C17.6231 19.1098 17.7743 19.1226 17.9004 19.0572C18.0264 18.9919 18.1059 18.8596 18.1059 18.7151V17.4256C19.0989 17.4801 19.9713 17.7534 20.6463 18.224C20.6549 18.23 20.663 18.2363 20.6715 18.2424V18.5868L11.5857 23.9521ZM21.95 22.8247C22.0427 22.7009 22.1274 22.5737 22.2042 22.4432C22.676 21.6413 22.8293 20.7599 22.6477 19.8946C22.457 18.9854 21.8962 18.167 21.0687 17.5901C20.1849 16.9739 19.0307 16.6482 17.7309 16.6482C17.5238 16.6482 17.3559 16.8199 17.3559 17.0317V17.9579L14.0029 15.4418L17.3559 12.5715V13.3685C17.3559 13.5803 17.5238 13.7521 17.7309 13.7521C22.2064 13.7521 24.0289 16.2205 24.2298 18.3344C24.3769 19.8835 23.6871 21.6883 21.95 22.8247Z" fill="black" stroke="black" stroke-width="0.4"/>
<path d="M20 6.73684L11.5294 2L2.11087 7.20192L11 12L20 6.73684Z" fill="white"/>
<path d="M9 12.375L3.61538 9L2 15.75L8.46154 18L9 12.375Z" fill="white"/>
</g>
<defs>
<clipPath id="clip0_1933_49853">
<rect width="25" height="25" fill="white" transform="translate(0.5 0.5)"/>
</clipPath>
</defs>
</svg>
