<svg width="83" height="56" viewBox="0 0 83 56" fill="none" xmlns="http://www.w3.org/2000/svg">
<path fill-rule="evenodd" clip-rule="evenodd" d="M73.872 0.360107H8.208C3.5568 0.360107 0 3.91691 0 8.56811V46.8721C0 51.5233 3.5568 55.0801 8.208 55.0801H73.872C78.5232 55.0801 82.08 51.5233 82.08 46.8721V8.56811C82.08 3.91691 78.5232 0.360107 73.872 0.360107Z" fill="#09C47A"/>
<path opacity="0.5" fill-rule="evenodd" clip-rule="evenodd" d="M64.6 44.4403C68.3776 44.4403 71.44 41.3779 71.44 37.6003C71.44 33.8226 68.3776 30.7603 64.6 30.7603C60.8224 30.7603 57.76 33.8226 57.76 37.6003C57.76 41.3779 60.8224 44.4403 64.6 44.4403Z" fill="white"/>
<path fill-rule="evenodd" clip-rule="evenodd" d="M58.52 44.4403C62.2976 44.4403 65.36 41.3779 65.36 37.6003C65.36 33.8226 62.2976 30.7603 58.52 30.7603C54.7424 30.7603 51.68 33.8226 51.68 37.6003C51.68 41.3779 54.7424 44.4403 58.52 44.4403Z" fill="white"/>
<path fill-rule="evenodd" clip-rule="evenodd" d="M25.9923 24.9841H31.4643C32.2851 24.9841 32.8323 25.5313 32.8323 26.3521C32.8323 27.1729 32.2851 27.7201 31.4643 27.7201H25.9923C25.1715 27.7201 24.6243 27.1729 24.6243 26.3521C24.6243 25.5313 25.1715 24.9841 25.9923 24.9841Z" fill="white"/>
<path fill-rule="evenodd" clip-rule="evenodd" d="M12.3123 24.9841H17.7843C18.6051 24.9841 19.1523 25.5313 19.1523 26.3521C19.1523 27.1729 18.6051 27.7201 17.7843 27.7201H12.3123C11.4915 27.7201 10.9443 27.1729 10.9443 26.3521C10.9443 25.5313 11.4915 24.9841 12.3123 24.9841Z" fill="white"/>
<path fill-rule="evenodd" clip-rule="evenodd" d="M12.3123 33.1921H25.9923C26.8131 33.1921 27.3603 33.7393 27.3603 34.5601C27.3603 35.3809 26.8131 35.9281 25.9923 35.9281H12.3123C11.4915 35.9281 10.9443 35.3809 10.9443 34.5601C10.9443 33.7393 11.4915 33.1921 12.3123 33.1921Z" fill="white"/>
<path fill-rule="evenodd" clip-rule="evenodd" d="M42.4083 44.1361H12.3123C11.4915 44.1361 10.9443 43.5889 10.9443 42.7681C10.9443 41.9473 11.4915 41.4001 12.3123 41.4001H42.4083C43.2291 41.4001 43.7763 41.9473 43.7763 42.7681C43.7763 43.5889 43.2291 44.1361 42.4083 44.1361Z" fill="white"/>
<path fill-rule="evenodd" clip-rule="evenodd" d="M45.1443 27.7201H39.6723C38.8515 27.7201 38.3043 27.1729 38.3043 26.3521C38.3043 25.5313 38.8515 24.9841 39.6723 24.9841H45.1443C45.9651 24.9841 46.5123 25.5313 46.5123 26.3521C46.5123 27.1729 45.9651 27.7201 45.1443 27.7201Z" fill="white"/>
</svg>
