<svg width="42" height="42" viewBox="0 0 42 42" fill="none" xmlns="http://www.w3.org/2000/svg">
<g clip-path="url(#clip0_1286_14955)">
<path d="M41.6456 7.59445C41.4766 5.72526 40.655 3.9752 39.3249 2.65109C37.9948 1.32698 36.241 0.513311 34.3711 0.352734C32.0488 0.147656 28.8602 0 24.497 0C20.1338 0 16.9444 0.147656 14.6213 0.352734C12.7634 0.512849 11.02 1.31763 9.69298 2.62771C8.36597 3.9378 7.53888 5.67071 7.35492 7.52637C5.5386 7.74514 3.85241 8.58073 2.57819 9.89346C1.30398 11.2062 0.518969 12.9165 0.354375 14.7386C0.148477 17.0527 0 20.2273 0 24.5716C0 28.916 0.148477 32.0914 0.354375 34.4055C0.523403 36.2747 1.34499 38.0248 2.6751 39.3489C4.00521 40.673 5.75896 41.4867 7.62891 41.6473C9.95285 41.8523 13.1414 42 17.5046 42C21.8679 42 25.0573 41.8523 27.3804 41.6473C29.2383 41.4872 30.9816 40.6824 32.3087 39.3723C33.6357 38.0622 34.4628 36.3293 34.6467 34.4736C36.463 34.2549 38.1492 33.4193 39.4234 32.1065C40.6977 30.7938 41.4827 29.0835 41.6473 27.2614C41.8532 24.9473 42.0016 21.7727 42.0016 17.4275C42.0016 13.0823 41.8515 9.90856 41.6456 7.59445ZM3.46582 15.0117C3.5678 13.8713 4.06845 12.8033 4.87978 11.9954C5.69112 11.1875 6.76123 10.6915 7.90207 10.5943C10.4688 10.3679 13.6984 10.2539 17.4997 10.2539C21.3011 10.2539 24.5347 10.3679 27.0974 10.5943C28.2394 10.69 29.3111 11.1854 30.1237 11.9934C30.9364 12.8015 31.438 13.8703 31.5402 15.0117C31.7674 17.567 31.8823 20.7834 31.8823 24.5708C31.8823 28.3582 31.7674 31.5755 31.5402 34.1307C31.518 34.3834 31.4758 34.6338 31.4139 34.8797L30.2605 33.4179C29.0737 31.7801 27.7892 30.2154 26.4141 28.7323C25.5724 27.8381 24.3551 27.3427 22.986 27.3377H22.9688C21.5988 27.3435 20.3815 27.8389 19.5357 28.738C19.3446 28.9423 19.1486 29.1564 18.9525 29.3746C18.0395 28.2499 17.1248 27.1966 16.2299 26.2385C15.257 25.2041 13.8395 24.6315 12.2382 24.625H12.2227C10.6222 24.6315 9.20473 25.2041 8.22773 26.2434C6.93246 27.6257 5.57812 29.2376 4.30254 30.902L3.31816 32.1686C3.18691 29.9914 3.12047 27.4468 3.12047 24.5716C3.12375 20.7843 3.23859 17.5678 3.46582 15.0117ZM27.1039 38.5489C24.538 38.7754 21.3076 38.8894 17.5063 38.8894C13.705 38.8894 10.4721 38.7754 7.90863 38.5489C7.14117 38.4827 6.40028 38.2358 5.74657 37.8283C5.09286 37.4208 4.54489 36.8644 4.1475 36.2045L6.77578 32.8018L6.78809 32.7871C7.99887 31.2039 9.28512 29.6748 10.5082 28.3664C10.8896 27.9628 11.5 27.7389 12.2309 27.7348C12.9601 27.7348 13.5688 27.9612 13.9478 28.3615C14.7902 29.2638 15.6573 30.2621 16.5236 31.3294C16.8087 31.6805 17.1667 31.9656 17.5727 32.165C17.9787 32.3644 18.4232 32.4734 18.8754 32.4844H18.9492C19.3887 32.4847 19.8233 32.3923 20.2247 32.2134C20.6261 32.0344 20.9853 31.7729 21.2789 31.4459C21.4586 31.2457 21.6382 31.0488 21.8138 30.861C22.0598 30.5968 22.4741 30.4508 22.972 30.4508C23.4691 30.4508 23.8793 30.5993 24.1262 30.861C25.4128 32.247 26.6151 33.709 27.7266 35.239C27.7512 35.2734 27.7766 35.3071 27.8029 35.3399L29.5903 37.6064C28.8645 38.1443 28.0039 38.4705 27.1039 38.5489ZM38.5342 26.9883C38.4442 27.996 38.0422 28.9505 37.3842 29.719C36.7263 30.4876 35.8451 31.0318 34.8633 31.2761C34.9527 29.4279 35.0077 27.2171 35.0077 24.5716C35.0077 20.224 34.8592 17.0527 34.6541 14.7386C34.4849 12.8695 33.6634 11.1197 32.3335 9.79561C31.0036 8.47155 29.2501 7.65775 27.3804 7.49684C25.0573 7.29176 21.8679 7.1441 17.5046 7.1441C14.7402 7.1441 12.4474 7.20316 10.5468 7.29914C10.7625 6.27605 11.3017 5.34953 12.0846 4.65655C12.8675 3.96356 13.8527 3.5409 14.8944 3.45105C17.4604 3.22465 20.6907 3.11062 24.4921 3.11062C28.2934 3.11062 31.5263 3.22465 34.0897 3.45105C35.2306 3.54817 36.3007 4.04426 37.112 4.85215C37.9234 5.66003 38.424 6.72802 38.526 7.86844C38.7532 10.4237 38.868 13.6402 38.868 17.4275C38.868 21.2149 38.7614 24.4322 38.5342 26.9883Z" fill="#676C6A"/>
<path d="M21.5718 24.6841C23.0746 24.6841 24.2928 23.471 24.2928 21.9746C24.2928 20.4782 23.0746 19.2651 21.5718 19.2651C20.0691 19.2651 18.8508 20.4782 18.8508 21.9746C18.8508 23.471 20.0691 24.6841 21.5718 24.6841Z" fill="#676C6A"/>
</g>
<defs>
<clipPath id="clip0_1286_14955">
<rect width="42" height="42" fill="white"/>
</clipPath>
</defs>
</svg>
