<svg width="45" height="45" viewBox="0 0 45 45" fill="none" xmlns="http://www.w3.org/2000/svg">
<path d="M45 38.25C45 39.4875 43.9875 40.5 42.75 40.5H40.5V42.75C40.5 43.9875 39.4875 45 38.25 45C37.0125 45 36 43.9875 36 42.75V40.5H33.75C32.5125 40.5 31.5 39.4875 31.5 38.25C31.5 37.0125 32.5125 36 33.75 36H36V33.75C36 32.5125 37.0125 31.5 38.25 31.5C39.4875 31.5 40.5 32.5125 40.5 33.75V36H42.75C43.9875 36 45 37.0125 45 38.25ZM31.4325 25.155L21.3975 31.185C21.06 31.3875 20.655 31.5 20.25 31.5C19.8225 31.5 19.3725 31.365 19.0125 31.1175L13.095 27.18L0 30.7575V33.75C0 37.4625 3.0375 40.5 6.75 40.5H24.75C25.9875 40.5 27 39.4875 27 38.25C27 33.1875 30.33 28.9125 34.92 27.495L31.4325 25.155ZM12.915 22.59L0 26.1V6.75C0 3.0375 3.0375 0 6.75 0H33.75C37.4625 0 40.5 3.0375 40.5 6.75V24.75C40.5 25.065 40.4325 25.38 40.2975 25.65L32.7375 20.6325C32.0175 20.1375 31.095 20.115 30.3525 20.565L20.3175 26.595L14.7375 22.8825C14.1975 22.5225 13.545 22.41 12.915 22.59ZM12.375 15.75C14.2425 15.75 15.75 14.2425 15.75 12.375C15.75 10.5075 14.2425 9 12.375 9C10.5075 9 9 10.5075 9 12.375C9 14.2425 10.5075 15.75 12.375 15.75Z" fill="white"/>
</svg>
