<svg width="25" height="25" viewBox="0 0 35 33" fill="none" xmlns="http://www.w3.org/2000/svg">
<path d="M26.5662 33C26.1061 33.0003 25.6529 32.8898 25.2461 32.6783L17.6904 28.7748C17.6319 28.7441 17.5665 28.728 17.5001 28.728C17.4337 28.728 17.3683 28.7441 17.3098 28.7748L9.75526 32.6783C9.28711 32.9204 8.75936 33.029 8.23172 32.9916C7.70408 32.9542 7.19761 32.7724 6.76962 32.4668C6.34163 32.1612 6.00921 31.7439 5.80997 31.2622C5.61073 30.7805 5.55262 30.2536 5.64222 29.7412L7.08475 21.4731C7.09584 21.4083 7.09058 21.3419 7.06945 21.2795C7.04831 21.2172 7.01194 21.1609 6.96353 21.1156L0.856398 15.2569C0.47722 14.8938 0.209086 14.4335 0.082379 13.9283C-0.0443285 13.4231 -0.0245449 12.893 0.139488 12.3983C0.303521 11.9036 0.605246 11.4639 1.01048 11.129C1.41571 10.7942 1.90824 10.5776 2.43228 10.5038L10.8729 9.29921C10.9386 9.28981 11.001 9.26483 11.0546 9.22642C11.1083 9.18802 11.1516 9.13734 11.1808 9.07877L14.9544 1.55424C15.1882 1.08778 15.5501 0.694964 15.9993 0.420275C16.4484 0.145587 16.9669 0 17.4958 0C18.0248 0 18.5433 0.145587 18.9924 0.420275C19.4416 0.694964 19.8035 1.08778 20.0373 1.55424L23.8133 9.07639C23.8428 9.13477 23.8862 9.18529 23.9398 9.22367C23.9934 9.26204 24.0556 9.28714 24.1212 9.29682L32.5691 10.5027C33.0929 10.5769 33.5851 10.7937 33.99 11.1285C34.395 11.4634 34.6965 11.903 34.8605 12.3976C35.0244 12.8921 35.0443 13.4219 34.9179 13.927C34.7914 14.4321 34.5237 14.8924 34.145 15.2557L28.0318 21.1109C27.9836 21.1563 27.9473 21.2126 27.9262 21.2749C27.9051 21.3371 27.8997 21.4036 27.9106 21.4683L29.3531 29.7364C29.4225 30.1359 29.4025 30.5454 29.2945 30.9366C29.1865 31.3277 28.9931 31.691 28.7277 32.0012C28.4623 32.3113 28.1314 32.561 27.7579 32.7326C27.3844 32.9043 26.9773 32.9939 26.565 32.9952L26.5662 33ZM17.5001 26.3441C17.9598 26.344 18.4126 26.4544 18.819 26.6658L26.3735 30.5681C26.4404 30.6056 26.517 30.6229 26.5939 30.6176C26.6707 30.6123 26.7442 30.5847 26.805 30.5383C26.8686 30.4955 26.9179 30.4353 26.947 30.3652C26.9761 30.2951 26.9836 30.2182 26.9687 30.1439L25.5249 21.8747C25.4478 21.4296 25.4816 20.9728 25.6235 20.5434C25.7654 20.1141 26.0111 19.7249 26.3396 19.4094L32.4527 13.553C32.5073 13.5005 32.5459 13.434 32.564 13.361C32.5822 13.2881 32.5793 13.2116 32.5556 13.1403C32.5319 13.0689 32.4884 13.0055 32.4299 12.9571C32.3715 12.9088 32.3004 12.8774 32.2249 12.8667L23.7781 11.6596C23.3234 11.5949 22.8915 11.4223 22.5198 11.1568C22.1481 10.8913 21.8477 10.5408 21.6447 10.1357L17.8638 2.61232C17.8299 2.54499 17.7776 2.48832 17.7127 2.44869C17.6477 2.40906 17.5729 2.38805 17.4965 2.38805C17.42 2.38805 17.3452 2.40906 17.2803 2.44869C17.2154 2.48832 17.163 2.54499 17.1292 2.61232L13.3555 10.1333C13.1524 10.5386 12.8518 10.8892 12.4799 11.1547C12.1079 11.4202 11.6758 11.5927 11.2208 11.6573L2.77533 12.8667C2.69958 12.8772 2.62836 12.9084 2.56978 12.9568C2.5112 13.0052 2.46762 13.0687 2.44399 13.1403C2.42037 13.2118 2.41766 13.2884 2.43616 13.3614C2.45466 13.4343 2.49364 13.5007 2.54865 13.553L8.66063 19.4094C8.98908 19.7249 9.23478 20.1141 9.37666 20.5434C9.51854 20.9728 9.55236 21.4296 9.47524 21.8747L8.03149 30.1439C8.01839 30.2182 8.02678 30.2946 8.05569 30.3644C8.08459 30.4343 8.13287 30.4947 8.19501 30.5389C8.25716 30.5831 8.33068 30.6093 8.40721 30.6145C8.48374 30.6196 8.5602 30.6035 8.6279 30.5681L16.1812 26.6646C16.5878 26.4541 17.0405 26.3441 17.5001 26.3441Z" fill="#232C28"/>
</svg>
