<svg width="117" height="117" viewBox="0 0 117 117" fill="none" xmlns="http://www.w3.org/2000/svg">
<g filter="url(#filter0_d_4478_4082)">
<rect x="25" y="25" width="67" height="67" rx="33.5" fill="url(#paint0_linear_4478_4082)" shape-rendering="crispEdges"/>
<rect x="22.5" y="22.5" width="72" height="72" rx="36" stroke="white" stroke-opacity="0.8" stroke-width="5" shape-rendering="crispEdges"/>
</g>
<path d="M36.9211 52.6C36.4278 52.6 36.0144 52.4467 35.6811 52.14C35.3611 51.82 35.2011 51.4267 35.2011 50.96C35.2011 50.4933 35.3611 50.1067 35.6811 49.8C36.0144 49.48 36.4278 49.32 36.9211 49.32C37.4144 49.32 37.8211 49.48 38.1411 49.8C38.4744 50.1067 38.6411 50.4933 38.6411 50.96C38.6411 51.4267 38.4744 51.82 38.1411 52.14C37.8211 52.4467 37.4144 52.6 36.9211 52.6ZM38.3011 53.92V65H35.5011V53.92H38.3011ZM45.8875 65.14C44.9142 65.14 44.0342 64.9733 43.2475 64.64C42.4742 64.3067 41.8608 63.8267 41.4075 63.2C40.9542 62.5733 40.7208 61.8333 40.7075 60.98H43.7075C43.7475 61.5533 43.9475 62.0067 44.3075 62.34C44.6808 62.6733 45.1875 62.84 45.8275 62.84C46.4808 62.84 46.9942 62.6867 47.3675 62.38C47.7408 62.06 47.9275 61.6467 47.9275 61.14C47.9275 60.7267 47.8008 60.3867 47.5475 60.12C47.2942 59.8533 46.9742 59.6467 46.5875 59.5C46.2142 59.34 45.6942 59.1667 45.0275 58.98C44.1208 58.7133 43.3808 58.4533 42.8075 58.2C42.2475 57.9333 41.7608 57.54 41.3475 57.02C40.9475 56.4867 40.7475 55.78 40.7475 54.9C40.7475 54.0733 40.9542 53.3533 41.3675 52.74C41.7808 52.1267 42.3608 51.66 43.1075 51.34C43.8542 51.0067 44.7075 50.84 45.6675 50.84C47.1075 50.84 48.2742 51.1933 49.1675 51.9C50.0742 52.5933 50.5742 53.5667 50.6675 54.82H47.5875C47.5608 54.34 47.3542 53.9467 46.9675 53.64C46.5942 53.32 46.0942 53.16 45.4675 53.16C44.9208 53.16 44.4808 53.3 44.1475 53.58C43.8275 53.86 43.6675 54.2667 43.6675 54.8C43.6675 55.1733 43.7875 55.4867 44.0275 55.74C44.2808 55.98 44.5875 56.18 44.9475 56.34C45.3208 56.4867 45.8408 56.66 46.5075 56.86C47.4142 57.1267 48.1542 57.3933 48.7275 57.66C49.3008 57.9267 49.7942 58.3267 50.2075 58.86C50.6208 59.3933 50.8275 60.0933 50.8275 60.96C50.8275 61.7067 50.6342 62.4 50.2475 63.04C49.8608 63.68 49.2942 64.1933 48.5475 64.58C47.8008 64.9533 46.9142 65.14 45.8875 65.14ZM56.055 53.3V56.8H60.755V59.02H56.055V62.72H61.355V65H53.255V51.02H61.355V53.3H56.055ZM66.6995 62.78H71.2995V65H63.8995V51.04H66.6995V62.78ZM75.8792 62.78H80.4792V65H73.0792V51.04H75.8792V62.78Z" fill="white"/>
<defs>
<filter id="filter0_d_4478_4082" x="0" y="0" width="117" height="117" filterUnits="userSpaceOnUse" color-interpolation-filters="sRGB">
<feFlood flood-opacity="0" result="BackgroundImageFix"/>
<feColorMatrix in="SourceAlpha" type="matrix" values="0 0 0 0 0 0 0 0 0 0 0 0 0 0 0 0 0 0 127 0" result="hardAlpha"/>
<feOffset/>
<feGaussianBlur stdDeviation="10"/>
<feComposite in2="hardAlpha" operator="out"/>
<feColorMatrix type="matrix" values="0 0 0 0 0 0 0 0 0 0 0 0 0 0 0 0 0 0 0.1 0"/>
<feBlend mode="normal" in2="BackgroundImageFix" result="effect1_dropShadow_4478_4082"/>
<feBlend mode="normal" in="SourceGraphic" in2="effect1_dropShadow_4478_4082" result="shape"/>
</filter>
<linearGradient id="paint0_linear_4478_4082" x1="27.68" y1="64.9423" x2="99.3711" y2="64.7681" gradientUnits="userSpaceOnUse">
<stop stop-color="#139764"/>
<stop offset="0.501736" stop-color="#45C795"/>
<stop offset="1" stop-color="#007548"/>
</linearGradient>
</defs>
</svg>
