<svg width="26" height="20" viewBox="0 0 26 20" fill="none" xmlns="http://www.w3.org/2000/svg">
<path d="M25.9018 8.90526C23.7275 13.1619 18.7835 17 13 17C6.49246 17 1.81483 12.2662 0.0981903 8.90526C-0.0327301 8.64886 -0.0327301 8.35114 0.0981903 8.09474C2.27246 3.8381 7.21649 0 13 0C19.5075 0 24.1852 4.73403 25.9018 8.09474C26.0327 8.35114 26.0327 8.64886 25.9018 8.90526ZM13 1.88889C8.32098 1.88889 4.44157 4.75635 2.16594 8.5C4.43205 12.2283 8.30908 15.1111 13 15.1111C17.6786 15.1111 21.5584 12.244 23.8341 8.5C21.5679 4.77184 17.6909 1.88889 13 1.88889ZM13 13.2222C10.1999 13.2222 7.92188 11.1039 7.92188 8.5C7.92188 5.89614 10.1999 3.77778 13 3.77778C15.8001 3.77778 18.0781 5.89614 18.0781 8.5C18.0781 11.1039 15.8001 13.2222 13 13.2222ZM13 5.66667C11.3201 5.66667 9.95312 6.93779 9.95312 8.5C9.95312 10.0624 11.3201 11.3333 13 11.3333C14.6801 11.3333 16.0469 10.0624 16.0469 8.5C16.0469 6.93779 14.6801 5.66667 13 5.66667Z"  stroke="#000" fill="#000"/>
</svg>
