<svg width="54" height="54" viewBox="0 0 54 54" fill="none" xmlns="http://www.w3.org/2000/svg">
<path d="M52.6693 26.4732C51.835 25.6398 50.7257 25.168 49.547 25.1458L48.3602 25.1235L48.0505 23.9778C46.2186 17.2038 41.2736 11.8908 35.0117 9.41054C35.7623 10.7415 36.1913 12.2768 36.1913 13.9106C36.1913 18.9787 32.068 23.1019 26.9999 23.1019C21.9319 23.1019 17.8086 18.9787 17.8086 13.9106H20.9706C20.9706 17.2351 23.6754 19.9399 26.9999 19.9399C30.3245 19.9399 33.0293 17.2351 33.0293 13.9106C33.0293 10.5861 30.3245 7.88129 26.9999 7.88129C26.6926 7.88129 26.3864 7.88782 26.0815 7.90057H25.796C22.8296 7.89225 20.4189 5.4769 20.4189 2.50872H17.2569C17.2569 4.55117 17.9774 6.42803 19.1764 7.90057H17.6456C14.6722 7.90057 12.2533 5.48164 12.2533 2.5083H9.09129C9.09129 6.64536 12.0436 10.1053 15.9518 10.8935C11.1524 13.717 7.4734 18.3419 5.94942 23.9778L5.63965 25.1235L4.45295 25.1458C3.27415 25.168 2.16492 25.6398 1.32941 26.4744C0.472509 27.3322 0 28.4735 0 29.6869C0 32.1444 1.99776 34.1816 4.45316 34.228L5.63975 34.2504L5.94953 35.396C8.51244 44.8734 17.1686 51.4925 26.9999 51.4925C36.8313 51.4925 45.4875 44.8734 48.0504 35.396L48.3601 34.2504L49.5467 34.228C52.0022 34.1816 53.9999 32.1444 53.9999 29.6869C54 28.4735 53.5275 27.3321 52.6693 26.4732ZM16.7925 27.8965C15.4129 27.8965 14.2905 29.0189 14.2905 30.3985H11.1285C11.1285 27.2753 13.6694 24.7345 16.7925 24.7345C19.9156 24.7345 22.4565 27.2752 22.4565 30.3985H19.2945C19.2946 29.0189 18.1722 27.8965 16.7925 27.8965ZM27.0001 44.1685C23.5674 44.1685 20.3495 42.329 18.6022 39.3679L21.3254 37.761C22.5067 39.7628 24.6811 41.0065 27.0001 41.0065C29.319 41.0065 31.4934 39.7628 32.6747 37.761L35.3979 39.3679C33.6506 42.329 30.4327 44.1685 27.0001 44.1685ZM39.7095 30.3985C39.7095 29.0189 38.5871 27.8965 37.2075 27.8965C35.828 27.8965 34.7055 29.0189 34.7055 30.3985H31.5435C31.5435 27.2753 34.0844 24.7345 37.2075 24.7345C40.3307 24.7345 42.8715 27.2752 42.8715 30.3985H39.7095Z" fill="white"/>
</svg>
