<svg width="14" height="20" viewBox="0 0 14 20" fill="none" xmlns="http://www.w3.org/2000/svg">
<path d="M13.2393 4.28962L10.2393 1.17706C10.2391 1.17691 10.239 1.17684 10.2389 1.1767C10.2215 1.15871 10.2033 1.14168 10.1843 1.12552C10.1756 1.11812 10.1665 1.1117 10.1576 1.10477C10.1469 1.09649 10.1365 1.08792 10.1254 1.08022C10.1147 1.07281 10.1036 1.06639 10.0926 1.05961C10.0826 1.05337 10.0728 1.04684 10.0624 1.04108C10.0513 1.03488 10.0398 1.02963 10.0284 1.02405C10.0176 1.01876 10.007 1.01318 9.99592 1.0084C9.98484 1.00366 9.97352 0.999791 9.96227 0.995633C9.95042 0.99122 9.93875 0.986515 9.92666 0.982721C9.91541 0.979183 9.90395 0.976593 9.89259 0.973639C9.88025 0.970393 9.86805 0.966818 9.8555 0.964228C9.84232 0.961529 9.82903 0.959888 9.81577 0.957918C9.80484 0.956313 9.79408 0.954125 9.78297 0.952994C9.73375 0.94796 9.68415 0.94796 9.63493 0.952994C9.62386 0.954125 9.6131 0.956277 9.60213 0.957918C9.58888 0.959888 9.57555 0.961493 9.5624 0.964228C9.54982 0.966818 9.53765 0.970393 9.52531 0.973639C9.51392 0.976593 9.5025 0.979183 9.49125 0.982721C9.47915 0.986515 9.46745 0.99122 9.45563 0.995633C9.44438 0.999828 9.43306 1.00366 9.42199 1.0084C9.41092 1.01314 9.40033 1.01876 9.38954 1.02405C9.37815 1.02963 9.36665 1.03488 9.35547 1.04108C9.34514 1.04684 9.33533 1.05337 9.32527 1.05961C9.31431 1.06639 9.30323 1.07281 9.29254 1.08022C9.28144 1.08792 9.27103 1.09649 9.26034 1.10477C9.25141 1.1117 9.24227 1.11812 9.23359 1.12552C9.2146 1.14168 9.19636 1.15871 9.17902 1.1767C9.17888 1.17684 9.17874 1.17691 9.17864 1.17706L6.17865 4.28959C5.88576 4.59346 5.88576 5.08617 6.17865 5.39004C6.47154 5.69392 6.94643 5.69392 7.23931 5.39004L8.95898 3.60586V12.6212C8.95898 13.0509 9.29476 13.3993 9.70897 13.3993C10.1232 13.3993 10.459 13.0509 10.459 12.6212V3.6059L12.1786 5.39008C12.4715 5.69395 12.9464 5.69395 13.2393 5.39008C13.5321 5.08617 13.5321 4.5935 13.2393 4.28962Z" fill="#676C6A"/>
<path d="M6.55363 15.1836L4.83396 16.9677V7.95244C4.83396 7.52269 4.49818 7.17432 4.08397 7.17432C3.66976 7.17432 3.33398 7.52269 3.33398 7.95244V16.9677L1.61431 15.1836C1.32143 14.8797 0.846536 14.8797 0.553649 15.1836C0.260763 15.4874 0.260763 15.9801 0.553649 16.284L3.55364 19.3965C3.55378 19.3967 3.55392 19.3968 3.55406 19.3969C3.57139 19.4149 3.58964 19.4319 3.60859 19.4481C3.61727 19.4555 3.62645 19.4619 3.63538 19.4689C3.64603 19.4771 3.65647 19.4857 3.66754 19.4934C3.67823 19.5008 3.68931 19.5072 3.70027 19.514C3.71033 19.5203 3.72014 19.5268 3.73047 19.5325C3.74165 19.5387 3.75315 19.544 3.76458 19.5495C3.77533 19.5548 3.78595 19.5604 3.79699 19.5652C3.80806 19.5699 3.81938 19.5738 3.83063 19.5779C3.84248 19.5823 3.85415 19.587 3.86625 19.5908C3.8775 19.5944 3.88892 19.597 3.90031 19.5999C3.91265 19.6032 3.92485 19.6067 3.93744 19.6093C3.95062 19.612 3.96391 19.6136 3.97717 19.6156C3.9881 19.6172 3.99889 19.6194 4.00997 19.6205C4.05918 19.6256 4.10879 19.6256 4.15801 19.6205C4.16908 19.6194 4.17984 19.6172 4.19081 19.6156C4.20406 19.6136 4.21739 19.612 4.23054 19.6093C4.24312 19.6067 4.25529 19.6031 4.26763 19.5999C4.27902 19.5969 4.29044 19.5943 4.30169 19.5908C4.31379 19.587 4.32549 19.5823 4.33731 19.5779C4.34856 19.5737 4.35988 19.5699 4.37095 19.5651C4.38199 19.5604 4.39257 19.5548 4.40333 19.5495C4.41475 19.5439 4.42629 19.5387 4.43747 19.5324C4.44777 19.5267 4.45758 19.5202 4.4676 19.514C4.47856 19.5072 4.48967 19.5007 4.50036 19.4933C4.51143 19.4856 4.52184 19.4771 4.53246 19.4689C4.54142 19.4619 4.5506 19.4554 4.55932 19.448C4.57813 19.432 4.59623 19.4151 4.61346 19.3973C4.61374 19.397 4.61402 19.3968 4.61427 19.3965L7.61425 16.284C7.90714 15.9801 7.90714 15.4874 7.61425 15.1835C7.32137 14.8796 6.84655 14.8797 6.55363 15.1836Z" fill="#676C6A"/>
</svg>
