<svg width="20" height="24" viewBox="0 0 20 24" fill="none" xmlns="http://www.w3.org/2000/svg">
<path d="M10.1382 0.792969C4.96318 0.792969 0.763184 4.84297 0.763184 9.83047C0.763184 13.618 5.78818 19.618 8.75068 22.843C9.12568 23.2555 9.61318 23.443 10.1382 23.443C10.6632 23.443 11.1507 23.218 11.5257 22.843C14.4882 19.618 19.5132 13.618 19.5132 9.83047C19.5132 4.84297 15.3132 0.792969 10.1382 0.792969ZM10.2882 21.718C10.2132 21.793 10.1007 21.793 9.98818 21.718C6.35068 17.743 2.45068 12.568 2.45068 9.83047C2.45068 5.78047 5.90068 2.48047 10.1382 2.48047C14.3757 2.48047 17.8257 5.78047 17.8257 9.83047C17.8257 12.568 13.9257 17.743 10.2882 21.718Z" fill="#676C6A"/>
<path d="M9.85117 6.00586C7.60117 6.00586 5.76367 7.84336 5.76367 10.0934C5.76367 12.3434 7.60117 14.2184 9.85117 14.2184C12.1012 14.2184 13.9387 12.3809 13.9387 10.1309C13.9387 7.88086 12.1012 6.00586 9.85117 6.00586ZM9.85117 12.5309C8.50117 12.5309 7.45117 11.4434 7.45117 10.1309C7.45117 8.81836 8.53867 7.73086 9.85117 7.73086C11.1637 7.73086 12.2512 8.81836 12.2512 10.1309C12.2512 11.4434 11.2012 12.5309 9.85117 12.5309Z" fill="#676C6A"/>
</svg>
