<svg width="33" height="40" viewBox="0 0 33 40" fill="none" xmlns="http://www.w3.org/2000/svg">
<path d="M14.0481 38.509L14.0477 38.5087C11.4576 35.689 7.96773 31.6583 5.12598 27.5062C3.70511 25.4302 2.44766 23.3258 1.54574 21.329C0.643268 19.3308 0.1 17.4473 0.1 15.811C0.1 7.14409 7.39962 0.1 16.4015 0.1C25.4034 0.1 32.703 7.14409 32.703 15.811C32.703 17.4473 32.1597 19.3308 31.2572 21.329C30.3553 23.3258 29.0979 25.4302 27.677 27.5062C24.8358 31.6575 21.3467 35.6876 18.7567 38.5071C18.1173 39.1458 17.2897 39.526 16.4015 39.526C15.5084 39.526 14.6834 39.2079 14.0481 38.509ZM16.7346 36.6788L16.7347 36.6789L16.7377 36.6756C19.9217 33.1962 23.2219 29.1902 25.7268 25.4534C26.9792 23.585 28.0341 21.782 28.7763 20.1444C29.5176 18.5085 29.9507 17.0293 29.9507 15.811C29.9507 8.66619 23.8659 2.85227 16.4015 2.85227C8.93705 2.85227 2.85227 8.66619 2.85227 15.811C2.85227 17.0293 3.28538 18.5085 4.02672 20.1444C4.76885 21.782 5.82376 23.585 7.07619 25.4534C9.58111 29.1902 12.8813 33.1962 16.0653 36.6756L16.0735 36.6846L16.0836 36.6913C16.3051 36.839 16.5584 36.855 16.7346 36.6788Z" fill="#09C47A" stroke="white" stroke-width="0.2"/>
<path d="M9.30557 16.2702C9.30557 12.3891 12.4755 9.21914 16.3566 9.21914C20.2366 9.21914 23.4077 12.4535 23.4077 16.3358C23.4077 20.2169 20.2377 23.3868 16.3566 23.3868C12.4767 23.3868 9.30557 20.1525 9.30557 16.2702ZM12.0578 16.3358C12.0578 18.6862 13.9386 20.6346 16.3566 20.6346C18.7747 20.6346 20.6554 18.6862 20.6554 16.3358C20.6554 13.9844 18.7081 12.037 16.3566 12.037C14.0052 12.037 12.0578 13.9844 12.0578 16.3358Z" fill="#09C47A" stroke="white" stroke-width="0.2"/>
</svg>
