<svg width="103" height="103" viewBox="0 0 103 103" fill="none" xmlns="http://www.w3.org/2000/svg">
<path d="M72.623 78.8594V86.9062C72.623 95.7806 65.4036 103 56.5293 103H16.0937C7.2194 103 0 95.7806 0 86.9062V16.0938C0 7.2194 7.2194 0 16.0937 0H56.5293C65.4036 0 72.623 7.2194 72.623 16.0938V24.1406C72.623 26.3629 70.8219 28.1641 68.5996 28.1641C66.3773 28.1641 64.5762 26.3629 64.5762 24.1406V16.0938C64.5762 11.657 60.9661 8.04688 56.5293 8.04688H16.0937C11.657 8.04688 8.04687 11.657 8.04687 16.0938V86.9062C8.04687 91.343 11.657 94.9531 16.0937 94.9531H56.5293C60.9661 94.9531 64.5762 91.343 64.5762 86.9062V78.8594C64.5762 76.6371 66.3773 74.8359 68.5996 74.8359C70.8219 74.8359 72.623 76.6371 72.623 78.8594ZM100.054 44.5886L91.0444 35.5791C89.4728 34.0075 86.9251 34.0075 85.3542 35.5791C83.7826 37.15 83.7826 39.6977 85.3542 41.2685L91.7627 47.6777H43.4531C41.2308 47.6777 39.4297 49.4789 39.4297 51.7012C39.4297 53.9235 41.2308 55.7246 43.4531 55.7246H91.7627L85.3542 62.1338C83.7826 63.7047 83.7826 66.2523 85.3542 67.8232C86.1401 68.609 87.1695 69.002 88.1989 69.002C89.2291 69.002 90.2586 68.609 91.0444 67.8232L100.054 58.8137C103.976 54.8916 103.976 48.5107 100.054 44.5886Z" fill="#09C47A"/>
</svg>
