<svg width="30" height="30" viewBox="0 0 30 30" fill="none" xmlns="http://www.w3.org/2000/svg">
<g clip-path="url(#clip0_1404_9450)">
<path d="M21.2892 28.5938C21.2892 28.9667 21.1411 29.3244 20.8774 29.5881C20.6136 29.8518 20.2559 30 19.883 30H6.62598C5.3832 29.9986 4.19173 29.5043 3.31296 28.6255C2.43418 27.7467 1.93987 26.5553 1.93848 25.3125V4.6875C1.93987 3.44473 2.43418 2.25325 3.31296 1.37448C4.19173 0.495704 5.3832 0.00139577 6.62598 0L19.883 0C20.2559 0 20.6136 0.148158 20.8774 0.411881C21.1411 0.675604 21.2892 1.03329 21.2892 1.40625C21.2892 1.77921 21.1411 2.1369 20.8774 2.40062C20.6136 2.66434 20.2559 2.8125 19.883 2.8125H6.62598C6.12886 2.81304 5.65226 3.01076 5.30075 3.36227C4.94924 3.71379 4.75152 4.19039 4.75098 4.6875V25.3125C4.7515 25.8096 4.94922 26.2862 5.30073 26.6377C5.65225 26.9893 6.12886 27.187 6.62598 27.1875H19.883C20.2559 27.1875 20.6136 27.3357 20.8774 27.5994C21.1411 27.8631 21.2892 28.2208 21.2892 28.5938ZM27.6498 14.0057L20.9671 7.32293C20.837 7.18995 20.6819 7.0841 20.5107 7.01149C20.3394 6.93889 20.1555 6.90097 19.9695 6.89994C19.7835 6.89891 19.5992 6.93479 19.4271 7.00549C19.2551 7.0762 19.0988 7.18033 18.9673 7.31186C18.8358 7.44338 18.7317 7.59969 18.661 7.77173C18.5903 7.94377 18.5544 8.12813 18.5555 8.31412C18.5565 8.50011 18.5945 8.68405 18.6671 8.85528C18.7397 9.02651 18.8456 9.18163 18.9786 9.31166L23.2604 13.5938H12.19C11.817 13.5938 11.4593 13.7419 11.1956 14.0056C10.9319 14.2694 10.7837 14.627 10.7837 15C10.7837 15.373 10.9319 15.7306 11.1956 15.9944C11.4593 16.2581 11.817 16.4062 12.19 16.4062H23.2604L18.9784 20.6883C18.8472 20.8187 18.7431 20.9738 18.6719 21.1446C18.6008 21.3153 18.564 21.4984 18.5638 21.6834C18.5635 21.8684 18.5998 22.0517 18.6704 22.2226C18.7411 22.3936 18.8448 22.5489 18.9757 22.6797C19.1065 22.8105 19.2618 22.9142 19.4328 22.9849C19.6037 23.0556 19.7869 23.0919 19.9719 23.0916C20.1569 23.0913 20.3401 23.0546 20.5108 22.9835C20.6816 22.9123 20.8366 22.8082 20.9671 22.677L27.6498 15.9944C27.9135 15.7307 28.0616 15.373 28.0616 15C28.0616 14.6271 27.9135 14.2694 27.6498 14.0057Z" fill="#09C47A"/>
</g>
<defs>
<clipPath id="clip0_1404_9450">
<rect width="30" height="30" fill="white"/>
</clipPath>
</defs>
</svg>
