<svg width="54" height="55" viewBox="0 0 54 55" fill="none" xmlns="http://www.w3.org/2000/svg">
<path d="M27 32.3511C23.8986 32.3511 21.375 34.8746 21.375 37.9761C21.375 41.0775 23.8986 43.6011 27 43.6011C30.1014 43.6011 32.625 41.0775 32.625 37.9761C32.625 34.8746 30.1014 32.3511 27 32.3511ZM29.25 39.1011H28.125V40.2261C28.125 40.8479 27.6213 41.3511 27 41.3511C26.3787 41.3511 25.875 40.8479 25.875 40.2261V39.1011H24.75C24.1287 39.1011 23.625 38.5979 23.625 37.9761C23.625 37.3543 24.1287 36.8511 24.75 36.8511H25.875V35.7261C25.875 35.1043 26.3787 34.6011 27 34.6011C27.6213 34.6011 28.125 35.1043 28.125 35.7261V36.8511H29.25C29.8718 36.8511 30.375 37.3543 30.375 37.9761C30.375 38.5979 29.8718 39.1011 29.25 39.1011Z" fill="white"/>
<path d="M46.5941 40.8391L39.0685 10.7366C38.4412 8.22785 36.1978 6.47607 33.6116 6.47607H19.3804C16.7509 6.47607 14.4388 8.341 13.8823 10.9113L7.40589 40.8391C6.89832 42.8694 7.34602 44.9809 8.63416 46.63C9.92176 48.2801 11.8614 49.2261 13.9543 49.2261H40.0452C42.1381 49.2261 44.0771 48.2801 45.3658 46.6311C46.6534 44.9809 47.1017 42.8705 46.5941 40.8391ZM31.5 10.9761C32.1214 10.9761 32.625 11.4797 32.625 12.1011C32.625 12.7224 32.1214 13.2261 31.5 13.2261C30.8787 13.2261 30.375 12.7224 30.375 12.1011C30.375 11.4797 30.8787 10.9761 31.5 10.9761ZM27 10.9761C27.6214 10.9761 28.125 11.4797 28.125 12.1011C28.125 12.7224 27.6214 13.2261 27 13.2261C26.3787 13.2261 25.875 12.7224 25.875 12.1011C25.875 11.4797 26.3787 10.9761 27 10.9761ZM22.5 10.9761C23.1214 10.9761 23.625 11.4797 23.625 12.1011C23.625 12.7224 23.1214 13.2261 22.5 13.2261C21.8787 13.2261 21.375 12.7224 21.375 12.1011C21.375 11.4797 21.8787 10.9761 22.5 10.9761ZM27 45.8511C22.6577 45.8511 19.125 42.3179 19.125 37.9761C19.125 33.6343 22.6577 30.1011 27 30.1011C31.3418 30.1011 34.875 33.6343 34.875 37.9761C34.875 42.3179 31.3418 45.8511 27 45.8511ZM34.875 17.7261V18.8511C34.875 23.1934 31.3418 26.7261 27 26.7261C22.6577 26.7261 19.125 23.1934 19.125 18.8511V17.7261C18.5037 17.7261 18 17.2224 18 16.6011C18 15.9798 18.5037 15.4761 19.125 15.4761H21.375C21.9963 15.4761 22.5 15.9798 22.5 16.6011C22.5 17.2224 21.9963 17.7261 21.375 17.7261V18.8511C21.375 21.9525 23.8986 24.4761 27 24.4761C30.1014 24.4761 32.625 21.9525 32.625 18.8511V17.7261C32.0032 17.7261 31.5 17.2224 31.5 16.6011C31.5 15.9798 32.0032 15.4761 32.625 15.4761H34.875C35.4968 15.4761 36 15.9798 36 16.6011C36 17.2224 35.4968 17.7261 34.875 17.7261Z" fill="white"/>
</svg>
