<svg width="72" height="72" viewBox="0 0 72 72" fill="none" xmlns="http://www.w3.org/2000/svg">
<g clip-path="url(#clip0_1747_9890)">
<path d="M36 0C16.1484 0 0 16.1484 0 36C0 55.8516 16.1484 72 36 72C55.8516 72 72 55.8488 72 36C72 16.1512 55.8516 0 36 0ZM36 66.423C19.227 66.423 5.57705 52.7759 5.57705 36C5.57705 19.2241 19.227 5.57705 36 5.57705C52.7759 5.57705 66.423 19.2241 66.423 36C66.423 52.7759 52.773 66.423 36 66.423Z" fill="#09C47A"/>
<path d="M52.9429 23.4794C51.8079 22.4477 50.0428 22.5285 49.0056 23.669L31.9954 42.3997L23.7776 34.0453C22.6928 32.9466 20.9305 32.9299 19.8346 34.0118C18.7359 35.091 18.7192 36.8561 19.8011 37.9548L30.088 48.4118C30.615 48.9472 31.3289 49.2456 32.0761 49.2456C32.0929 49.2456 32.1124 49.2456 32.1292 49.2484C32.8988 49.2317 33.6239 48.9026 34.1397 48.3338L53.1323 27.4197C54.1671 26.2763 54.0834 24.514 52.9429 23.4794Z" fill="#09C47A"/>
</g>
<defs>
<clipPath id="clip0_1747_9890">
<rect width="72" height="72" fill="white"/>
</clipPath>
</defs>
</svg>
