<svg width="24" height="20" viewBox="0 0 24 20" fill="none" xmlns="http://www.w3.org/2000/svg">
<path d="M21.0488 0.399902H2.9512C2.16875 0.400749 1.4186 0.711951 0.865322 1.26522C0.312048 1.8185 0.000847034 2.56866 0 3.3511V16.6487C0.000847034 17.4312 0.312048 18.1813 0.865322 18.7346C1.4186 19.2879 2.16875 19.5991 2.9512 19.5999H21.0488C21.8312 19.5991 22.5814 19.2879 23.1347 18.7346C23.688 18.1813 23.9992 17.4312 24 16.6487V3.3511C23.9992 2.56866 23.688 1.8185 23.1347 1.26522C22.5814 0.711951 21.8312 0.400749 21.0488 0.399902ZM2.9512 1.9999H21.0488C21.407 2.00033 21.7505 2.14282 22.0038 2.39613C22.2571 2.64943 22.3996 2.99287 22.4 3.3511V3.9631L12 10.6487L1.6 3.9631V3.3511C1.60042 2.99287 1.74292 2.64943 1.99623 2.39613C2.24953 2.14282 2.59297 2.00033 2.9512 1.9999ZM21.0488 17.9999H2.9512C2.59297 17.9995 2.24953 17.857 1.99623 17.6037C1.74292 17.3504 1.60042 17.0069 1.6 16.6487V5.8655L11.5672 12.2727C11.6963 12.3557 11.8465 12.3999 12 12.3999C12.1535 12.3999 12.3037 12.3557 12.4328 12.2727L22.4 5.8655V16.6487C22.3996 17.0069 22.2571 17.3504 22.0038 17.6037C21.7505 17.857 21.407 17.9995 21.0488 17.9999Z" fill="#232C28"/>
</svg>
