<svg width="44" height="44" viewBox="0 0 44 44" fill="none" xmlns="http://www.w3.org/2000/svg">
<g clip-path="url(#clip0_3216_21163)">
<path d="M38.9582 38.4H5.04178C2.31579 38.4 0.1 36.1842 0.1 33.4582V10.5418C0.1 7.81579 2.31579 5.6 5.04178 5.6H38.9582C41.6842 5.6 43.9 7.81579 43.9 10.5418V33.4582C43.9 36.1842 41.6842 38.4 38.9582 38.4ZM5.04178 8.15C3.72334 8.15 2.65 9.22334 2.65 10.5418V33.4582C2.65 34.7767 3.72334 35.85 5.04178 35.85H38.9582C40.2767 35.85 41.35 34.7767 41.35 33.4582V10.5418C41.35 9.22334 40.2767 8.15 38.9582 8.15H5.04178Z" fill="#09C47A" stroke="white" stroke-width="0.2"/>
<path d="M13.7502 21.8998C11.279 21.8998 9.26699 19.8874 9.26699 17.4166C9.26699 14.9454 11.279 12.933 13.7502 12.933C16.2214 12.933 18.2334 14.9454 18.2334 17.4166C18.2334 19.8874 16.2214 21.8998 13.7502 21.8998ZM13.7502 15.483C12.6849 15.483 11.817 16.3509 11.817 17.4166C11.817 18.4819 12.6849 19.3498 13.7502 19.3498C14.8155 19.3498 15.6834 18.4819 15.6834 17.4166C15.6834 16.3509 14.8156 15.483 13.7502 15.483Z" fill="#09C47A" stroke="white" stroke-width="0.2"/>
<path d="M20.625 31.0666C19.9212 31.0666 19.35 30.4953 19.35 29.7916V28.8748C19.35 27.5563 18.2767 26.483 16.9582 26.483H10.5418C9.22334 26.483 8.15 27.5563 8.15 28.8748V29.7916C8.15 30.4953 7.57877 31.0666 6.875 31.0666C6.17123 31.0666 5.6 30.4953 5.6 29.7916V28.8748C5.6 26.1488 7.81579 23.933 10.5418 23.933H16.9582C19.6842 23.933 21.9 26.1488 21.9 28.8748V29.7916C21.9 30.4953 21.3288 31.0666 20.625 31.0666Z" fill="#09C47A" stroke="white" stroke-width="0.2"/>
<path d="M37.1252 16.4H27.042C26.3382 16.4 25.767 15.8288 25.767 15.125C25.767 14.4212 26.3382 13.85 27.042 13.85H37.1252C37.829 13.85 38.4002 14.4212 38.4002 15.125C38.4002 15.8288 37.829 16.4 37.1252 16.4Z" fill="#09C47A" stroke="white" stroke-width="0.2"/>
<path d="M37.1252 23.733H27.042C26.3382 23.733 25.767 23.1618 25.767 22.458C25.767 21.7542 26.3382 21.183 27.042 21.183H37.1252C37.829 21.183 38.4002 21.7542 38.4002 22.458C38.4002 23.1618 37.829 23.733 37.1252 23.733Z" fill="#09C47A" stroke="white" stroke-width="0.2"/>
<path d="M37.1252 31.067H27.042C26.3382 31.067 25.767 30.4958 25.767 29.792C25.767 29.0882 26.3382 28.517 27.042 28.517H37.1252C37.829 28.517 38.4002 29.0882 38.4002 29.792C38.4002 30.4958 37.829 31.067 37.1252 31.067Z" fill="#09C47A" stroke="white" stroke-width="0.2"/>
</g>
<defs>
<clipPath id="clip0_3216_21163">
<rect width="44" height="44" fill="white"/>
</clipPath>
</defs>
</svg>
