<svg width="24" height="28" viewBox="0 0 24 28" fill="none" xmlns="http://www.w3.org/2000/svg">
<path d="M12.3683 1.63525C7.96644 1.63525 4.40185 5.19984 4.40185 9.60175V12.1137C4.40185 12.9271 4.06692 14.1472 3.64826 14.841L2.12912 17.3769C1.19611 18.9438 1.84204 20.6903 3.56453 21.2644C9.28222 23.1663 15.4664 23.1663 21.1841 21.2644C22.799 20.7261 23.4927 18.8362 22.6195 17.3769L21.1004 14.841C20.6817 14.1472 20.3468 12.9151 20.3468 12.1137V9.60175C20.3348 5.22377 16.7463 1.63525 12.3683 1.63525Z" stroke="#232C28" stroke-width="1.5" stroke-miterlimit="10" stroke-linecap="round"/>
<path d="M16.3278 22.3818C16.3278 24.5708 14.5336 26.3651 12.3446 26.3651C11.2561 26.3651 10.2513 25.9105 9.53357 25.1928C8.81587 24.4751 8.36133 23.4704 8.36133 22.3818" stroke="#232C28" stroke-width="1.5" stroke-miterlimit="10" stroke-linecap="round"/>
</svg>
