<svg width="64" height="64" viewBox="0 0 64 64" fill="none" xmlns="http://www.w3.org/2000/svg">
<path d="M27.33 32.5083H30.3771V35.5555H27.33V32.5083Z" fill="white"/>
<path d="M9.08667 29.4507H34.9818C35.5242 21.1713 43.6189 15.4304 51.7071 17.8082V15.7492C51.7071 14.9077 51.025 14.2256 50.1835 14.2256H36.4739V9.65489C36.4739 8.81344 35.7918 8.13135 34.9503 8.13135H22.7567C21.9153 8.13135 21.2332 8.81344 21.2332 9.65489V14.2256H7.52342C6.68197 14.2256 5.99988 14.9077 5.99988 15.7492V26.8242C6.24038 28.3113 7.53276 29.4507 9.08667 29.4507ZM24.2803 11.1784H33.4268V14.2256H24.2803V11.1784Z" fill="white"/>
<path d="M41.3976 41.5872C38.1732 39.6924 35.7841 36.4215 35.1318 32.4974H33.4243V37.0788C33.4243 37.9202 32.7423 38.6023 31.9008 38.6023H25.8065C24.9651 38.6023 24.283 37.9202 24.283 37.0788V32.4974H9.08667C7.96258 32.4974 6.90866 32.194 5.99988 31.667V51.6543C5.99988 52.4958 6.68197 53.1779 7.52342 53.1779H41.4558C41.3506 52.3759 41.4188 52.8749 41.3976 41.5872Z" fill="white"/>
<path d="M55.0742 23.2499C51.1733 19.349 44.8262 19.349 40.9253 23.2499C35.7903 28.3848 37.6944 37.1172 44.4448 39.6728V43.1782H51.5548V39.6728C58.3029 37.1181 60.2096 28.3854 55.0742 23.2499ZM47.9997 37.2775C47.9996 37.2775 47.9999 37.2775 47.9997 37.2775C44.1488 37.2775 41.0467 34.1766 41.0467 30.3245C41.0467 26.4733 44.1476 23.3715 47.9997 23.3715C51.8507 23.3715 54.9526 26.4724 54.9526 30.3245C54.9526 34.1753 51.8518 37.2775 47.9997 37.2775Z" fill="white"/>
<path d="M44.4448 52.3148C44.4448 54.275 46.0397 55.8698 47.9998 55.8698C49.9601 55.8698 51.5548 54.2749 51.5548 52.3148V46.2256H44.4448V52.3148Z" fill="white"/>
</svg>
