<svg width="15" height="19" viewBox="0 0 15 19" fill="none" xmlns="http://www.w3.org/2000/svg">
<path d="M7.25488 18.7135C7.11488 18.7135 6.97488 18.6368 6.83488 18.5601C6.62488 18.4068 0.254883 13.6535 0.254883 7.98014C0.254883 3.76348 3.40488 0.313477 7.25488 0.313477C11.1049 0.313477 14.2549 3.76348 14.2549 7.98014C14.2549 13.6535 7.88488 18.4068 7.67488 18.5601C7.53488 18.6368 7.39488 18.7135 7.25488 18.7135ZM7.25488 1.84681C4.17488 1.84681 1.65488 4.60681 1.65488 7.98014C1.65488 12.1201 5.92488 15.9535 7.25488 17.0268C8.58488 15.9535 12.8549 12.1201 12.8549 7.98014C12.8549 4.60681 10.3349 1.84681 7.25488 1.84681Z" fill="#09C47A"/>
<path d="M7.25483 11.0469C5.71483 11.0469 4.45483 9.66691 4.45483 7.98024C4.45483 6.29357 5.71483 4.91357 7.25483 4.91357C8.79483 4.91357 10.0548 6.29357 10.0548 7.98024C10.0548 9.66691 8.79483 11.0469 7.25483 11.0469ZM7.25483 6.44691C6.48483 6.44691 5.85483 7.13691 5.85483 7.98024C5.85483 8.82357 6.48483 9.51357 7.25483 9.51357C8.02483 9.51357 8.65483 8.82357 8.65483 7.98024C8.65483 7.13691 8.02483 6.44691 7.25483 6.44691Z" fill="#09C47A"/>
</svg>
