<svg width="17" height="18" viewBox="0 0 17 18" fill="none" xmlns="http://www.w3.org/2000/svg">
<path d="M10.7081 9.07105L7.47011 12.6174L5.80186 10.7903C5.57865 10.5458 5.21704 10.5458 4.99383 10.7903C4.77061 11.0348 4.77061 11.4308 4.99383 11.6753L7.06609 13.9449C7.1777 14.0672 7.3239 14.1283 7.47011 14.1283C7.61632 14.1283 7.76252 14.0672 7.87413 13.9449L11.5161 9.95604C11.7394 9.71157 11.7394 9.31552 11.5161 9.07105C11.2929 8.82658 10.9313 8.82658 10.7081 9.07105Z" fill="#09C47A"/>
<path d="M13.3977 1.4786H12.5406V0.877803C12.5406 0.53218 12.2847 0.251953 11.9692 0.251953C11.6536 0.251953 11.3977 0.53218 11.3977 0.877803V1.4786H5.11203V0.877803C5.11203 0.53218 4.85617 0.251953 4.5406 0.251953C4.22503 0.251953 3.96917 0.53218 3.96917 0.877803V1.4786H3.11203C1.53669 1.4786 0.254883 2.88248 0.254883 4.60785V14.6465C0.254883 16.3719 1.53669 17.7758 3.11203 17.7758H13.3977C14.9731 17.7758 16.2549 16.3719 16.2549 14.6465V4.60785C16.2549 2.88248 14.9731 1.4786 13.3977 1.4786ZM1.39774 4.60785C1.39774 3.5725 2.16671 2.7303 3.11203 2.7303H3.96917V3.33078C3.96917 3.67641 4.22503 3.95663 4.5406 3.95663C4.85617 3.95663 5.11203 3.67641 5.11203 3.33078V2.7303H11.3977V3.33078C11.3977 3.67641 11.6536 3.95663 11.9692 3.95663C12.2847 3.95663 12.5406 3.67641 12.5406 3.33078V2.7303H13.3977C14.3431 2.7303 15.112 3.5725 15.112 4.60785V5.23981H1.39774V4.60785ZM13.3977 16.5241H3.11203C2.16671 16.5241 1.39774 15.6819 1.39774 14.6465V6.49151H15.112V14.6465C15.112 15.6819 14.3431 16.5241 13.3977 16.5241Z" fill="#09C47A"/>
</svg>
