<svg width="53" height="54" viewBox="0 0 53 54" fill="none" xmlns="http://www.w3.org/2000/svg">
<path d="M52.0353 21.9311L47.3821 21.5181C46.8839 19.5593 46.0994 17.6957 45.0712 15.9486L48.071 12.3591C48.4208 11.9461 48.389 11.3213 48.0075 10.9296L42.4741 5.41292C42.082 5.02111 41.4672 4.98929 41.0433 5.34935L37.4604 8.34588C35.7009 7.30824 33.8353 6.5247 31.8848 6.027L31.4609 1.37861C31.4184 0.838598 30.9627 0.415039 30.4115 0.415039H22.5886C22.0374 0.415039 21.5816 0.838599 21.5286 1.37861L21.1152 6.027C19.1648 6.5247 17.2886 7.30824 15.5396 8.34588L11.9568 5.34935C11.5328 4.99992 10.918 5.02111 10.5258 5.41292L4.9926 10.9296C4.61102 11.3213 4.57923 11.9461 4.92903 12.3591L7.92885 15.9486C6.89003 17.6957 6.11621 19.5593 5.61798 21.5181L0.964671 21.9311C0.41344 21.9735 0 22.4394 0 22.9794V30.7938C0 31.3444 0.41344 31.7998 0.964671 31.8527L5.61798 32.2657C6.11621 34.214 6.89003 36.0882 7.92885 37.8353L4.92903 41.4143C4.57923 41.8378 4.61102 42.4625 4.9926 42.8437L10.5258 48.371C10.918 48.7628 11.5328 48.7839 11.9568 48.4346L15.5396 45.438C17.2992 46.4756 19.1648 47.2486 21.1152 47.7568L21.5286 52.3947C21.5816 52.9452 22.0374 53.3582 22.5886 53.3582H30.4115C30.9627 53.3582 31.4184 52.9452 31.4609 52.3947L31.8848 47.7568C33.8353 47.2486 35.7009 46.4756 37.4604 45.438L41.0433 48.4346C41.4672 48.7839 42.082 48.7628 42.4741 48.371L48.0075 42.8437C48.389 42.4625 48.4208 41.8378 48.071 41.4143L45.0712 37.8353C46.0994 36.0882 46.8839 34.214 47.3821 32.2657L52.0353 31.8527C52.576 31.7998 53 31.3444 53 30.7938V22.9794C53 22.4394 52.576 21.9735 52.0353 21.9311ZM26.5 39.9741C19.2814 39.9741 13.409 34.0975 13.409 26.8866C13.409 19.6758 19.2814 13.8097 26.5 13.8097C33.7185 13.8097 39.591 19.6758 39.591 26.8866C39.591 34.0975 33.7185 39.9741 26.5 39.9741Z" fill="white"/>
<path d="M27.7157 16.0069C25.8916 15.653 24.0273 16.1156 22.6126 17.2759C21.1969 18.4363 20.3846 20.1468 20.3846 21.9705C20.3846 22.5984 20.8956 23.1064 21.5271 23.1064C22.1586 23.1064 22.6695 22.5984 22.6695 21.9705C22.6695 20.8279 23.1783 19.7563 24.0663 19.0286C24.9656 18.291 26.1024 18.0092 27.2806 18.2366C28.77 18.525 29.966 19.7142 30.2561 21.1951C30.6053 22.9855 29.6926 24.7405 28.0359 25.4615C26.4093 26.1703 25.3583 27.8132 25.3583 29.648V30.2304C25.3583 30.8583 25.8693 31.3663 26.5007 31.3663C27.1322 31.3663 27.6432 30.8583 27.6432 30.2304V29.648C27.6432 28.7151 28.1575 27.8887 28.953 27.5425C31.5949 26.3911 33.0531 23.6034 32.4986 20.7625C32.0334 18.3808 30.1111 16.4695 27.7157 16.0069Z" fill="white"/>
<path d="M25.6316 35.6665C25.4118 35.8146 25.2769 36.0275 25.2769 36.2484C25.2769 36.4621 25.4118 36.675 25.6316 36.8303C25.8645 36.9784 26.1822 37.068 26.4999 37.068C26.8188 37.068 27.1365 36.9784 27.3683 36.8303C27.5892 36.675 27.723 36.4621 27.723 36.2484C27.723 36.0275 27.5892 35.8226 27.3683 35.6665C26.9168 35.3631 26.0842 35.3631 25.6316 35.6665Z" fill="white"/>
</svg>
