<svg width="18" height="18" viewBox="0 0 18 18" fill="none" xmlns="http://www.w3.org/2000/svg">
<path d="M9.225 17.5217C9.16875 17.5217 9.14062 17.5217 9.08437 17.5217C7.79062 17.5217 6.38438 16.9873 5.5125 16.1717C4.58438 15.2998 4.07812 14.1186 4.07812 12.9092V4.19045C4.07812 2.98108 4.66875 1.8842 5.70937 1.18108C6.72187 0.477951 7.9875 0.309201 9.16875 0.731076L9.225 0.759201C9.36562 0.815451 9.53438 0.843576 9.70312 0.956076C10.9969 1.63108 11.7844 2.84045 11.7844 4.21858V11.6717C11.7844 12.4311 11.5312 13.1342 11.0531 13.6967C10.9688 13.8092 10.9125 13.8655 10.8562 13.8936C10.3219 14.3717 9.70312 14.6248 9 14.6248C8.2125 14.6248 7.45313 14.2592 6.94688 13.6686C6.46875 13.1061 6.1875 12.3748 6.1875 11.6154V5.39983C6.1875 5.06233 6.46875 4.75295 6.83437 4.75295C7.2 4.75295 7.48125 5.0342 7.48125 5.39983V11.6436C7.48125 12.0936 7.65 12.5436 7.93125 12.8811C8.18438 13.1905 8.60625 13.3873 9 13.3873C9.36562 13.3873 9.675 13.2467 9.95625 12.9936C9.98438 12.9655 10.0125 12.9373 10.0687 12.8811C10.35 12.5436 10.5188 12.1217 10.5188 11.6717V4.19045C10.5188 3.29045 10.0125 2.50295 9.1125 2.05295L9.08437 2.02483C9.02812 1.9967 8.97188 1.96858 8.85938 1.94045L8.775 1.91233C7.95938 1.63108 7.11562 1.74358 6.4125 2.2217C5.70937 2.6717 5.34375 3.37483 5.34375 4.16233V12.8811C5.34375 13.7248 5.7375 14.5967 6.38438 15.2155C7.03125 15.8061 8.12813 16.228 9.1125 16.228C10.0688 16.2561 10.9688 15.8905 11.6719 15.2436C12.3469 14.5967 12.7125 13.753 12.6844 12.8811V6.10295C12.6844 5.76545 12.9656 5.45608 13.3313 5.45608C13.6969 5.45608 13.9781 5.73733 13.9781 6.10295V12.8811C14.0063 14.0905 13.5 15.2717 12.5719 16.1717C11.6438 17.0154 10.4344 17.5217 9.225 17.5217Z" fill="#637381"/>
</svg>
