<svg width="16" height="16" viewBox="0 0 16 16" fill="none" xmlns="http://www.w3.org/2000/svg">
<path d="M14.7931 1.20155C14.0096 0.417761 12.9864 0.0225875 11.9557 0.00101438C10.8711 -0.022729 9.78001 0.370231 8.9598 1.19183L1.6534 8.50094C0.587117 9.57196 0 10.9927 0 12.502V14.9204C0 15.5174 0.482416 16 1.07921 16H3.49667C5.00545 16 6.42571 15.4127 7.49737 14.3449L14.7941 7.04552C16.4021 5.43587 16.4021 2.81237 14.7931 1.20155ZM5.97249 12.8173C5.31092 13.477 4.43026 13.8408 3.49676 13.8408H2.15846V12.5021C2.15846 11.5682 2.52216 10.6872 3.18048 10.0265L7.9971 5.20807L10.788 7.99999L5.97249 12.8173ZM13.267 5.52008L12.314 6.47342L9.52314 3.6815L10.4761 2.72821C11.2467 1.95735 12.4986 1.95952 13.267 2.72821C14.0354 3.49794 14.0354 4.75031 13.267 5.52008Z" fill="#C9C9C9"/>
</svg>
