<svg width="34" height="34" viewBox="0 0 34 34" fill="none" xmlns="http://www.w3.org/2000/svg">
<path d="M33.65 25.296C33.3767 24.6868 32.9377 24.1665 32.383 23.7939L27.1234 20.0657C26.7079 19.7742 26.2624 19.5278 25.7946 19.3305C25.3029 19.1106 24.7656 19.0116 24.2277 19.0418C23.6898 19.0721 23.1669 19.2307 22.7031 19.5044C22.1756 19.7942 21.6951 20.1621 21.2778 20.5954L20.1359 21.6563C19.4801 21.2851 18.8659 20.8451 18.3035 20.344C17.5813 19.7321 16.8021 19.0127 15.8661 18.0941C15.1344 17.351 14.3996 16.5525 13.6283 15.6592C13.1455 15.1153 12.7115 14.5302 12.3312 13.9105C12.3201 13.8773 12.3074 13.8425 12.2916 13.8014L13.3717 12.682C13.7823 12.2823 14.1385 11.8304 14.4312 11.3381C14.7589 10.8167 14.9344 10.2144 14.938 9.59886C14.9281 9.1113 14.8204 8.63068 14.6213 8.18536C14.4203 7.70849 14.163 7.25731 13.8547 6.84143L10.1915 1.67917C9.80826 1.12251 9.28201 0.679058 8.66798 0.395318C8.10666 0.1322 7.4937 -0.00282531 6.87359 4.48146e-05C6.10165 0.0138516 5.3403 0.181852 4.63444 0.494135C3.92859 0.806418 3.29252 1.25666 2.76377 1.8183C1.84321 2.66752 1.1232 3.71035 0.655801 4.87139C0.216385 5.98328 -0.00616317 7.16875 0.000129821 8.36403C0.0325894 10.3035 0.452009 12.217 1.23387 13.9927C2.10451 15.9795 3.19001 17.8653 4.47105 19.6167C5.8504 21.4999 7.36981 23.2768 9.0164 24.9323C10.6771 26.5812 12.4591 28.1039 14.3473 29.4874C16.1117 30.7859 18.0181 31.8802 20.0298 32.7492C21.8017 33.541 23.7158 33.9665 25.6568 33.9999C26.8708 34.0064 28.074 33.7721 29.1965 33.3105C30.3579 32.8282 31.3933 32.0867 32.223 31.1428C32.7387 30.5777 33.1658 29.9381 33.49 29.2455C33.8239 28.5495 33.9981 27.7879 34 27.0162C33.9983 26.4253 33.8794 25.8406 33.65 25.296ZM31.3441 28.2226C31.1192 28.7051 30.8223 29.1507 30.4635 29.5443C29.8673 30.2251 29.1237 30.7615 28.289 31.1128C27.0926 31.5143 25.8277 31.6723 24.5691 31.5775C23.3104 31.4828 22.0836 31.1371 20.961 30.561C19.1154 29.7626 17.3663 28.758 15.7473 27.5664C13.9588 26.2587 12.2701 24.8202 10.6952 23.2627C9.13603 21.6963 7.6971 20.0151 6.39055 18.2332C5.21498 16.6278 4.21969 14.8982 3.42261 13.0757C2.76403 11.59 2.40817 9.98836 2.37575 8.36403C2.36974 7.46806 2.53587 6.57925 2.86513 5.74574C3.20796 4.8976 3.73603 4.13652 4.41086 3.51798C4.72288 3.17119 5.10185 2.8909 5.52505 2.69392C5.94824 2.49694 6.40693 2.38734 6.87359 2.37168C7.14726 2.36979 7.41786 2.42922 7.66546 2.5456C7.90377 2.65464 8.10795 2.82623 8.2562 3.04207L11.9337 8.22015C12.1367 8.49194 12.3063 8.78708 12.4389 9.09923C12.5124 9.25581 12.5559 9.42473 12.5672 9.59728C12.5599 9.79005 12.4984 9.9769 12.3898 10.1364C12.1919 10.4609 11.9529 10.7585 11.6787 11.0218L10.4877 12.2535C10.2923 12.4455 10.1379 12.6751 10.0339 12.9284C9.92992 13.1817 9.87849 13.4534 9.88271 13.7271C9.88572 13.9952 9.92733 14.2614 10.0062 14.5176L10.2042 14.992C10.6699 15.7841 11.2108 16.5296 11.8196 17.2181C12.6337 18.1573 13.4034 18.9921 14.181 19.7874C15.1756 20.763 15.9976 21.5266 16.7641 22.1701C17.4585 22.7793 18.2143 23.315 19.0193 23.7686L19.4406 23.9552C19.8304 24.0978 20.2523 24.129 20.6589 24.0452C21.0654 23.9614 21.4405 23.7659 21.7418 23.4809L22.9486 22.2887C23.2162 22.0075 23.5249 21.7681 23.864 21.5788C24.0063 21.4595 24.184 21.3905 24.3696 21.3825C24.5552 21.3745 24.7383 21.4279 24.8903 21.5345C25.1968 21.6662 25.4887 21.8294 25.7614 22.0215L31.0146 25.745C31.2045 25.8584 31.3587 26.0227 31.4597 26.2193C31.5684 26.4689 31.6255 26.7377 31.6275 27.0099C31.6249 27.4301 31.528 27.8445 31.3441 28.2226Z" fill="#000"/>
</svg>
