<svg width="22" height="27" viewBox="0 0 22 27" fill="none" xmlns="http://www.w3.org/2000/svg">
<path d="M12.0368 18.3413L11.9379 18.3993V18.5139V21.8952C11.9379 22.4236 11.5156 22.8476 11 22.8476C10.4844 22.8476 10.0621 22.4236 10.0621 21.8952V18.5139V18.3993L9.96316 18.3413C9.34238 17.9777 8.92414 17.2975 8.92414 16.5175C8.92414 15.3526 9.8559 14.4127 11 14.4127C12.1441 14.4127 13.0759 15.3526 13.0759 16.5175C13.0759 17.2975 12.6576 17.9777 12.0368 18.3413ZM17.2483 9.21905V9.41905H17.4483H17.8276C20.0191 9.41905 21.8 11.2189 21.8 13.4444V22.6635C21.8 24.889 20.0191 26.6889 17.8276 26.6889H4.17241C1.98088 26.6889 0.2 24.889 0.2 22.6635V13.4444C0.2 11.2189 1.98088 9.41905 4.17241 9.41905H4.55172H4.75172V9.21905V6.53016C4.75172 3.03172 7.55154 0.2 11 0.2C14.4485 0.2 17.2483 3.03172 17.2483 6.53016V9.21905ZM6.62759 9.21905V9.41905H6.82759H15.1724H15.3724V9.21905V6.53016C15.3724 4.08847 13.4172 2.10476 11 2.10476C8.58281 2.10476 6.62759 4.08847 6.62759 6.53016V9.21905ZM4.17241 11.3238C3.01215 11.3238 2.07586 12.2756 2.07586 13.4444V22.6635C2.07586 23.8323 3.01215 24.7841 4.17241 24.7841H17.8276C18.9879 24.7841 19.9241 23.8323 19.9241 22.6635V13.4444C19.9241 12.2756 18.9879 11.3238 17.8276 11.3238H4.17241Z" fill="#232C28" stroke="white" stroke-width="0.4" stroke-linecap="round"/>
</svg>
