<svg width="53" height="47" viewBox="0 0 53 47" fill="none" xmlns="http://www.w3.org/2000/svg">
<path fill-rule="evenodd" clip-rule="evenodd" d="M41.2044 37.7739V44.6739C41.2044 45.8226 40.3049 46.7621 39.2056 46.7621H29.2943V38.6136C30.8805 39.4496 32.6729 39.9211 34.5708 39.9211C37.0328 39.9211 39.3175 39.128 41.2044 37.7739ZM50.7694 45.6727L52.7453 43.5454C53.0924 43.1718 53.0835 42.5697 52.726 42.2073L47.2534 36.6597C46.8959 36.2972 46.3193 36.3063 45.9724 36.6798L45.8598 36.801L42.7359 33.634C43.8701 31.944 44.5362 29.886 44.5362 27.6653C44.5362 21.9159 40.0745 17.2549 34.5708 17.2549C29.0669 17.2549 24.6053 21.9159 24.6053 27.6653C24.6053 33.4148 29.067 38.0757 34.5708 38.0757C37.0421 38.0757 39.3031 37.1356 41.0445 35.5794L44.109 38.6859L43.9965 38.8071C43.6496 39.1806 43.6582 39.7829 44.0158 40.1454L49.4884 45.6927C49.846 46.055 50.4224 46.0461 50.7694 45.6727ZM34.5709 20.1899C38.5229 20.1899 41.7266 23.5367 41.7266 27.6652C41.7266 31.7937 38.5229 35.1405 34.5709 35.1405C30.6188 35.1405 27.4151 31.7937 27.4151 27.6652C27.4151 23.5367 30.6188 20.1899 34.5709 20.1899ZM23.0995 30.242C22.9292 29.4111 22.8388 28.5492 22.8388 27.6652C22.8388 22.413 26.0028 17.9326 30.4476 16.1887L23.9852 11.2839L6.76587 24.353V44.674C6.76587 45.8227 7.66533 46.7622 8.76463 46.7622H18.676V34.0856C18.676 31.9687 20.3288 30.242 22.3553 30.242H23.0995ZM5.56443 22.9837C3.99629 24.1709 1.80375 23.8051 0.667342 22.167C-0.468956 20.5288 -0.118935 18.2384 1.4492 17.0512L21.9276 1.50862C23.2083 0.53913 24.9053 0.605454 26.1036 1.55476L33.003 6.79126V3.31968C33.003 2.87501 33.3502 2.51225 33.7759 2.51225H36.7409C37.1665 2.51225 37.5138 2.8749 37.5138 3.31968V10.2148L46.5212 17.0511C48.0894 18.2383 48.4394 20.5286 47.303 22.1669C46.8621 22.8024 46.2622 23.2464 45.6014 23.4825C43.9646 18.7736 39.6435 15.4093 34.5709 15.4093C33.9146 15.4093 33.2712 15.4664 32.6443 15.5748L23.9852 9.00269L5.56443 22.9837Z" fill="white"/>
</svg>
