<svg width="50" height="52" viewBox="0 0 50 52" fill="none" xmlns="http://www.w3.org/2000/svg">
<path d="M25.1075 40.639C23.4192 40.639 22.0457 39.2655 22.0457 37.5773C22.0457 35.8891 23.4191 34.5156 25.1075 34.5156C26.7957 34.5156 28.1692 35.8891 28.1692 37.5773C28.1692 39.2655 26.7957 40.639 25.1075 40.639ZM25.1075 36.6726C24.6085 36.6726 24.2026 37.0785 24.2026 37.5773C24.2026 38.0763 24.6085 38.4821 25.1075 38.4821C25.6063 38.4821 26.0122 38.0762 26.0122 37.5773C26.0122 37.0784 25.6063 36.6726 25.1075 36.6726Z" fill="white"/>
<path d="M26.4128 26.4091C26.2629 26.4091 26.1105 26.3776 25.9653 26.3113C25.4236 26.0639 25.185 25.424 25.4325 24.8823C25.8993 23.8605 26.4465 22.839 27.0593 21.846C27.6458 20.8951 28.2816 19.9871 28.9489 19.1474C29.3195 18.6811 29.7981 19.0973 30.2645 19.4679C30.7308 19.8384 31.0082 20.0229 30.6377 20.4893C30.0234 21.2625 29.4371 22.1001 28.8951 22.9786C28.3291 23.8959 27.8242 24.8378 27.3944 25.7786C27.2132 26.1751 26.822 26.4091 26.4128 26.4091Z" fill="white"/>
<path d="M41.0569 16.7542C38.8686 16.7542 37.0884 14.974 37.0884 12.7858C37.0884 10.5977 38.8686 8.81738 41.0569 8.81738C43.245 8.81738 45.0253 10.5976 45.0253 12.7858C45.0252 14.974 43.245 16.7542 41.0569 16.7542ZM41.0569 10.9744C40.058 10.9744 39.2453 11.787 39.2453 12.7859C39.2453 13.7847 40.058 14.5973 41.0569 14.5973C42.0557 14.5973 42.8683 13.7847 42.8683 12.7859C42.8683 11.787 42.0556 10.9744 41.0569 10.9744Z" fill="white"/>
<path d="M38.0011 24.6738C35.5728 24.6739 33.2404 23.9477 31.2485 22.5703C29.4794 21.347 28.0916 19.6942 27.2013 17.7591H22.92L21.7544 19.7783C21.3815 20.4244 20.7133 20.8114 19.9672 20.8134C19.9652 20.8134 19.9633 20.8134 19.9612 20.8134C19.2175 20.8134 18.5498 20.4303 18.1743 19.788L17.6075 18.8182L17.0362 19.7961C16.661 20.4384 15.9927 20.8218 15.2489 20.8218C15.2488 20.8218 15.249 20.8218 15.2489 20.8218C14.5049 20.8218 13.8365 20.4383 13.4613 19.7959L12.8904 18.8185L12.3241 19.7876C11.9477 20.4318 11.2782 20.8184 10.5314 20.8132C9.78529 20.8111 9.11713 20.4243 8.74407 19.7781L7.57853 17.759H3.17334C2.76774 17.759 2.39645 17.5315 2.21232 17.17L0.229004 13.276C0.0724284 12.9686 0.0724284 12.6046 0.229004 12.2972L2.21232 8.40306C2.39635 8.04158 2.76774 7.81402 3.17334 7.81402H27.2014C28.0838 5.8959 29.456 4.25387 31.2035 3.03382C33.2032 1.63748 35.5539 0.899414 38.0017 0.899414C41.2085 0.899414 44.2146 2.15702 46.4664 4.44054C48.7176 6.72368 49.9327 9.74812 49.8878 12.9569C49.8442 16.064 48.5982 18.9917 46.3793 21.2009C44.1605 23.4098 41.2273 24.643 38.1199 24.6732C38.0803 24.6736 38.0406 24.6738 38.0011 24.6738ZM22.2973 15.6022H27.9159C28.3615 15.6022 28.7612 15.8763 28.9219 16.292C30.3755 20.0543 34.0642 22.5533 38.0989 22.5163C43.3365 22.4653 47.6575 18.1634 47.7309 12.9266C47.7678 10.2996 46.7732 7.82373 44.9305 5.95492C43.0873 4.08582 40.6266 3.05637 38.0017 3.05637C34.009 3.05637 30.3601 5.55794 28.922 9.28104C28.7614 9.69685 28.3617 9.97097 27.916 9.97097H3.83435L2.40037 12.7866L3.83435 15.6022H8.2014C8.58671 15.6022 8.94281 15.8078 9.13546 16.1414L10.5375 18.5703L11.9597 16.1365C12.153 15.8055 12.5076 15.6022 12.8908 15.6022H12.8909C13.2743 15.6022 13.6287 15.8057 13.822 16.1367L15.249 18.5796L16.6763 16.1366C16.8696 15.8057 17.224 15.6023 17.6074 15.6022C17.9906 15.6021 18.3452 15.8055 18.5386 16.1364L19.9613 18.5704L21.3634 16.1414C21.5559 15.8078 21.912 15.6022 22.2973 15.6022Z" fill="white"/>
<path d="M40.9105 23.7846C42.6972 18.6984 42.9592 15.7062 41.7597 14.0827C41.4058 13.6036 40.7305 13.5022 40.2514 13.8562C39.7724 14.2101 39.671 14.8854 40.0248 15.3645C40.3422 15.794 40.8655 17.4047 38.8758 23.0687C38.326 24.6289 37.5653 26.2011 36.6149 27.7417C35.953 28.8142 35.2349 29.811 34.4733 30.7187L26.4426 23.9432C25.6692 23.2906 24.5465 23.2906 23.773 23.943L10.7925 34.894C9.92033 35.6299 9.80934 36.9384 10.5451 37.8108L11.8238 39.3271C12.1803 39.7498 12.6802 40.0084 13.2312 40.0552C13.291 40.0603 13.3505 40.0628 13.4098 40.0628C13.8972 40.0628 14.3643 39.8927 14.7412 39.5747L14.8437 39.4882V49.0269C14.8437 50.1683 15.7723 51.097 16.9138 51.097H33.3014C34.4429 51.097 35.3715 50.1683 35.3715 49.0269V39.4882L35.4736 39.5743C35.8962 39.9309 36.4326 40.1018 36.9835 40.0548C37.5345 40.0081 38.0344 39.7495 38.391 39.3268L39.6696 37.8107C40.4054 36.9383 40.2943 35.6298 39.4221 34.8939L36.1219 32.1096C36.9518 31.121 37.7328 30.0374 38.4506 28.8743C39.4817 27.2028 40.3093 25.4908 40.9105 23.7846ZM13.4167 37.8701L12.2498 36.4866L25.1077 25.639L33.0067 32.3034C32.5497 32.7482 32.0896 33.1512 31.6292 33.509L25.803 28.5936C25.4012 28.2547 24.8138 28.2547 24.412 28.5936L13.4167 37.8701ZM33.2145 48.9401H17.0005V37.6685L25.1074 30.8289L29.7618 34.7556C28.2366 35.6416 26.8975 36.0968 25.6965 36.1383C25.1013 36.1588 24.6353 36.658 24.6559 37.2533C24.676 37.8359 25.1545 38.2946 25.7331 38.2946C25.7456 38.2946 25.7583 38.2945 25.7709 38.2941C27.5128 38.234 29.3936 37.5534 31.5002 36.2222L33.2146 37.6686L33.2145 48.9401ZM36.798 37.8698L33.3093 34.9265C33.7641 34.553 34.2159 34.1439 34.6626 33.7005L37.9648 36.4866L36.798 37.8698Z" fill="white"/>
</svg>
