<svg width="112" height="113" viewBox="0 0 112 113" fill="#000" xmlns="http://www.w3.org/2000/svg">
<g clip-path="url(#clip0_3148_18781)">
<path d="M56 0.5C25.0488 0.5 0 25.546 0 56.5C0 87.4507 25.046 112.5 56 112.5C86.9512 112.5 112 87.454 112 56.5C112 25.5488 86.954 0.5 56 0.5ZM56 104.686C29.4302 104.686 7.81397 83.07 7.81397 56.5C7.81397 29.93 29.4302 8.31397 56 8.31397C82.57 8.31397 104.186 29.93 104.186 56.5C104.186 83.07 82.57 104.686 56 104.686Z" fill="#000"/>
<path d="M54.3429 71.3584C51.2469 71.3584 48.7407 73.9383 48.7407 77.0341C48.7407 80.0566 51.1732 82.7102 54.3429 82.7102C57.5126 82.7102 60.0186 80.0566 60.0186 77.0341C60.0186 73.9383 57.4387 71.3584 54.3429 71.3584Z" fill="#000"/>
<path d="M55.3013 28.3838C45.3499 28.3838 40.7798 34.2811 40.7798 38.2614C40.7798 41.1363 43.2123 42.4632 45.2025 42.4632C49.1831 42.4632 47.5615 36.7871 55.0801 36.7871C58.7656 36.7871 61.7144 38.4089 61.7144 41.7997C61.7144 45.7801 57.5863 48.0652 55.1538 50.1291C53.016 51.9716 50.2151 54.9941 50.2151 61.3335C50.2151 65.1664 51.2472 66.2722 54.2692 66.2722C57.881 66.2722 58.6182 64.6506 58.6182 63.2497C58.6182 59.4168 58.6919 57.2054 62.7462 54.0357C64.7364 52.4879 71.0018 47.4752 71.0018 40.5463C71.0018 33.6174 64.7364 28.3838 55.3013 28.3838Z" fill="#000"/>
</g>
<defs>
<clipPath id="clip0_3148_18781">
<rect width="112" height="112" fill="#000" transform="translate(0 0.5)"/>
</clipPath>
</defs>
</svg>
