<svg xmlns="http://www.w3.org/2000/svg" xmlns:xlink="http://www.w3.org/1999/xlink" version="1.1" x="0px" y="0px" viewBox="0 0 100 125" enable-background="new 0 0 100 100" xml:space="preserve">
<path fill="red" d="M50,95c24.8,0,45-20.2,45-45S74.8,5,50,5S5,25.2,5,50S25.2,95,50,95z M50,15c19.3,0,35,15.7,35,35S69.3,85,50,85  S15,69.3,15,50S30.7,15,50,15z"/><polygon fill="red" points="35.9,71.2 50,57.1 64.1,71.2 71.2,64.1 57.1,50 71.2,35.9 64.1,28.8 50,42.9 35.9,28.8 28.8,35.9 42.9,50   28.8,64.1 "/>
</svg>