<svg width="27" height="27" viewBox="0 0 27 27" fill="none" xmlns="http://www.w3.org/2000/svg">
<path d="M16.8755 25.5438H10.1255C7.07685 25.5438 4.91317 24.8923 3.51069 23.4898C2.10821 22.0873 1.45674 19.9236 1.45674 16.875V10.125C1.45674 7.07636 2.10821 4.91268 3.51069 3.5102C4.91317 2.10772 7.07685 1.45625 10.1255 1.45625H16.8755C19.9241 1.45625 22.0878 2.10772 23.4903 3.5102C24.8928 4.91268 25.5442 7.07636 25.5442 10.125V16.875C25.5442 19.9236 24.8928 22.0873 23.4903 23.4898C22.0878 24.8923 19.9241 25.5438 16.8755 25.5438ZM10.1255 3.04375C7.52884 3.04375 5.75373 3.50511 4.62966 4.62918C3.5056 5.75325 3.04424 7.52835 3.04424 10.125V16.875C3.04424 19.4717 3.5056 21.2468 4.62966 22.3708C5.75373 23.4949 7.52884 23.9563 10.1255 23.9563H16.8755C19.4721 23.9563 21.2472 23.4949 22.3713 22.3708C23.4954 21.2468 23.9567 19.4717 23.9567 16.875V10.125C23.9567 7.52835 23.4954 5.75325 22.3713 4.62918C21.2472 3.50511 19.4721 3.04375 16.8755 3.04375H10.1255Z" fill="#232C28" stroke="white" stroke-width="0.1"/>
<path d="M7.76001 16.9259L7.75931 16.9254C7.4106 16.6612 7.34656 16.1641 7.61135 15.8144C7.61139 15.8143 7.61143 15.8142 7.61147 15.8142L10.2885 12.3386C10.2885 12.3385 10.2886 12.3385 10.2886 12.3384C10.607 11.9323 11.0565 11.6694 11.5717 11.6036L11.5718 11.6036C12.0759 11.5378 12.5912 11.6803 12.997 11.9984L15.0549 13.6177C15.1463 13.6956 15.2397 13.6974 15.3055 13.6852C15.3662 13.6835 15.4566 13.6526 15.5314 13.5531C15.5315 13.553 15.5315 13.5529 15.5316 13.5528L18.1299 10.2009L18.1302 10.2004C18.3946 9.85147 18.9023 9.78835 19.2401 10.0628L19.2414 10.0639C19.5901 10.328 19.654 10.8248 19.3786 11.1743L19.3784 11.1746L16.7798 14.5269C16.7797 14.5269 16.7797 14.527 16.7797 14.527C16.4612 14.9332 16.012 15.1958 15.4976 15.2505L15.4965 15.2507C14.9813 15.3164 14.4771 15.174 14.0713 14.8559C14.0712 14.8559 14.0712 14.8559 14.0712 14.8559L12.0133 13.2366C11.923 13.1597 11.8198 13.1564 11.7617 13.1691C11.701 13.1711 11.6112 13.2023 11.5368 13.3012C11.5368 13.3013 11.5367 13.3014 11.5366 13.3015L8.85951 16.7772L8.85938 16.7771L8.8572 16.7805C8.72152 16.9892 8.49107 17.0953 8.24662 17.0953C8.07737 17.0953 7.90835 17.0425 7.76001 16.9259Z" fill="#232C28" stroke="white" stroke-width="0.1"/>
</svg>
