<svg width="32" height="32" viewBox="0 0 32 32" fill="none" xmlns="http://www.w3.org/2000/svg">
<path d="M29.7999 14.8499C29.5999 14.4999 29.2999 14.2499 28.9499 14.0499L5.89994 1.14995C5.49994 0.949949 5.04994 0.849949 4.59994 0.899949C4.14994 0.949949 3.74994 1.09995 3.39994 1.39995C3.04994 1.69995 2.79994 2.09995 2.69994 2.49995C2.54994 2.94995 2.59994 3.39995 2.74994 3.84995L7.04994 15.9999L2.74994 28.1499C2.59994 28.5999 2.59994 29.0499 2.69994 29.4499C2.79994 29.9 3.04994 30.2499 3.39994 30.5499C3.74994 30.8499 4.14994 30.9999 4.59994 31.0499C4.64994 31.0499 4.74994 31.0499 4.79994 31.0499C5.14994 31.0499 5.54994 30.9499 5.89994 30.7499L28.9499 17.8499C29.2999 17.6499 29.5999 17.3999 29.7999 17.0499C29.9999 16.6999 30.0999 16.2999 30.0999 15.9499C30.0999 15.5999 29.9999 15.1999 29.7999 14.8499ZM4.89994 3.14995L25.7999 14.8499H9.04994L4.89994 3.14995ZM4.89994 28.8499L9.09994 17.1499H25.8499L4.89994 28.8499Z" fill="white"/>
</svg>
