<svg width="39" height="39" viewBox="0 0 39 39" fill="none" xmlns="http://www.w3.org/2000/svg">
<path d="M23.0828 23.1124C21.3256 22.8361 20.0906 21.2104 20.2866 19.4874C20.3131 19.2539 20.3662 19.0242 20.4448 18.8027C20.6476 18.2175 20.4389 17.5402 19.9368 17.1184C18.8748 16.2017 17.6708 15.4638 16.372 14.9334C16.0883 14.8135 15.7726 14.7916 15.475 14.8714C15.1774 14.9512 14.915 15.128 14.7293 15.3738C14.4829 15.6997 14.1737 15.9728 13.8199 16.1771C13.4662 16.3815 13.0751 16.5128 12.6697 16.5634C12.2644 16.614 11.853 16.5829 11.4599 16.4718C11.0668 16.3607 10.6999 16.172 10.381 15.9167C10.184 15.7585 10.0079 15.5761 9.85665 15.3738C9.67107 15.1285 9.40902 14.952 9.11191 14.8722C8.81481 14.7925 8.4996 14.814 8.2161 14.9334C7.01716 15.4215 5.89834 16.0869 4.89714 16.9074C4.36985 17.336 4.14928 18.0378 4.36391 18.6423C4.96249 20.2309 4.15448 22.0927 2.5117 22.7715C2.21893 22.893 1.91036 22.9723 1.59526 23.0069C1.27409 23.0451 0.972439 23.1811 0.731284 23.3966C0.490128 23.6121 0.321156 23.8967 0.24732 24.2115C-0.0533975 25.5466 -0.0801782 26.9289 0.168598 28.2746C0.232675 28.5994 0.398396 28.8953 0.641786 29.1196C0.885176 29.3439 1.19361 29.4849 1.52247 29.5223C3.28036 29.7072 4.58745 31.2609 4.47531 32.9898C4.45268 33.3378 4.3708 33.6794 4.2332 33.9998C3.97327 34.5999 4.17453 35.3285 4.71147 35.7718C5.7669 36.6737 6.95985 37.4008 8.24507 37.9256C8.40463 37.987 8.57327 38.0217 8.74414 38.0281C8.9756 38.0324 9.20442 37.9782 9.40931 37.8704C9.6142 37.7627 9.78852 37.6048 9.91606 37.4116C10.1896 37.0007 10.5587 36.6623 10.9919 36.4255C11.425 36.1887 11.9092 36.0606 12.4027 36.0522C12.8963 36.0438 13.3845 36.1553 13.8255 36.3773C14.2664 36.5992 14.6469 36.9248 14.9342 37.3262C15.1196 37.5893 15.3913 37.7792 15.7021 37.8629C16.0129 37.9466 16.3432 37.9189 16.6357 37.7845C17.8116 37.264 18.9054 36.575 19.8826 35.7392C20.3943 35.3069 20.6008 34.6155 20.3839 34.0229C19.766 32.4432 20.5532 30.5739 22.1886 29.8788C22.4652 29.7609 22.7565 29.6807 23.0545 29.6404C23.3711 29.5943 23.6659 29.4523 23.8992 29.2334C24.1326 29.0146 24.2932 28.7295 24.3594 28.4165C24.5003 27.7598 24.5766 27.091 24.5874 26.4195C24.5866 25.7116 24.5119 25.0057 24.3646 24.3133C24.2975 24.0069 24.1391 23.7281 23.9102 23.5137C23.6813 23.2993 23.3928 23.1594 23.0828 23.1124ZM16.3906 26.4195C16.3908 27.23 16.1505 28.0224 15.7003 28.6964C15.2501 29.3704 14.6101 29.8958 13.8613 30.2061C13.1125 30.5164 12.2885 30.5976 11.4936 30.4396C10.6986 30.2815 9.9683 29.8913 9.39511 29.3182C8.82192 28.7451 8.43155 28.0149 8.27336 27.22C8.11518 26.425 8.19629 25.601 8.50644 24.8521C8.81659 24.1033 9.34184 23.4632 10.0158 23.0129C10.6897 22.5626 11.482 22.3222 12.2926 22.3222C13.3776 22.3279 14.4165 22.7613 15.1838 23.5285C15.9511 24.2956 16.3848 25.3345 16.3906 26.4195Z" fill="white"/>
<path d="M36.8132 6.6793C35.3969 6.4565 34.401 5.14644 34.56 3.75766C34.5806 3.5694 34.6232 3.3842 34.687 3.20586C34.8503 2.73427 34.6825 2.1899 34.2778 1.84827C33.4213 1.10895 32.45 0.514199 31.4022 0.0874183C31.1731 -0.00911762 30.9183 -0.0262479 30.6783 0.038754C30.4383 0.103756 30.227 0.247154 30.078 0.446125C29.8793 0.7086 29.63 0.928615 29.3449 1.09319C29.0598 1.25776 28.7446 1.36355 28.418 1.40432C28.0913 1.4451 27.7598 1.42002 27.443 1.33058C27.1262 1.24114 26.8305 1.08914 26.5734 0.883554C26.4157 0.755688 26.2745 0.608756 26.153 0.446125C26.0036 0.248288 25.7924 0.10595 25.553 0.0416502C25.3135 -0.0226495 25.0595 -0.00523669 24.8311 0.0911316C23.8651 0.484236 22.9638 1.02051 22.1575 1.68192C21.7327 2.02726 21.5544 2.59317 21.7275 3.08035C22.2102 4.35996 21.5589 5.86089 20.2347 6.40823C19.9986 6.506 19.7498 6.57 19.4958 6.59835C19.2377 6.62869 18.9951 6.73755 18.801 6.91023C18.6068 7.0829 18.4703 7.31105 18.41 7.56382C18.1672 8.63995 18.1455 9.75418 18.3461 10.839C18.3986 11.1004 18.5325 11.3385 18.7286 11.5191C18.9247 11.6998 19.173 11.8137 19.4378 11.8445C20.8541 11.9931 21.9079 13.2467 21.8144 14.6407C21.7969 14.922 21.7316 15.1982 21.6213 15.4576C21.4118 15.9418 21.5745 16.5285 22.0075 16.8857C22.858 17.6119 23.8193 18.1974 24.8548 18.6199C24.9836 18.6691 25.1196 18.697 25.2574 18.7023C25.4439 18.7056 25.6283 18.6619 25.7934 18.575C25.9585 18.4882 26.0991 18.3611 26.202 18.2054C26.4224 17.8742 26.7199 17.6013 27.069 17.4104C27.4181 17.2195 27.8083 17.1162 28.2062 17.1094C28.604 17.1026 28.9975 17.1926 29.3529 17.3714C29.7084 17.5503 30.015 17.8128 30.2466 18.1364C30.396 18.3473 30.6141 18.4997 30.8636 18.5674C31.113 18.6351 31.3782 18.614 31.6138 18.5077C32.5621 18.0881 33.4442 17.5327 34.2325 16.859C34.6446 16.5107 34.811 15.9529 34.6357 15.4754C34.1381 14.2032 34.7724 12.6964 36.0906 12.1334C36.3137 12.0385 36.5485 11.9738 36.7887 11.9411C37.0438 11.9038 37.2814 11.7893 37.4696 11.613C37.6577 11.4367 37.7873 11.207 37.8411 10.9548C37.9546 10.4254 38.0161 9.88612 38.0245 9.34472C38.0238 8.77516 37.9641 8.2072 37.8463 7.64996C37.7916 7.4036 37.6636 7.17954 37.4793 7.00723C37.2949 6.83492 37.0627 6.72241 36.8132 6.6845V6.6793ZM31.4192 9.34472C31.4192 9.99792 31.2255 10.6365 30.8626 11.1796C30.4997 11.7227 29.9839 12.146 29.3805 12.396C28.777 12.6459 28.1129 12.7113 27.4723 12.5839C26.8317 12.4565 26.2432 12.1419 25.7813 11.68C25.3194 11.2182 25.0049 10.6297 24.8774 9.98903C24.75 9.34839 24.8154 8.68434 25.0654 8.08086C25.3154 7.47739 25.7387 6.96159 26.2818 6.59869C26.8249 6.23579 27.4634 6.0421 28.1166 6.0421C28.9911 6.04659 29.8286 6.39598 30.447 7.01437C31.0654 7.63277 31.4148 8.4702 31.4192 9.34472Z" fill="white"/>
<path d="M37.731 27.6939C37.3886 27.4004 37.1717 26.987 37.1247 26.5385C37.0777 26.09 37.2043 25.6405 37.4785 25.2825C37.5555 25.1847 37.6435 25.096 37.7406 25.0181C37.8662 24.9092 37.9561 24.7651 37.9987 24.6045C38.0413 24.4438 38.0347 24.2741 37.9798 24.1173C37.7559 23.4083 37.418 22.7406 36.9794 22.1403C36.8848 22.0076 36.7487 21.9102 36.5925 21.8635C36.4364 21.8169 36.2691 21.8236 36.1172 21.8826C35.9155 21.9611 35.7001 21.9983 35.4838 21.992C35.2674 21.9858 35.0545 21.9362 34.8577 21.8461C34.6609 21.7561 34.4842 21.6275 34.338 21.4679C34.1917 21.3083 34.079 21.121 34.0065 20.9171C33.9618 20.7913 33.9331 20.6603 33.9211 20.5272C33.9057 20.365 33.8367 20.2125 33.7249 20.0938C33.6131 19.9752 33.465 19.8972 33.304 19.8722C32.6277 19.7588 31.9383 19.7475 31.2587 19.8388C31.0878 19.8579 30.927 19.929 30.7978 20.0424C30.6685 20.1558 30.5772 20.3061 30.5361 20.473C30.3645 21.3553 29.4822 21.9702 28.5524 21.8187C28.3866 21.7927 28.2255 21.7426 28.0741 21.6702C27.9188 21.5981 27.745 21.5756 27.5765 21.6056C27.4079 21.6356 27.2526 21.7168 27.1317 21.838C26.6249 22.3563 26.2284 22.972 25.9665 23.6479C25.9051 23.8121 25.8976 23.9916 25.9449 24.1603C25.9923 24.3291 26.0922 24.4784 26.2301 24.5866C26.5849 24.8616 26.8207 25.2623 26.8888 25.706C26.9569 26.1496 26.8522 26.6026 26.5962 26.9713C26.4897 27.1221 26.3581 27.2535 26.2071 27.3597C26.0664 27.4651 25.9634 27.6131 25.9135 27.7817C25.8636 27.9503 25.8694 28.1305 25.9301 28.2955C26.1555 28.9952 26.4915 29.6544 26.9252 30.248C26.98 30.3199 27.0463 30.3824 27.1213 30.4329C27.2244 30.4992 27.3426 30.5384 27.4649 30.5468C27.5872 30.5553 27.7096 30.5327 27.8209 30.4812C28.0585 30.372 28.319 30.3222 28.5802 30.3359C28.8413 30.3496 29.0952 30.4265 29.32 30.5599C29.5449 30.6933 29.734 30.8794 29.8712 31.102C30.0084 31.3246 30.0895 31.5771 30.1075 31.838C30.1178 32.0076 30.1869 32.1683 30.3029 32.2923C30.419 32.4164 30.5747 32.496 30.7433 32.5175C31.4181 32.6101 32.1029 32.6038 32.7759 32.499C32.9443 32.4769 33.1019 32.404 33.2276 32.2898C33.3533 32.1756 33.4411 32.0258 33.4792 31.8603C33.6397 30.9773 34.5145 30.3527 35.4451 30.4945C35.6027 30.5179 35.7564 30.5629 35.9018 30.6282C36.0575 30.6955 36.23 30.7134 36.3961 30.6795C36.5622 30.6456 36.714 30.5616 36.8309 30.4388C37.077 30.1823 37.2974 29.9022 37.4889 29.6026C37.6856 29.2838 37.8483 28.9452 37.9746 28.5926C38.0297 28.4357 38.0359 28.2658 37.9924 28.1054C37.9489 27.9449 37.8578 27.8015 37.731 27.6939ZM33.7949 27.3226C33.5695 27.688 33.2408 27.9784 32.8503 28.1571C32.4599 28.3357 32.0253 28.3945 31.6014 28.3261C31.1775 28.2577 30.7834 28.0652 30.469 27.7728C30.1546 27.4804 29.9339 27.1013 29.8349 26.6836C29.7359 26.2658 29.763 25.828 29.9128 25.4256C30.0627 25.0232 30.3284 24.6743 30.6765 24.423C31.0247 24.1717 31.4395 24.0292 31.8686 24.0137C32.2977 23.9981 32.7217 24.1101 33.0871 24.3356C33.575 24.6401 33.923 25.1247 34.0555 25.6843C34.188 26.2439 34.0944 26.8332 33.7949 27.3241V27.3226Z" fill="white"/>
</svg>
