<svg width="29" height="29" viewBox="0 0 29 29" fill="none" xmlns="http://www.w3.org/2000/svg">
<path fill-rule="evenodd" clip-rule="evenodd" d="M14.822 10.8335C16.7427 10.8335 18.2992 12.3257 18.2992 14.1668C18.2992 16.008 16.7427 17.5002 14.822 17.5002C12.9013 17.5002 11.3447 16.008 11.3447 14.1668C11.3447 12.3257 12.9013 10.8335 14.822 10.8335Z" stroke="#232C28" stroke-width="1.5" stroke-linecap="round" stroke-linejoin="round"/>
<path fill-rule="evenodd" clip-rule="evenodd" d="M26.1836 7.83366V7.83366C25.2328 6.24399 23.1281 5.70005 21.483 6.61803C20.0521 7.41484 18.2639 6.41784 18.2639 4.8229C18.2639 2.98826 16.7225 1.5 14.8224 1.5V1.5C12.9222 1.5 11.3808 2.98826 11.3808 4.8229C11.3808 6.41784 9.59256 7.41484 8.16303 6.61803C6.51661 5.70005 4.41187 6.24399 3.46112 7.83366C2.51174 9.42333 3.07509 11.4555 4.72151 12.3722C6.15104 13.1703 6.15104 15.163 4.72151 15.9611C3.07509 16.8791 2.51174 18.9113 3.46112 20.4997C4.41187 22.0893 6.51661 22.6333 8.16166 21.7166H8.16303C9.59256 20.9185 11.3808 21.9155 11.3808 23.5104V23.5104C11.3808 25.3451 12.9222 26.8333 14.8224 26.8333V26.8333C16.7225 26.8333 18.2639 25.3451 18.2639 23.5104V23.5104C18.2639 21.9155 20.0521 20.9185 21.483 21.7166C23.1281 22.6333 25.2328 22.0893 26.1836 20.4997C27.1343 18.9113 26.5696 16.8791 24.9246 15.9611H24.9232C23.4937 15.163 23.4937 13.1703 24.9246 12.3722C26.5696 11.4555 27.1343 9.42333 26.1836 7.83366Z" stroke="#232C28" stroke-width="1.5" stroke-linecap="round" stroke-linejoin="round"/>
</svg>
