<svg width="24" height="25" viewBox="0 0 20 21" fill="none" xmlns="http://www.w3.org/2000/svg">
<g clip-path="url(#clip0_3475_16437)">
<path d="M15.105 12.2012C13.7149 12.2012 12.584 13.3321 12.584 14.7222C12.584 16.1123 13.7149 17.2432 15.105 17.2432C16.4954 17.2432 17.626 16.1123 17.626 14.7222C17.626 13.3321 16.4951 12.2012 15.105 12.2012ZM15.105 15.9827C14.4098 15.9827 13.8445 15.4173 13.8445 14.7222C13.8445 14.027 14.4098 13.4617 15.105 13.4617C15.8002 13.4617 16.3655 14.027 16.3655 14.7222C16.3655 15.4174 15.8002 15.9827 15.105 15.9827Z" fill="#09C47A"/>
<path d="M6.49172 12.2012C5.1016 12.2012 3.9707 13.3321 3.9707 14.7222C3.9707 16.1123 5.1016 17.2432 6.49172 17.2432C7.88184 17.2432 9.01273 16.1123 9.01273 14.7222C9.01273 13.3321 7.88184 12.2012 6.49172 12.2012ZM6.49172 15.9827C5.79656 15.9827 5.23121 15.4173 5.23121 14.7222C5.23121 14.027 5.79656 13.4617 6.49172 13.4617C7.18668 13.4617 7.75223 14.027 7.75223 14.7222C7.75223 15.4174 7.18688 15.9827 6.49172 15.9827Z" fill="#09C47A"/>
<path d="M16.8025 4.98574C16.6954 4.77293 16.4775 4.63867 16.2393 4.63867H12.9199V5.89918H15.8506L17.5668 9.31262L18.6932 8.74621L16.8025 4.98574Z" fill="#09C47A"/>
<path d="M13.2142 14.1133H8.44531V15.3738H13.2142V14.1133Z" fill="#09C47A"/>
<path d="M4.60121 14.1133H2.41637C2.06824 14.1133 1.78613 14.3954 1.78613 14.7435C1.78613 15.0916 2.06828 15.3738 2.41637 15.3738H4.60125C4.94938 15.3738 5.23148 15.0916 5.23148 14.7435C5.23148 14.3954 4.94934 14.1133 4.60121 14.1133Z" fill="#09C47A"/>
<path d="M19.868 10.2603L18.6284 8.66363C18.5093 8.50984 18.3254 8.41992 18.1307 8.41992H13.5508V4.00816C13.5508 3.66004 13.2687 3.37793 12.9206 3.37793H2.41637C2.06824 3.37793 1.78613 3.66008 1.78613 4.00816C1.78613 4.35625 2.06828 4.6384 2.41637 4.6384H12.2903V9.05016C12.2903 9.39828 12.5725 9.68039 12.9205 9.68039H17.822L18.7399 10.8627V14.1132H16.9962C16.648 14.1132 16.3659 14.3953 16.3659 14.7434C16.3659 15.0915 16.6481 15.3736 16.9962 15.3736H19.3701C19.7182 15.3736 20.0004 15.0915 20.0004 14.7434V10.6468C20.0004 10.5069 19.9538 10.3708 19.868 10.2603Z" fill="#09C47A"/>
<path d="M4.55871 10.9199H1.65953C1.31141 10.9199 1.0293 11.2021 1.0293 11.5502C1.0293 11.8983 1.31145 12.1804 1.65953 12.1804H4.55867C4.9068 12.1804 5.18891 11.8982 5.18891 11.5502C5.18895 11.2021 4.9068 10.9199 4.55871 10.9199Z" fill="#09C47A"/>
<path d="M6.0084 8.44043H0.630234C0.282148 8.44043 0 8.72258 0 9.0707C0 9.41883 0.282148 9.70094 0.630234 9.70094H6.0084C6.35652 9.70094 6.63863 9.41879 6.63863 9.0707C6.63863 8.72262 6.35652 8.44043 6.0084 8.44043Z" fill="#09C47A"/>
<path d="M7.0377 5.96191H1.65953C1.31141 5.96191 1.0293 6.24406 1.0293 6.59215C1.0293 6.94027 1.31145 7.22238 1.65953 7.22238H7.0377C7.38582 7.22238 7.66793 6.94023 7.66793 6.59215C7.66797 6.24406 7.38582 5.96191 7.0377 5.96191Z" fill="#09C47A"/>
</g>
<defs>
<clipPath id="clip0_3475_16437">
<rect width="30" height="30" fill="white" transform="translate(0 0.310547)"/>
</clipPath>
</defs>
</svg>
