<svg width="18" height="18" viewBox="0 0 18 18" fill="none" xmlns="http://www.w3.org/2000/svg">
<g clip-path="url(#clip0_3979_21123)">
<path d="M14.7803 3.21963L11.7803 0.219604C11.7801 0.219463 11.78 0.219393 11.7799 0.219252C11.7625 0.20192 11.7443 0.185502 11.7253 0.169928C11.7167 0.162791 11.7075 0.156604 11.6986 0.149924C11.6879 0.141943 11.6775 0.133682 11.6664 0.126264C11.6557 0.119127 11.6446 0.112939 11.6336 0.1064C11.6236 0.100389 11.6138 0.0940957 11.6034 0.088541C11.5923 0.0825645 11.5808 0.077502 11.5694 0.0721231C11.5586 0.0670254 11.548 0.0616465 11.5369 0.057041C11.5259 0.0524707 11.5145 0.0487441 11.5033 0.0447363C11.4914 0.0404824 11.4798 0.0359473 11.4677 0.032291C11.4564 0.0288809 11.445 0.0263848 11.4336 0.0235371C11.4213 0.0204082 11.4091 0.0169629 11.3965 0.0144668C11.3833 0.0118652 11.37 0.0102832 11.3568 0.00838477C11.3459 0.00683789 11.3351 0.00472852 11.324 0.00363867C11.2748 -0.00121289 11.2252 -0.00121289 11.1759 0.00363867C11.1649 0.00472852 11.1541 0.00680273 11.1431 0.00838477C11.1299 0.0102832 11.1166 0.0118301 11.1034 0.0144668C11.0908 0.0169629 11.0787 0.0204082 11.0663 0.0235371C11.0549 0.0263848 11.0435 0.0288809 11.0323 0.032291C11.0202 0.0359473 11.0085 0.0404824 10.9967 0.0447363C10.9854 0.0487793 10.9741 0.0524707 10.963 0.057041C10.9519 0.0616113 10.9413 0.0670254 10.9306 0.0721231C10.9192 0.077502 10.9077 0.0825645 10.8965 0.088541C10.8862 0.0940957 10.8763 0.100389 10.8663 0.1064C10.8553 0.112939 10.8442 0.119127 10.8336 0.126264C10.8225 0.133682 10.812 0.141943 10.8014 0.149924C10.7924 0.156604 10.7833 0.162791 10.7746 0.169928C10.7556 0.185502 10.7374 0.20192 10.72 0.219252C10.7199 0.219393 10.7198 0.219463 10.7197 0.219604L7.71967 3.21959C7.42678 3.51248 7.42678 3.98737 7.71967 4.28026C8.01255 4.57314 8.48744 4.57314 8.78033 4.28026L10.5 2.56059V11.2499C10.5 11.6642 10.8358 11.9999 11.25 11.9999C11.6642 11.9999 12 11.6642 12 11.2499V2.56062L13.7196 4.28029C14.0125 4.57318 14.4874 4.57318 14.7803 4.28029C15.0732 3.98737 15.0732 3.51251 14.7803 3.21963Z" fill="#232C28"/>
<path d="M8.09464 13.7196L6.37497 15.4393V6.74999C6.37497 6.33578 6.0392 6 5.62499 6C5.21077 6 4.875 6.33578 4.875 6.74999V15.4393L3.15533 13.7196C2.86244 13.4268 2.38755 13.4268 2.09467 13.7196C1.80178 14.0125 1.80178 14.4874 2.09467 14.7803L5.09465 17.7803C5.09479 17.7804 5.09493 17.7805 5.09508 17.7807C5.11241 17.798 5.13065 17.8144 5.1496 17.83C5.15829 17.8371 5.16746 17.8433 5.17639 17.85C5.18704 17.858 5.19749 17.8663 5.20856 17.8737C5.21925 17.8808 5.23032 17.887 5.24129 17.8935C5.25134 17.8995 5.26115 17.9058 5.27149 17.9114C5.28267 17.9173 5.29416 17.9224 5.30559 17.9278C5.31635 17.9329 5.32697 17.9383 5.33801 17.9428C5.34908 17.9474 5.3604 17.9511 5.37165 17.9551C5.3835 17.9594 5.39517 17.9639 5.40726 17.9676C5.41851 17.971 5.42994 17.9735 5.44133 17.9763C5.45367 17.9795 5.46587 17.9829 5.47845 17.9854C5.49164 17.988 5.50493 17.9895 5.51818 17.9914C5.52911 17.993 5.53991 17.9951 5.55098 17.9962C5.6002 18.001 5.64981 18.001 5.69902 17.9962C5.7101 17.9951 5.72086 17.993 5.73183 17.9914C5.74508 17.9895 5.7584 17.988 5.77155 17.9854C5.78414 17.9829 5.7963 17.9794 5.80864 17.9763C5.82003 17.9734 5.83146 17.9709 5.84271 17.9675C5.8548 17.9639 5.86651 17.9593 5.87832 17.9551C5.88957 17.951 5.90089 17.9474 5.91197 17.9428C5.923 17.9382 5.93359 17.9328 5.94434 17.9277C5.95577 17.9224 5.9673 17.9173 5.97848 17.9113C5.98878 17.9058 5.99859 17.8995 6.00861 17.8935C6.01958 17.887 6.03069 17.8807 6.04138 17.8736C6.05245 17.8662 6.06286 17.858 6.07347 17.85C6.08244 17.8433 6.09161 17.8371 6.10033 17.8299C6.11914 17.8145 6.13725 17.7982 6.15447 17.781C6.15476 17.7808 6.15504 17.7805 6.15528 17.7803L9.15527 14.7803C9.44816 14.4874 9.44816 14.0125 9.15527 13.7196C8.86238 13.4267 8.38756 13.4268 8.09464 13.7196Z" fill="#232C28"/>
</g>
<defs>
<clipPath id="clip0_3979_21123">
<rect width="18" height="18" fill="white"/>
</clipPath>
</defs>
</svg>
