<svg width="23" height="22" viewBox="0 0 23 22" fill="none" xmlns="http://www.w3.org/2000/svg">
<path d="M22.4817 7.93745C22.3932 7.66651 22.2307 7.42568 22.0127 7.24211C21.7946 7.05855 21.5296 6.93954 21.2475 6.8985L15.4117 6.05056L12.804 0.781379C12.6633 0.543353 12.463 0.346108 12.2228 0.209087C11.9827 0.072065 11.711 0 11.4345 0C11.158 0 10.8862 0.072065 10.6461 0.209087C10.4059 0.346108 10.2056 0.543353 10.0649 0.781379L7.45725 6.05056L1.63561 6.8985C1.35383 6.93981 1.08923 7.05909 0.871678 7.24287C0.654127 7.42665 0.492303 7.66761 0.404488 7.93852C0.316672 8.20943 0.306365 8.49949 0.37473 8.77595C0.443094 9.05241 0.587416 9.30425 0.791373 9.50301L5.01262 13.6187L4.01641 19.4229C3.96803 19.7039 3.99927 19.9928 4.10658 20.2569C4.2139 20.521 4.393 20.7498 4.62363 20.9174C4.85425 21.085 5.12719 21.1847 5.41153 21.2052C5.69588 21.2256 5.98028 21.1661 6.23255 21.0333L11.4326 18.2895L16.648 21.0333C16.8669 21.1488 17.1107 21.2091 17.3582 21.2091C17.6809 21.2082 17.9954 21.1067 18.2578 20.9188C18.4879 20.7512 18.6666 20.5226 18.7739 20.2589C18.8812 19.9952 18.9128 19.7068 18.8652 19.4261L17.8705 13.6219L22.0918 9.50617C22.2972 9.30751 22.4428 9.0551 22.5117 8.77773C22.5807 8.50036 22.5703 8.2092 22.4817 7.93745Z" fill="#09C47A"/>
</svg>
