<svg width="56" height="56" viewBox="0 0 56 56" fill="#000" xmlns="http://www.w3.org/2000/svg">
<path d="M55.865 22.7723C55.7057 22.3022 55.4133 21.8843 55.0209 21.5658C54.6284 21.2473 54.1515 21.0408 53.6439 20.9696L43.1414 19.4983L38.4485 10.3558C38.1953 9.94277 37.8349 9.60053 37.4027 9.36279C36.9705 9.12504 36.4815 9 35.9839 9C35.4863 9 34.9973 9.12504 34.5651 9.36279C34.1329 9.60053 33.7724 9.94277 33.5192 10.3558L28.8263 19.4983L18.3495 20.9696C17.8424 21.0413 17.3662 21.2483 16.9747 21.5671C16.5832 21.886 16.2919 22.3041 16.1339 22.7742C15.9759 23.2442 15.9573 23.7475 16.0804 24.2272C16.2034 24.7069 16.4631 25.1438 16.8302 25.4887L24.4269 32.6299L22.6341 42.7008C22.547 43.1883 22.6032 43.6895 22.7963 44.1478C22.9895 44.6061 23.3118 45.0031 23.7268 45.2938C24.1419 45.5846 24.6331 45.7576 25.1448 45.7931C25.6565 45.8287 26.1683 45.7254 26.6223 45.495L35.9806 40.7342L45.3663 45.495C45.7603 45.6953 46.1991 45.7999 46.6445 45.7999C47.2253 45.7984 47.7912 45.6223 48.2635 45.2964C48.6776 45.0054 48.9992 44.6089 49.1923 44.1513C49.3854 43.6937 49.4422 43.1933 49.3565 42.7063L47.5665 32.6354L55.1632 25.4942C55.533 25.1495 55.7949 24.7115 55.9189 24.2303C56.043 23.749 56.0243 23.2438 55.865 22.7723Z" fill="#000"/>
</svg>
