<svg width="23" height="22" viewBox="0 0 23 22" fill="none" xmlns="http://www.w3.org/2000/svg">
<path d="M21.6185 7.39379L21.6186 7.3938C21.8086 7.42137 21.9871 7.50146 22.1339 7.62506C22.2807 7.74857 22.3901 7.91058 22.4498 8.09286C22.5087 8.27494 22.5156 8.46988 22.4697 8.65569C22.4238 8.8417 22.3267 9.01114 22.1894 9.14486L22.1893 9.14496L17.9681 13.2607L17.7799 13.4441L17.8243 13.7031L18.819 19.5073L18.8191 19.5081C18.8518 19.6971 18.8308 19.8914 18.7587 20.0691C18.6866 20.2467 18.5661 20.4007 18.411 20.5134C18.2559 20.6261 18.0723 20.6932 17.881 20.7069C17.6897 20.7206 17.4984 20.6805 17.3288 20.591L17.3284 20.5908L12.1114 17.847L11.8783 17.7244L11.6454 17.8473L6.44595 20.5905C6.44565 20.5906 6.44536 20.5908 6.44506 20.5909C6.27533 20.6797 6.08422 20.7194 5.89316 20.7055C5.70177 20.6917 5.51805 20.6246 5.36274 20.5119L5.06915 20.9167L5.36274 20.5119C5.20741 20.3993 5.08663 20.2454 5.01403 20.0678C4.94151 19.8904 4.91993 19.6963 4.95169 19.5073C4.95173 19.5071 4.95177 19.5068 4.9518 19.5066L5.94778 13.7038L5.99225 13.4447L5.80404 13.2612L1.58279 9.14549L1.5827 9.14541C1.44553 9.01173 1.34847 8.84236 1.30249 8.65641C1.25651 8.47047 1.26344 8.27539 1.32251 8.09318C1.38157 7.91098 1.49041 7.74892 1.63672 7.62531C1.78302 7.50172 1.96096 7.4215 2.15044 7.39371C2.15047 7.3937 2.15049 7.3937 2.15052 7.3937L7.97221 6.54582L8.23188 6.508L8.34827 6.27282L10.9469 1.02186C11.0429 0.865109 11.1769 0.735043 11.3368 0.643862C11.5014 0.549903 11.6878 0.500488 11.8774 0.500488C12.0669 0.500488 12.2533 0.549903 12.418 0.643861C12.5778 0.735037 12.7118 0.865099 12.8078 1.02187L15.4064 6.27282L15.5229 6.5081L15.7827 6.54585L21.6185 7.39379Z" stroke="#707070"/>
</svg>
