<svg width="21" height="24" viewBox="0 0 21 24" fill="none" xmlns="http://www.w3.org/2000/svg">
<path d="M12.1145 21.75H4.0625C2.71838 21.75 1.625 20.6566 1.625 19.3125V4.6875C1.625 3.34338 2.71838 2.25 4.0625 2.25H15.4375C16.7816 2.25 17.875 3.34338 17.875 4.6875V16.3061C17.875 16.5233 17.9629 16.7182 18.1015 16.8639C18.2495 17.0194 18.4556 17.1186 18.6875 17.1186C19.1366 17.1186 19.5 16.7552 19.5 16.3061V4.6875C19.5 2.44757 17.6774 0.625 15.4375 0.625H4.0625C1.82257 0.625 0 2.44757 0 4.6875V19.3125C0 21.5524 1.82257 23.375 4.0625 23.375H12.1145C12.5636 23.375 12.927 23.0116 12.927 22.5625C12.927 22.3452 12.8391 22.1502 12.7004 22.0046C12.5525 21.8491 12.3463 21.75 12.1145 21.75Z" fill="#232C28"/>
<path d="M14.625 11.1875H4.875C4.4259 11.1875 4.0625 11.5513 4.0625 12C4.0625 12.4487 4.4259 12.8125 4.875 12.8125H14.625C15.0741 12.8125 15.4375 12.4487 15.4375 12C15.4375 11.5513 15.0741 11.1875 14.625 11.1875Z" fill="#232C28"/>
<path d="M14.625 7.125H4.875C4.4259 7.125 4.0625 7.4888 4.0625 7.9375C4.0625 8.3862 4.4259 8.75 4.875 8.75H14.625C15.0741 8.75 15.4375 8.3862 15.4375 7.9375C15.4375 7.4888 15.0741 7.125 14.625 7.125Z" fill="#232C28"/>
<path d="M14.625 15.25H4.875C4.4259 15.25 4.0625 15.6134 4.0625 16.0625C4.0625 16.5116 4.4259 16.875 4.875 16.875H14.625C15.0741 16.875 15.4375 16.5116 15.4375 16.0625C15.4375 15.6134 15.0741 15.25 14.625 15.25Z" fill="#232C28"/>
<path d="M14.2181 20.1641C14.0488 20.3334 13.9767 20.5578 13.988 20.7793C13.9979 20.9731 14.07 21.1649 14.2181 21.313L15.8645 22.9586C16.0232 23.1173 16.2311 23.1967 16.439 23.1967C16.6468 23.1967 16.8547 23.1173 17.0134 22.9586L19.9064 20.0657C20.2237 19.7483 20.2237 19.2341 19.9064 18.9167C19.589 18.5994 19.0748 18.5994 18.7574 18.9167L16.439 21.2352L15.367 20.1641C15.2281 20.0252 15.0502 19.9583 14.8689 19.9409C14.6359 19.9186 14.3966 19.9855 14.2181 20.1641Z" fill="#232C28"/>
</svg>
