<svg width="56" height="56" viewBox="0 0 56 56" fill="none" xmlns="http://www.w3.org/2000/svg">
<path d="M28 0C12.5599 0 0 12.5599 0 28C0 43.4401 12.5599 56 28 56C43.4401 56 56 43.438 56 28C56 12.562 43.4401 0 28 0ZM28 51.6623C14.9543 51.6623 4.3377 41.0479 4.3377 28C4.3377 14.9521 14.9543 4.3377 28 4.3377C41.0479 4.3377 51.6623 14.9521 51.6623 28C51.6623 41.0479 41.0457 51.6623 28 51.6623Z" fill="#09C47A"/>
<path d="M41.1779 18.2618C40.2951 17.4593 38.9222 17.5222 38.1155 18.4092L24.8854 32.9775L18.4937 26.4797C17.65 25.6251 16.2793 25.6121 15.427 26.4536C14.5724 27.293 14.5594 28.6658 15.4009 29.5204L23.4018 37.6536C23.8118 38.07 24.3669 38.3021 24.9482 38.3021C24.9612 38.3021 24.9764 38.3021 24.9894 38.3043C25.588 38.2913 26.1519 38.0353 26.5531 37.5929L41.3252 21.3265C42.13 20.4371 42.0649 19.0664 41.1779 18.2618Z" fill="#09C47A"/>
</svg>
