<svg width="40" height="39" viewBox="0 0 40 39" fill="none" xmlns="http://www.w3.org/2000/svg">
<g clip-path="url(#clip0_3216_21190)">
<path d="M19.715 19.1521C22.3621 19.1521 24.6539 18.243 26.5271 16.4491C28.3997 14.6556 29.3494 12.4611 29.3494 9.92588C29.3494 7.3915 28.4 5.19672 26.5268 3.40261C24.6536 1.60938 22.3618 0.700195 19.715 0.700195C17.0676 0.700195 14.776 1.60938 12.9031 3.4029C11.0303 5.19643 10.0806 7.39121 10.0806 9.92588C10.0806 12.4611 11.0303 14.6559 12.9031 16.4494C14.7766 18.2427 17.0685 19.1521 19.715 19.1521ZM14.5609 4.9901C15.9979 3.61391 17.6837 2.94495 19.715 2.94495C21.7459 2.94495 23.432 3.61391 24.8694 4.9901C26.3065 6.36659 27.0053 7.98126 27.0053 9.92588C27.0053 11.8711 26.3065 13.4855 24.8694 14.8619C23.432 16.2384 21.7459 16.9074 19.715 16.9074C17.6843 16.9074 15.9985 16.2381 14.5609 14.8619C13.1235 13.4858 12.4246 11.8711 12.4246 9.92588C12.4246 7.98126 13.1235 6.36659 14.5609 4.9901Z" fill="#09C47A"/>
<path d="M36.5726 30.1551C36.5186 29.4087 36.4093 28.5945 36.2485 27.7347C36.0861 26.8685 35.8771 26.0496 35.6268 25.3012C35.368 24.5276 35.0168 23.7637 34.5819 23.0316C34.1312 22.2717 33.6014 21.6101 33.0069 21.0656C32.3853 20.496 31.6241 20.0381 30.744 19.704C29.8669 19.3718 28.895 19.2034 27.8552 19.2034C27.4469 19.2034 27.052 19.3639 26.2894 19.8393C25.82 20.1325 25.271 20.4715 24.6582 20.8464C24.1342 21.1662 23.4244 21.4657 22.5476 21.7369C21.6922 22.002 20.8237 22.1364 19.9661 22.1364C19.1092 22.1364 18.2407 22.002 17.3846 21.7369C16.5088 21.466 15.7986 21.1664 15.2756 20.8467C14.6686 20.4753 14.1193 20.1363 13.6429 19.8391C12.8809 19.3636 12.486 19.2031 12.0776 19.2031C11.0376 19.2031 10.0659 19.3718 9.18915 19.7043C8.30963 20.0378 7.54822 20.4957 6.92596 21.0659C6.33148 21.6107 5.8017 22.272 5.35126 23.0316C4.91699 23.7637 4.56543 24.5273 4.30664 25.3015C4.0567 26.0499 3.84766 26.8685 3.6853 27.7347C3.52417 28.5933 3.41522 29.4078 3.36121 30.156C3.30811 30.8875 3.28125 31.6488 3.28125 32.418C3.28125 34.4176 3.94501 36.0363 5.25391 37.2301C6.54663 38.4082 8.25684 39.0056 10.3372 39.0056H29.5975C31.6772 39.0056 33.3875 38.4082 34.6805 37.2301C35.9897 36.0372 36.6534 34.4178 36.6534 32.4177C36.6531 31.6459 36.626 30.8846 36.5726 30.1551ZM33.0643 35.6038C32.2101 36.3823 31.076 36.7608 29.5972 36.7608H10.3372C8.85803 36.7608 7.724 36.3823 6.87012 35.6041C6.03241 34.8404 5.62531 33.798 5.62531 32.418C5.62531 31.7002 5.65002 30.9915 5.69946 30.3112C5.74768 29.6437 5.84625 28.9104 5.99243 28.1313C6.13678 27.3618 6.3205 26.6397 6.539 25.9859C6.74866 25.359 7.03461 24.7383 7.38922 24.1404C7.72766 23.5705 8.11707 23.0815 8.54675 22.6876C8.94867 22.3191 9.45526 22.0175 10.0522 21.7913C10.6042 21.582 11.2247 21.4675 11.8982 21.4502C11.9803 21.492 12.1265 21.5718 12.3633 21.7197C12.8452 22.0204 13.4006 22.3635 14.0146 22.739C14.7067 23.1616 15.5984 23.5433 16.6638 23.8727C17.753 24.2099 18.8638 24.3812 19.9664 24.3812C21.069 24.3812 22.1802 24.2099 23.2687 23.873C24.335 23.543 25.2264 23.1616 25.9195 22.7384C26.5479 22.3539 27.0877 22.0207 27.5696 21.7197C27.8064 21.5721 27.9526 21.492 28.0347 21.4502C28.7085 21.4675 29.3289 21.582 29.8813 21.7913C30.4779 22.0175 30.9845 22.3194 31.3864 22.6876C31.8161 23.0813 32.2055 23.5702 32.5439 24.1407C32.8989 24.7383 33.1851 25.3593 33.3945 25.9856C33.6133 26.6403 33.7973 27.3621 33.9413 28.131C34.0872 28.9116 34.1861 29.6451 34.2343 30.3115V30.3121C34.2841 30.9898 34.3091 31.6982 34.3094 32.418C34.3091 33.7983 33.902 34.8404 33.0643 35.6038Z" fill="#09C47A"/>
</g>
<defs>
<clipPath id="clip0_3216_21190">
<rect width="40" height="38.3056" fill="white" transform="translate(0 0.700195)"/>
</clipPath>
</defs>
</svg>
