<svg width="20" height="21" viewBox="0 0 20 21" fill="none" xmlns="http://www.w3.org/2000/svg">
<g clip-path="url(#clip0_3840_23180)">
<path d="M15.105 12.2013C13.7149 12.2013 12.584 13.3322 12.584 14.7223C12.584 16.1124 13.7149 17.2433 15.105 17.2433C16.4954 17.2433 17.626 16.1124 17.626 14.7223C17.626 13.3322 16.4951 12.2013 15.105 12.2013ZM15.105 15.9828C14.4098 15.9828 13.8445 15.4175 13.8445 14.7223C13.8445 14.0272 14.4098 13.4618 15.105 13.4618C15.8002 13.4618 16.3655 14.0272 16.3655 14.7223C16.3655 15.4175 15.8002 15.9828 15.105 15.9828Z" fill="#09C47A"/>
<path d="M6.49172 12.2013C5.1016 12.2013 3.9707 13.3322 3.9707 14.7223C3.9707 16.1124 5.1016 17.2433 6.49172 17.2433C7.88184 17.2433 9.01273 16.1124 9.01273 14.7223C9.01273 13.3322 7.88184 12.2013 6.49172 12.2013ZM6.49172 15.9828C5.79656 15.9828 5.23121 15.4175 5.23121 14.7223C5.23121 14.0272 5.79656 13.4618 6.49172 13.4618C7.18668 13.4618 7.75223 14.0272 7.75223 14.7223C7.75223 15.4175 7.18688 15.9828 6.49172 15.9828Z" fill="#09C47A"/>
<path d="M16.8025 4.98535C16.6954 4.77253 16.4775 4.63828 16.2393 4.63828H12.9199V5.89878H15.8506L17.5668 9.31222L18.6932 8.74581L16.8025 4.98535Z" fill="#09C47A"/>
<path d="M13.2142 14.1131H8.44531V15.3736H13.2142V14.1131Z" fill="#09C47A"/>
<path d="M4.60072 14.1131H2.41588C2.06775 14.1131 1.78564 14.3952 1.78564 14.7433C1.78564 15.0915 2.06779 15.3736 2.41588 15.3736H4.60076C4.94889 15.3736 5.231 15.0914 5.231 14.7433C5.231 14.3952 4.94885 14.1131 4.60072 14.1131Z" fill="#09C47A"/>
<path d="M19.8676 10.2601L18.6279 8.66348C18.5088 8.50969 18.3249 8.41977 18.1302 8.41977H13.5503V4.00801C13.5503 3.65989 13.2682 3.37778 12.9201 3.37778H2.41588C2.06775 3.37778 1.78564 3.65993 1.78564 4.00801C1.78564 4.3561 2.06779 4.63825 2.41588 4.63825H12.2898V9.05C12.2898 9.39813 12.572 9.68024 12.9201 9.68024H17.8215L18.7394 10.8626V14.113H16.9957C16.6476 14.113 16.3654 14.3952 16.3654 14.7432C16.3654 15.0914 16.6476 15.3735 16.9957 15.3735H19.3696C19.7178 15.3735 19.9999 15.0913 19.9999 14.7432V10.6467C19.9999 10.5068 19.9533 10.3706 19.8676 10.2601Z" fill="#09C47A"/>
<path d="M4.55871 10.9198H1.65953C1.31141 10.9198 1.0293 11.2019 1.0293 11.55C1.0293 11.8982 1.31145 12.1803 1.65953 12.1803H4.55867C4.9068 12.1803 5.18891 11.8981 5.18891 11.55C5.18895 11.2019 4.9068 10.9198 4.55871 10.9198Z" fill="#09C47A"/>
<path d="M6.0084 8.4408H0.630234C0.282148 8.4408 0 8.72294 0 9.07107C0 9.41919 0.282148 9.7013 0.630234 9.7013H6.0084C6.35652 9.7013 6.63863 9.41916 6.63863 9.07107C6.63863 8.72298 6.35652 8.4408 6.0084 8.4408Z" fill="#09C47A"/>
<path d="M7.0377 5.96179H1.65953C1.31141 5.96179 1.0293 6.24394 1.0293 6.59203C1.0293 6.94015 1.31145 7.22226 1.65953 7.22226H7.0377C7.38582 7.22226 7.66793 6.94011 7.66793 6.59203C7.66797 6.24394 7.38582 5.96179 7.0377 5.96179Z" fill="#09C47A"/>
</g>
<defs>
<clipPath id="clip0_3840_23180">
<rect width="20" height="20" fill="white" transform="translate(0 0.310547)"/>
</clipPath>
</defs>
</svg>
