<svg width="54" height="54" viewBox="0 0 54 54" fill="none" xmlns="http://www.w3.org/2000/svg">
<path fill-rule="evenodd" clip-rule="evenodd" d="M6.94312 36.2662C6.94312 33.6376 9.04478 31.5068 11.6373 31.5068H42.3629C44.9556 31.5068 47.0572 33.6376 47.0572 36.2662V43.1888C47.0572 45.8173 44.9556 47.9481 42.3629 47.9481H11.6373C9.04478 47.9481 6.94312 45.8173 6.94312 43.1888V36.2662ZM11.6373 34.1028C10.4589 34.1028 9.5036 35.0713 9.5036 36.2662V43.1888C9.5036 44.3836 10.4589 45.352 11.6373 45.352H42.3629C43.5414 45.352 44.4966 44.3836 44.4966 43.1888V36.2662C44.4966 35.0713 43.5414 34.1028 42.3629 34.1028H11.6373Z" fill="white"/>
<path fill-rule="evenodd" clip-rule="evenodd" d="M10.3569 45.3521H19.7454V48.3808C19.7454 51.0092 17.6436 53.14 15.0511 53.14C12.4587 53.14 10.3569 51.0092 10.3569 48.3808V45.3521ZM12.9174 47.9482V48.3808C12.9174 49.5755 13.8727 50.5441 15.0511 50.5441C16.2296 50.5441 17.1848 49.5755 17.1848 48.3808V47.9482H12.9174Z" fill="white"/>
<path fill-rule="evenodd" clip-rule="evenodd" d="M34.2549 45.3521H43.6434V48.3808C43.6434 51.0092 41.5416 53.14 38.9491 53.14C36.3567 53.14 34.2549 51.0092 34.2549 48.3808V45.3521ZM36.8154 47.9482V48.3808C36.8154 49.5755 37.7707 50.5441 38.9491 50.5441C40.1276 50.5441 41.0828 49.5755 41.0828 48.3808V47.9482H36.8154Z" fill="white"/>
<path fill-rule="evenodd" clip-rule="evenodd" d="M13.163 21.2666C13.6854 19.1478 15.5629 17.6616 17.717 17.6616H36.2836C38.4378 17.6616 40.3153 19.1478 40.8377 21.2666L44.0029 34.1027H9.9978L13.163 21.2666ZM17.717 20.2575C16.7379 20.2575 15.8845 20.9333 15.647 21.8962L13.2771 31.5068H40.7235L38.3537 21.8962C38.1161 20.9333 37.2628 20.2575 36.2836 20.2575H17.717Z" fill="white"/>
<path d="M40.6561 39.7273C40.6561 41.161 39.5097 42.3232 38.0955 42.3232C36.6815 42.3232 35.5352 41.161 35.5352 39.7273C35.5352 38.2936 36.6815 37.1313 38.0955 37.1313C39.5097 37.1313 40.6561 38.2936 40.6561 39.7273Z" fill="white"/>
<path d="M18.4652 39.7273C18.4652 41.161 17.3188 42.3232 15.9048 42.3232C14.4906 42.3232 13.3442 41.161 13.3442 39.7273C13.3442 38.2936 14.4906 37.1313 15.9048 37.1313C17.3188 37.1313 18.4652 38.2936 18.4652 39.7273Z" fill="white"/>
<path fill-rule="evenodd" clip-rule="evenodd" d="M8.7666 7.74141C8.7666 4.15711 11.6325 1.25146 15.1677 1.25146C18.2647 1.25146 20.8479 3.4811 21.441 6.44343H31.8109V3.41478C31.8109 2.69792 32.3841 2.1168 33.091 2.1168C33.7982 2.1168 34.3714 2.69792 34.3714 3.41478V6.44343H39.0655C39.3013 6.44343 39.4923 6.24971 39.4923 6.01076V3.41478C39.4923 2.69792 40.0654 2.1168 40.7725 2.1168C41.4796 2.1168 42.0527 2.69792 42.0527 3.41478V6.01076C42.0527 7.68343 40.7153 9.03941 39.0655 9.03941H21.441C20.8479 12.0017 18.2647 14.2313 15.1677 14.2313C11.6325 14.2313 8.7666 11.3257 8.7666 7.74141ZM15.1677 3.84745C13.0466 3.84745 11.3271 5.59084 11.3271 7.74141C11.3271 9.892 13.0466 11.6354 15.1677 11.6354C17.289 11.6354 19.0085 9.892 19.0085 7.74141C19.0085 5.59084 17.289 3.84745 15.1677 3.84745Z" fill="white"/>
</svg>
