<svg width="87" height="87" viewBox="0 0 87 87" fill="none" xmlns="http://www.w3.org/2000/svg">
<g clip-path="url(#clip0_2510_26659)">
<path d="M43.5 87C19.5131 87 0 67.4869 0 43.5C0 19.5131 19.5131 0 43.5 0C67.4869 0 87 19.5131 87 43.5C87 67.4869 67.4869 87 43.5 87ZM43.5 5.4375C22.5113 5.4375 5.4375 22.5113 5.4375 43.5C5.4375 64.4887 22.5113 81.5625 43.5 81.5625C64.4887 81.5625 81.5625 64.4887 81.5625 43.5C81.5625 22.5113 64.4887 5.4375 43.5 5.4375Z" fill="#09C47A"/>
<path d="M39.4219 57.9998C38.7256 57.9998 38.03 57.7356 37.5003 57.2026L25.7193 45.4216C24.6573 44.3589 24.6573 42.6371 25.7193 41.5751C26.7813 40.5131 28.5031 40.5131 29.5657 41.5751L39.4252 51.4352L61.067 29.7941C62.129 28.7321 63.8508 28.7321 64.9128 29.7941C65.9748 30.8561 65.9748 32.5779 64.9128 33.6399L41.3501 57.2026C40.8138 57.7356 40.1182 57.9998 39.4219 57.9998Z" fill="#09C47A"/>
</g>
<defs>
<clipPath id="clip0_2510_26659">
<rect width="87" height="87" fill="white"/>
</clipPath>
</defs>
</svg>
