<svg width="58" height="38" viewBox="0 0 58 38" fill="none" xmlns="http://www.w3.org/2000/svg">
<path d="M57.9521 34.7425C57.9521 36.5415 56.4184 37.9998 54.5265 37.9998H3.42563C1.53369 37.9999 0 36.5415 0 34.7425V3.25719C0 1.45823 1.53369 0 3.42563 0H54.5265C56.4185 0 57.9521 1.45834 57.9521 3.25719V34.7425Z" fill="white"/>
<path d="M12.8627 19.2193L11.5019 13.0129C11.2693 12.157 10.5924 11.9023 9.74671 11.8687H3.50803L3.45245 12.1522C8.31149 13.2722 11.5266 15.9741 12.8627 19.2193Z" fill="#F79F1A"/>
<path d="M27.3183 11.9927H23.2874L20.7699 26.0398H24.7941L27.3183 11.9927Z" fill="#059BBF"/>
<path d="M15.3194 26.0264L21.6591 12.0029H17.3929L13.4491 21.584L13.0281 20.1374C12.2551 18.3971 10.0457 15.8923 7.45184 14.3154L11.0569 26.0311L15.3194 26.0264Z" fill="#059BBF"/>
<path d="M38.8156 21.4489C38.8305 19.8541 37.7536 18.6377 35.4328 17.633C34.0223 16.984 33.1627 16.5513 33.173 15.8928C33.173 15.311 33.901 14.686 35.4784 14.686C36.7983 14.6668 37.7486 14.9408 38.4919 15.2244L38.8561 15.3832L39.4024 12.34C38.6034 12.0563 37.3543 11.7534 35.7922 11.7534C31.8129 11.7534 29.0118 13.6573 28.9865 16.3879C28.9611 18.4072 30.989 19.5321 32.5158 20.205C34.0831 20.891 34.609 21.33 34.5989 21.9453C34.5888 22.8862 33.3499 23.3153 32.1921 23.3153C30.5792 23.3153 29.7246 23.1039 28.3993 22.5789L27.8843 22.354L27.3186 25.5017C28.2584 25.8923 29.9975 26.2336 31.8028 26.2478C36.0346 26.2478 38.7853 24.3682 38.8156 21.4489Z" fill="#059BBF"/>
<path d="M43.6037 23.935C44.0638 23.935 48.1744 23.9398 48.7612 23.9398C48.8825 24.4289 49.2516 26.0454 49.2516 26.0454H52.9881L49.7268 12.0078H46.6173C45.6515 12.0078 44.9337 12.2578 44.5088 13.1711L38.5274 26.0454H42.7597C42.7594 26.0454 43.4469 24.315 43.6037 23.935ZM46.3642 17.1324C46.3443 17.1708 46.6981 16.32 46.9004 15.7911L47.1733 17.0025C47.1733 17.0025 47.942 20.3583 48.1037 21.0602H44.7615C45.0953 20.2526 46.3642 17.1324 46.3642 17.1324Z" fill="#059BBF"/>
<path d="M54.5265 0H3.42563C1.53369 0 0 1.45823 0 3.25719V6.63771H57.9521V3.25719C57.9521 1.45823 56.4185 0 54.5265 0Z" fill="#059BBF"/>
<path d="M54.5265 38.0005H3.42563C1.53369 38.0005 0 36.5422 0 34.7433V31.3628H57.9521V34.7433C57.9521 36.5422 56.4185 38.0005 54.5265 38.0005Z" fill="#F79F1A"/>
</svg>
