<svg width="16" height="14" viewBox="0 0 16 14" fill="none" xmlns="http://www.w3.org/2000/svg">
<g clip-path="url(#clip0_3840_23176)">
<path d="M14.1223 3.54667H13.3289C13.4083 3.33333 13.4612 3.09333 13.4612 2.82667V1.92C13.4612 0.853333 12.6149 0 11.557 0H1.90413C0.846281 0 0 0.853333 0 1.92V2.82667V12.1333C0 13.1733 0.819835 14 1.85124 14H14.1488C15.1802 14 16 13.1733 16 12.1333V5.41333C15.9736 4.4 15.1537 3.54667 14.1223 3.54667ZM14.7835 10.24H12.3769C12.2711 10.24 12.1653 10.1333 12.1653 10.0267V7.54667C12.1653 7.44 12.2711 7.33333 12.3769 7.33333H14.7835V10.24ZM1.19008 1.92C1.19008 1.52 1.50744 1.2 1.90413 1.2H11.5835C11.9802 1.2 12.2975 1.52 12.2975 1.92V2.82667C12.2975 3.22667 11.9802 3.54667 11.5835 3.54667H1.90413C1.50744 3.54667 1.19008 3.22667 1.19008 2.82667V1.92ZM14.1223 12.8267H1.85124C1.48099 12.8267 1.19008 12.5333 1.19008 12.16V4.61333C1.40165 4.69333 1.63967 4.74667 1.90413 4.74667H14.1488C14.519 4.74667 14.8099 5.04 14.8099 5.41333V6.13333H12.4033C11.6364 6.13333 11.0017 6.77333 11.0017 7.54667V10C11.0017 10.7733 11.6364 11.4133 12.4033 11.4133H14.8099V12.1333C14.7835 12.5067 14.4926 12.8267 14.1223 12.8267Z" fill="#09C47A"/>
</g>
<defs>
<clipPath id="clip0_3840_23176">
<rect width="16" height="14" fill="white"/>
</clipPath>
</defs>
</svg>
