<svg width="23" height="20" viewBox="0 0 23 20" fill="#000" xmlns="http://www.w3.org/2000/svg">
<path d="M20.025 4.9875H18.9C19.0125 4.6875 19.0875 4.35 19.0875 3.975V2.7C19.0875 1.2 17.8875 0 16.3875 0H2.7C1.2 0 0 1.2 0 2.7V3.975V17.0625C0 18.525 1.1625 19.6875 2.625 19.6875H20.0625C21.525 19.6875 22.6875 18.525 22.6875 17.0625V7.6125C22.65 6.1875 21.4875 4.9875 20.025 4.9875ZM20.9625 14.4H17.55C17.4 14.4 17.25 14.25 17.25 14.1V10.6125C17.25 10.4625 17.4 10.3125 17.55 10.3125H20.9625V14.4ZM1.6875 2.7C1.6875 2.1375 2.1375 1.6875 2.7 1.6875H16.425C16.9875 1.6875 17.4375 2.1375 17.4375 2.7V3.975C17.4375 4.5375 16.9875 4.9875 16.425 4.9875H2.7C2.1375 4.9875 1.6875 4.5375 1.6875 3.975V2.7ZM20.025 18.0375H2.625C2.1 18.0375 1.6875 17.625 1.6875 17.1V6.4875C1.9875 6.6 2.325 6.675 2.7 6.675H20.0625C20.5875 6.675 21 7.0875 21 7.6125V8.625H17.5875C16.5 8.625 15.6 9.525 15.6 10.6125V14.0625C15.6 15.15 16.5 16.05 17.5875 16.05H21V17.0625C20.9625 17.5875 20.55 18.0375 20.025 18.0375Z" fill="#000"/>
</svg>
