<svg width="26" height="26" viewBox="0 0 26 26" fill="none" xmlns="http://www.w3.org/2000/svg">
<g clip-path="url(#clip0_4193_25876)">
<path d="M0.511008 13.5279C2.61304 9.23664 7.39179 5.37246 12.9721 5.37246C19.251 5.37246 23.7731 10.1389 25.4332 13.5279C25.4332 13.5279 25.4332 13.5279 25.4332 13.5279L25.523 13.4839L0.511008 13.5279ZM0.511008 13.5279C0.397242 13.7603 0.397242 14.0298 0.511009 14.2621L0.511008 13.5279ZM2.34632 13.9454L2.31696 13.895L2.34632 13.8447C4.57223 10.0262 8.37467 7.08858 12.9721 7.08858C17.5812 7.08858 21.3813 10.042 23.5979 13.8447L23.6272 13.895L23.5979 13.9454C21.372 17.7643 17.5691 20.7015 12.9721 20.7015C8.36298 20.7015 4.5629 17.7482 2.34632 13.9454ZM12.9721 22.4176C18.5524 22.4176 23.3312 18.5534 25.4332 14.2621L0.511014 14.2621C2.17107 17.6513 6.69322 22.4176 12.9721 22.4176ZM8.13209 13.895C8.13209 16.4783 10.3005 18.5853 12.9721 18.5853C15.6437 18.5853 17.8121 16.4783 17.8121 13.895C17.8121 11.3117 15.6437 9.20471 12.9721 9.20471C10.3005 9.20471 8.13209 11.3117 8.13209 13.895ZM9.9081 13.895C9.9081 12.2522 11.2855 10.9208 12.9721 10.9208C14.6589 10.9208 16.0361 12.2522 16.0361 13.895C16.0361 15.538 14.6589 16.8692 12.9721 16.8692C11.2855 16.8692 9.9081 15.538 9.9081 13.895Z" fill="#232C28" stroke="white" stroke-width="0.2"/>
</g>
<defs>
<clipPath id="clip0_4193_25876">
<rect width="25" height="25" fill="white" transform="translate(0.5 0.5)"/>
</clipPath>
</defs>
</svg>
