<svg width="23" height="21" viewBox="0 0 23 21" fill="none" xmlns="http://www.w3.org/2000/svg">
<path opacity="0.8" d="M22.4257 7.49458C22.3381 7.23875 22.1773 7.01136 21.9615 6.83804C21.7456 6.66471 21.4833 6.55235 21.2041 6.51359L15.4278 5.71296L12.8467 0.737782C12.7074 0.513036 12.5092 0.326797 12.2715 0.197421C12.0338 0.0680441 11.7648 0 11.4911 0C11.2175 0 10.9485 0.0680441 10.7108 0.197421C10.4731 0.326797 10.2748 0.513036 10.1356 0.737782L7.55449 5.71296L1.79222 6.51359C1.51332 6.5526 1.25141 6.66523 1.03608 6.83875C0.820744 7.01228 0.66057 7.23979 0.573651 7.49559C0.486731 7.75138 0.476529 8.02526 0.544196 8.2863C0.611863 8.54733 0.754714 8.78512 0.956591 8.97279L5.13479 12.8589L4.14874 18.3392C4.10085 18.6045 4.13177 18.8773 4.23799 19.1267C4.34421 19.376 4.52149 19.5921 4.74976 19.7503C4.97804 19.9085 5.24819 20.0027 5.52964 20.022C5.81109 20.0414 6.09258 19.9852 6.34228 19.8598L11.4893 17.2691L16.6515 19.8598C16.8682 19.9688 17.1095 20.0257 17.3545 20.0257C17.6739 20.0249 17.9852 19.9291 18.2449 19.7517C18.4727 19.5933 18.6496 19.3775 18.7558 19.1286C18.862 18.8796 18.8932 18.6072 18.8461 18.3422L17.8616 12.8619L22.0398 8.97577C22.2432 8.78819 22.3872 8.54987 22.4554 8.28798C22.5237 8.02608 22.5134 7.75116 22.4257 7.49458Z" fill="#607A6F"/>
<path fill-rule="evenodd" clip-rule="evenodd" d="M13.9444 2.85375V18.5012L11.4893 17.2691L6.34228 19.8598C6.09258 19.9852 5.81109 20.0414 5.52964 20.022C5.24819 20.0027 4.97804 19.9085 4.74976 19.7503C4.52149 19.5921 4.34421 19.376 4.23799 19.1267C4.13177 18.8773 4.10085 18.6045 4.14874 18.3392L5.13479 12.8589L0.956591 8.97279C0.754714 8.78512 0.611863 8.54733 0.544196 8.2863C0.476529 8.02526 0.486731 7.75138 0.573651 7.49559C0.66057 7.23979 0.820744 7.01228 1.03608 6.83875C1.25141 6.66523 1.51332 6.5526 1.79222 6.51359L7.55449 5.71296L10.1356 0.737782C10.2748 0.513036 10.4731 0.326797 10.7108 0.197421C10.9485 0.0680441 11.2175 0 11.4911 0C11.7648 0 12.0338 0.0680441 12.2715 0.197421C12.5092 0.326797 12.7074 0.513036 12.8467 0.737782L13.9444 2.85375Z" fill="#09C47A"/>
</svg>
